<?xml version="1.0" encoding="utf-8"?>
<svg width="57" height="54" viewBox="0 0 57 54" fill="none" xmlns="http://www.w3.org/2000/svg">
  <g>
    <path d="M27.7502 11.2054L14.2958 11.2054C14.2958 12.6046 14.2958 15.403 14.2872 16.8023L22.0837 16.8023C21.7849 18.2015 20.7257 20.1604 19.229 21.1468C19.2283 21.1462 19.2277 21.1477 19.227 21.1495C19.226 21.1518 19.2249 21.1546 19.2233 21.1538C17.2334 22.4677 14.6074 22.7657 12.6576 22.3739C9.60138 21.7667 7.18269 19.5503 6.20063 16.7351C6.20635 16.7309 6.21064 16.6917 6.21493 16.6889C5.60025 14.9427 5.60025 12.6046 6.21493 11.2054L6.2135 11.2054C7.00543 8.63366 9.49703 6.28718 12.5576 5.64494C15.0191 5.12303 17.7966 5.68832 19.8394 7.59964C20.111 7.33379 23.5989 3.92811 23.8605 3.65106C16.8818 -2.66918 5.70746 -0.445829 1.52621 7.71578L1.52478 7.71578C1.52478 7.71578 1.52621 7.71578 1.51763 7.73117C-0.550838 11.7399 -0.465067 16.4637 1.53193 20.2807C1.52621 20.2849 1.52192 20.2877 1.51763 20.2919C3.32736 23.8039 6.6209 26.4974 10.5892 27.523C14.8047 28.6284 20.1696 27.8728 23.7633 24.6225C23.7647 24.6239 23.7662 24.6253 23.7676 24.6267C26.8124 21.8842 28.7079 17.2122 27.7502 11.2054L27.7502 11.2054Z" fill="#1064E5" fill-rule="evenodd" transform="translate(15 15)" />
  </g>
</svg>