<?xml version="1.0" encoding="utf-8"?>
<svg width="57" height="54" viewBox="0 0 57 54" fill="none" xmlns="http://www.w3.org/2000/svg">
  <g>
    <path d="M3.00061 6C1.34303 6 0 4.65637 0 2.99939C0 1.34363 1.34303 0 3.00061 0C4.65697 0 6 1.34363 6 2.99939C6.00123 4.65637 4.65697 6 3.00061 6ZM32 32L25.8462 32L25.8462 20.7934C25.8462 17.7192 24.5431 16.0044 22.2062 16.0044C19.6631 16.0044 18.1539 17.7913 18.1539 20.7934L18.1539 32L12 32L12 11.1849L18.1539 11.1849L18.1539 13.5258C18.1539 13.5258 20.0846 10 24.4354 10C28.7877 10 32 12.7636 32 18.483L32 32ZM6 32L0 32L0 12L6 12L6 32Z" fill="#1064E5" fill-rule="evenodd" transform="translate(13 11)" />
  </g>
</svg>