<?xml version="1.0" encoding="utf-8"?>
<svg width="72" height="72" viewBox="0 0 72 72" fill="none" xmlns="http://www.w3.org/2000/svg">
  <defs>
    <filter color-interpolation-filters="sRGB" x="-58" y="-58" width="60" height="60" id="filter_1">
      <feFlood flood-opacity="0" result="BackgroundImageFix_1" />
      <feColorMatrix type="matrix" values="0 0 0 0 0 0 0 0 0 0 0 0 0 0 0 0 0 0 1 0" in="SourceAlpha" />
      <feOffset dx="0" dy="4" />
      <feGaussianBlur stdDeviation="2" />
      <feColorMatrix type="matrix" values="0 0 0 0 0 0 0 0 0 0 0 0 0 0 0 0 0 0 0.251 0" />
      <feBlend mode="normal" in2="BackgroundImageFix_1" result="Shadow_2" />
      <feBlend mode="normal" in="SourceGraphic" in2="Shadow_2" result="Shape_3" />
    </filter>
  </defs>
  <g transform="translate(6 2)">
    <rect width="60" height="60" filter="url(#filter_1)" />
    <g transform="translate(0 5.169)">
      <path d="M14.817 8.21468C14.817 10.2822 16.4991 11.9642 18.5666 11.9642C20.6341 11.9642 22.3161 10.2822 22.3161 8.21468C22.3161 7.69721 21.8966 7.27767 21.3791 7.27767C20.8617 7.27767 20.4421 7.69721 20.4421 8.21468C20.4421 9.2489 19.6008 10.0902 18.5666 10.0902C17.5324 10.0902 16.691 9.2489 16.691 8.21468C16.691 8.0213 16.7206 7.8346 16.7751 7.65903C16.8075 7.60984 16.837 7.5583 16.8603 7.50196C16.8828 7.44726 16.8992 7.39175 16.9109 7.33588C17.2265 6.74357 17.85 6.33925 18.5667 6.33925C19.0842 6.33925 19.5037 5.91971 19.5037 5.40225C19.5037 4.88478 19.0842 4.46524 18.5667 4.46524C17.3457 4.46524 16.2594 5.05216 15.5744 5.95836L1.29436 0.0710278C0.815784 -0.126329 0.268102 0.101715 0.0709782 0.580173C-0.126262 1.05863 0.101665 1.60631 0.580125 1.80355L14.8549 7.68878C14.8304 7.8606 14.817 8.03606 14.817 8.21468L14.817 8.21468Z" fill="#1064E5" fill-rule="evenodd" transform="translate(11.434 21.785)" />
      <path d="M1.63972 0.0899658C1.03348 -0.160021 0.339659 0.128847 0.0899134 0.734959C-0.159946 1.34106 0.128792 2.03488 0.7349 2.28475L0.734908 2.28475L14.8344 8.09774C14.8231 8.21834 14.8171 8.34073 14.8171 8.46475C14.8171 10.6704 16.6111 12.4643 18.8167 12.4643C21.0223 12.4643 22.8162 10.6704 22.8162 8.46475C22.8162 7.80921 22.2848 7.27773 21.6292 7.27773C20.9737 7.27773 20.4422 7.80921 20.4422 8.46475C20.4422 9.3609 19.7128 10.0903 18.8167 10.0903C17.9205 10.0903 17.1911 9.3609 17.1911 8.46475C17.1911 8.30832 17.2133 8.15721 17.2546 8.01437C17.2855 7.96472 17.3158 7.90937 17.3414 7.8476L17.3416 7.84709C17.3652 7.78957 17.3833 7.73201 17.3971 7.67505C17.6759 7.17622 18.208 6.83932 18.8168 6.83932C19.4723 6.83932 20.0038 6.30785 20.0038 5.65232C20.0038 4.99677 19.4723 4.46531 18.8168 4.46531C17.5835 4.46531 16.4795 5.02666 15.7458 5.90561L1.63974 0.0899734L1.63972 0.0899658L1.63972 0.0899658ZM15.1054 8.70772L15.1049 8.70769L16.1049 7.70772L15.1054 8.70772L15.1054 8.70772ZM15.3799 7.78177L15.2002 7.70772L0.92548 1.8225L0.925471 1.82248C0.574667 1.67788 0.407556 1.27634 0.552175 0.92552L0.552195 0.925472C0.69671 0.574703 1.09821 0.407505 1.44911 0.552214L1.44914 0.552221L15.7292 6.43956L15.9075 6.5131L16.0239 6.35919C16.6639 5.51253 17.6777 4.96531 18.8168 4.96531C19.1962 4.96531 19.5038 5.27292 19.5038 5.65232C19.5038 6.03171 19.1962 6.33932 18.8168 6.33932C18.0037 6.33932 17.2975 6.7982 16.9404 7.46837L16.9236 7.4998L16.9163 7.53465C16.9074 7.57697 16.8953 7.6175 16.8794 7.65646L16.8792 7.65696C16.8637 7.69408 16.8429 7.73119 16.8163 7.7718L16.797 7.80124L16.7865 7.83488C16.7246 8.03411 16.6911 8.24581 16.6911 8.46475C16.6911 9.63704 17.6444 10.5903 18.8167 10.5903C19.989 10.5903 20.9422 9.63704 20.9422 8.46475C20.9422 8.08535 21.2498 7.77773 21.6292 7.77773C22.0086 7.77773 22.3162 8.08535 22.3162 8.46475C22.3162 10.3942 20.7461 11.9643 18.8167 11.9643C16.8872 11.9643 15.3171 10.3942 15.3171 8.46475C15.3171 8.29862 15.3295 8.13496 15.3525 7.97411L15.3799 7.78177L15.3799 7.78177ZM16.7292 6.20855L15.7292 7.20843L16.7288 6.20843L16.7292 6.20855L16.7292 6.20855Z" fill="#1064E5" fill-rule="evenodd" transform="translate(11.183 21.535)" />
      <path d="M51.2132 8.78679C45.547 3.12059 38.0134 0 30.0001 0C21.9867 0 14.4531 3.12059 8.78679 8.78679C3.12047 14.453 0 21.9867 0 29.9999C0 35.868 1.70055 41.557 4.91765 46.4523C5.09767 46.7261 5.39658 46.8747 5.70157 46.8747C5.8782 46.8747 6.0567 46.8249 6.21529 46.7207C6.64772 46.4365 6.76789 45.8555 6.48374 45.4231C5.68342 44.2054 4.98441 42.9349 4.38754 41.6232L6.97239 40.5524C7.4505 40.3543 7.67761 39.8062 7.47955 39.3281C7.28149 38.8499 6.73322 38.6231 6.25523 38.8209L3.66862 39.8924C2.59481 37.0391 1.99184 34.0198 1.89006 30.9368L4.68703 30.9368C5.20449 30.9368 5.62404 30.5173 5.62404 29.9998C5.62404 29.4824 5.20449 29.0628 4.68703 29.0628L1.89112 29.0628C1.99208 25.958 2.59411 22.9406 3.65866 20.1031L6.25523 21.1787C6.37247 21.2273 6.49393 21.2503 6.61352 21.2503C6.98118 21.2503 7.33009 21.0324 7.47955 20.6717C7.67761 20.1936 7.4505 19.6454 6.97239 19.4474L4.37583 18.3718C5.62943 15.6125 7.33736 13.0532 9.46144 10.7864L11.4385 12.7634C11.6215 12.9464 11.8612 13.0379 12.1011 13.0379C12.341 13.0379 12.5807 12.9464 12.7637 12.7634C13.1297 12.3975 13.1297 11.8043 12.7637 11.4384L10.7866 9.46132C13.0535 7.33736 15.6128 5.62943 18.372 4.37571L19.4476 6.97227C19.597 7.33314 19.946 7.55088 20.3136 7.55088C20.4332 7.55088 20.5547 7.52792 20.6719 7.47931C21.15 7.28125 21.3771 6.7331 21.1791 6.25499L20.1035 3.65843C22.941 2.59387 25.9584 1.99184 29.0632 1.89088L29.0632 4.6868C29.0632 5.20426 29.4827 5.6238 30.0002 5.6238C30.5176 5.6238 30.9372 5.20426 30.9372 4.6868L30.9372 1.89112C34.042 1.99208 37.0594 2.59411 39.8969 3.65866L38.8213 6.25523C38.6232 6.73334 38.8503 7.28149 39.3284 7.47955C39.4457 7.52815 39.5671 7.55111 39.6867 7.55111C40.0544 7.55111 40.4033 7.33326 40.5528 6.97251L41.6283 4.37594C44.3876 5.62954 46.9469 7.33747 49.2136 9.46155L47.2365 11.4386C46.8705 11.8045 46.8705 12.3978 47.2365 12.7637C47.4195 12.9466 47.6593 13.0381 47.8991 13.0381C48.139 13.0381 48.3788 12.9466 48.5617 12.7637L50.5388 10.7866C52.6628 13.0535 54.3707 15.6128 55.6244 18.372L53.0278 19.4476C52.5497 19.6457 52.3226 20.1938 52.5207 20.6719C52.6701 21.0328 53.0191 21.2505 53.3867 21.2505C53.5063 21.2505 53.6278 21.2276 53.745 21.179L56.3416 20.1034C57.4061 22.9409 58.0082 25.9583 58.1091 29.063L55.3132 29.063C54.7957 29.063 54.3762 29.4826 54.3762 30.0001C54.3762 30.5175 54.7957 30.9371 55.3132 30.9371L58.1101 30.9371C58.0084 34.0201 57.4053 37.0393 56.3315 39.8926L53.7449 38.8212C53.2669 38.6235 52.7188 38.8502 52.5206 39.3283C52.3225 39.8064 52.5496 40.3546 53.0277 40.5526L55.6126 41.6234C55.0157 42.9352 54.3167 44.2057 53.5164 45.4233C53.2321 45.8557 53.3524 46.4367 53.7848 46.721C54.2171 47.005 54.7982 46.8849 55.0825 46.4525C58.2997 41.5573 60.0001 35.8682 60.0001 30.0002C60 21.9866 56.8794 14.453 51.2132 8.78679L51.2132 8.78679Z" fill="#1064E5" fill-rule="evenodd" />
      <path d="M5.95873 46.7023L4.95873 47.7023L4.95882 47.7023L5.95873 46.7023L5.95873 46.7023ZM6.46529 46.9707L7.46442 47.9707L7.46529 47.9702L6.46529 46.9707L6.46529 46.9707ZM6.73374 46.5358L7.73374 45.5358L7.73369 45.5358L6.73374 46.5358L6.73374 46.5358ZM5.30283 42.3328L5.01697 41.6422L4.30283 41.9382L4.62299 42.6422L5.30283 42.3328L5.30283 42.3328ZM7.22239 40.8024L8.22239 41.8024L8.22239 41.8024L7.22239 40.8024L7.22239 40.8024ZM8.49857 39.5781L7.49857 40.577L7.49861 40.5781L8.49857 39.5781L8.49857 39.5781ZM7.40955 39.8399L6.41038 38.8399L6.40955 38.8403L7.40955 39.8399L7.40955 39.8399ZM4.3944 40.1424L3.68464 40.4095L3.96065 41.1424L4.68464 40.8428L4.3944 40.1424L4.3944 40.1424ZM2.88167 31.9047L2.88167 30.9368L1.88167 30.9368L1.91468 31.9368L2.88167 31.9047L2.88167 31.9047ZM2.88285 29.3361L1.91537 29.3047L1.88285 30.3047L2.88285 30.3047L2.88285 29.3361L2.88285 29.3361ZM4.38443 21.0232L4.67459 20.3233L3.95007 20.0232L3.67459 20.7571L4.38443 21.0232L4.38443 21.0232ZM6.50523 22.1977L7.50523 21.1981L7.5045 21.1977L6.50523 22.1977L6.50523 22.1977ZM7.72955 20.9217L8.72955 21.9217L8.72955 21.9217L7.72955 20.9217L7.72955 20.9217ZM7.22239 20.4664L8.22239 19.4664L8.22239 19.4664L7.22239 20.4664L7.22239 20.4664ZM5.29126 18.8276L4.61095 18.5184L4.29126 19.2223L5.00528 19.5184L5.29126 18.8276L5.29126 18.8276ZM10.0369 11.677L10.529 11.1851L10.0206 10.677L9.52901 11.2012L10.0369 11.677L10.0369 11.677ZM11.6885 13.8367L12.6885 12.8367L12.6885 12.8367L11.6885 13.8367L11.6885 13.8367ZM13.8369 13.8366L12.8369 12.8366L12.8369 12.8372L13.8369 13.8366L13.8369 13.8366ZM13.8369 11.6884L12.8369 12.6884L12.8369 12.6884L13.8369 11.6884L13.8369 11.6884ZM11.6772 10.0368L11.2017 9.52889L10.6772 10.0205L11.1853 10.5289L11.6772 10.0368L11.6772 10.0368ZM18.8278 5.29113L19.5186 5.00519L19.2225 4.29113L18.5186 4.61084L18.8278 5.29113L18.8278 5.29113ZM19.6976 8.1266L20.6976 7.12681L20.6976 7.1266L19.6976 8.1266L19.6976 8.1266ZM21.8262 8.49835L20.8262 7.49835L20.8262 7.49844L21.8262 8.49835L21.8262 8.49835ZM22.1981 6.50499L21.1981 7.50499L21.1981 7.50499L22.1981 6.50499L22.1981 6.50499ZM21.0236 4.38422L20.7575 3.67436L20.0236 3.94985L20.3234 4.67436L21.0236 4.38422L21.0236 4.38422ZM29.3368 2.88262L30.305 2.88262L30.305 1.88262L29.305 1.91511L29.3368 2.88262L29.3368 2.88262ZM31.9058 2.88285L31.9372 1.91537L30.9372 1.88285L30.9372 2.88285L31.9058 2.88285L31.9058 2.88285ZM40.1469 4.38443L40.8468 4.6746L41.1469 3.95006L40.413 3.6746L40.1469 4.38443L40.1469 4.38443ZM39.0713 6.50523L40.0709 7.50523L40.0713 7.50513L39.0713 6.50523L39.0713 6.50523ZM39.5784 8.49858L40.5784 7.49871L40.5774 7.49858L39.5784 8.49858L39.5784 8.49858ZM40.8028 7.22251L41.8028 8.22251L41.8028 8.22241L40.8028 7.22251L40.8028 7.22251ZM42.3381 5.29138L42.6474 4.61105L41.9432 4.29138L41.6474 5.00542L42.3381 5.29138L42.3381 5.29138ZM49.4636 10.037L49.9555 10.5291L50.4636 10.0207L49.9394 9.52913L49.4636 10.037L49.4636 10.037ZM47.4865 11.6886L48.4865 12.6886L48.4865 12.6886L47.4865 11.6886L47.4865 11.6886ZM47.4865 13.8369L48.4865 12.8369L48.4865 12.8369L47.4865 13.8369L47.4865 13.8369ZM49.6349 13.8369L48.6349 12.8369L48.6349 12.8369L49.6349 13.8369L49.6349 13.8369ZM51.1042 11.6772L51.612 11.2017L51.1204 10.6772L50.612 11.1853L51.1042 11.6772L51.1042 11.6772ZM55.8744 18.8278L56.1604 19.5186L56.8744 19.2225L56.5546 18.5186L55.8744 18.8278L55.8744 18.8278ZM54.1822 20.4666L53.1822 19.4666L53.1822 19.4666L54.1822 20.4666L54.1822 20.4666ZM52.7707 21.8262L53.7707 20.8272L53.7707 20.8262L52.7707 21.8262L52.7707 21.8262ZM54.8993 22.198L53.8993 21.198L53.8993 21.198L54.8993 22.198L54.8993 22.198ZM56.7862 21.0235L57.4959 20.7574L57.2205 20.0235L56.4959 20.3233L56.7862 21.0235L56.7862 21.0235ZM58.3591 29.3363L58.3591 30.3049L59.3591 30.3049L59.3266 29.3049L58.3591 29.3363L58.3591 29.3363ZM58.3601 31.9053L59.3272 31.9371L59.3601 30.9371L58.3601 30.9371L58.3601 31.9053L58.3601 31.9053ZM56.7761 40.1426L56.4858 40.8428L57.2098 41.1426L57.4858 40.4097L56.7761 40.1426L56.7761 40.1426ZM53.9949 39.8401L54.9949 38.8405L54.9928 38.8401L53.9949 39.8401L53.9949 39.8401ZM53.5396 40.4826L52.5396 39.4826L52.5396 39.4826L53.5396 40.4826L53.5396 40.4826ZM54.182 40.8026L53.182 41.8026L53.182 41.8026L54.182 40.8026L54.182 40.8026ZM55.8626 42.333L56.5423 42.6424L56.8626 41.9384L56.1485 41.6424L55.8626 42.333L55.8626 42.333ZM53.7664 45.6733L54.7664 46.6733L54.7664 46.6733L53.7664 45.6733L53.7664 45.6733ZM54.8975 46.971L53.8975 47.971L53.8982 47.971L54.8975 46.971L54.8975 46.971ZM55.3325 46.7025L56.3325 47.7025L56.3325 47.7025L55.3325 46.7025L55.3325 46.7025ZM60.2501 30.2502L61.2501 30.2502L61.2501 30.2502L60.2501 30.2502L60.2501 30.2502ZM51.64 8.86001C45.9269 3.14693 38.3297 0 30.2501 0L30.2501 0.5C38.197 0.5 45.6671 3.59425 51.2864 9.21357L51.64 8.86001L51.64 8.86001ZM30.2501 0C22.1703 0 14.5732 3.14693 8.86001 8.86001L9.21356 9.21357C14.833 3.59425 22.303 0.5 30.2501 0.5L30.2501 0L30.2501 0ZM8.86001 8.86001C3.14681 14.5731 0 22.1703 0 30.2499L0.5 30.2499C0.5 22.303 3.59413 14.8329 9.21356 9.21357L8.86001 8.86001L8.86001 8.86001ZM0 30.2499C0 36.1667 1.71478 41.9034 4.95873 46.8396L5.37657 46.565C2.18632 41.7105 0.5 36.0692 0.5 30.2499L0 30.2499L0 30.2499ZM4.95875 46.9041C5.18857 47.3327 5.57035 47.5649 5.95875 47.5649L5.95875 46.9475C5.73275 46.9475 5.51241 46.8126 5.37957 46.5649L4.95875 46.9041L4.95875 46.9041ZM5.95157 47.7617C6.29566 47.7617 6.64353 47.6584 6.95157 47.4436L6.52999 46.7617C6.35075 46.8867 6.15018 46.946 5.95157 46.946L5.95157 47.7617L5.95157 47.7617ZM6.66712 47.1796C7.34351 46.8195 7.53151 46.0836 7.08702 45.5358L6.57103 45.8104C6.82828 46.1274 6.71951 46.5534 6.32796 46.7618L6.66712 47.1796L6.66712 47.1796ZM6.94266 45.5358C6.14949 44.329 5.45669 43.0697 4.86509 41.7696L4.40999 41.9767C5.01214 43.3 5.71735 44.5819 6.52483 45.8104L6.94266 45.5358L6.94266 45.5358ZM4.73322 42.1041L7.31807 41.0334L7.12671 40.5714L4.54186 41.6422L4.73322 42.1041L4.73322 42.1041ZM7.3337 41.0334C7.98881 40.7825 8.30005 40.0881 8.02863 39.4824L7.52896 39.6738C7.68602 40.0243 7.50593 40.4262 7.12671 40.5714L7.3337 41.0334L7.3337 41.0334ZM7.96052 39.5424C7.70958 38.8869 7.01503 38.5763 6.40963 38.8473L6.60083 39.3471C6.95141 39.1902 7.35339 39.3702 7.49857 39.7494L7.96052 39.5424L7.96052 39.5424ZM6.40955 38.84L3.82294 39.9114L4.0143 40.3734L6.6009 39.3019L6.40955 38.84L6.40955 38.84ZM4.1526 40.0543C3.08842 37.2266 2.49081 34.2343 2.38993 31.1786L1.8902 31.1951C1.99288 34.3053 2.60119 37.3515 3.68464 40.2305L4.1526 40.0543L4.1526 40.0543ZM2.14006 31.9368L4.93703 31.9368L4.93703 30.9368L2.14006 30.9368L2.14006 31.9368L2.14006 31.9368ZM4.93703 31.4368C5.59256 31.4368 6.12404 30.9054 6.12404 30.2498L5.62404 30.2498C5.62404 30.6292 5.31642 30.9368 4.93703 30.9368L4.93703 31.4368L4.93703 31.4368ZM6.12404 30.2498C6.12404 29.5943 5.59256 29.0628 4.93703 29.0628L4.93703 29.5628C5.31642 29.5628 5.62404 29.8704 5.62404 30.2498L6.12404 30.2498L6.12404 30.2498ZM4.93703 29.0628L2.14112 29.0628L2.14112 30.0628L4.93703 30.0628L4.93703 29.0628L4.93703 29.0628ZM2.39098 29.3209C2.49106 26.2433 3.0878 23.2528 4.14273 20.441L3.67459 20.2653C2.60041 23.1285 1.99309 26.1728 1.89125 29.3047L2.39098 29.3209L2.39098 29.3209ZM3.81299 20.5841L6.40956 21.6597L6.6009 21.1977L4.00434 20.1222L3.81299 20.5841L3.81299 20.5841ZM6.40948 22.0338C6.73593 22.1449 7.07521 22.1978 7.40948 22.1978L7.40948 21.2928C7.21696 21.2928 7.02123 21.2624 6.83123 21.1978L6.40948 22.0338L6.40948 22.0338ZM6.86352 21.826C7.32875 21.826 7.77103 21.5278 7.96051 21.0331L7.49858 20.826C7.38916 21.1117 7.1336 21.285 6.86352 21.285L6.86352 21.826L6.86352 21.826ZM8.02863 21.0174C8.30005 20.4117 7.98881 19.7173 7.3337 19.4664L7.12671 19.9283C7.50593 20.0736 7.68602 20.4755 7.52896 20.826L8.02863 21.0174L8.02863 21.0174ZM7.31807 19.4664L4.7215 18.3908L4.53015 18.8528L7.12672 19.9283L7.31807 19.4664L7.31807 19.4664ZM4.85344 18.7252C6.0957 15.9909 7.78833 13.4544 9.89386 11.2073L9.52901 10.8654C7.38638 13.1521 5.66315 15.7342 4.39822 18.5184L4.85344 18.7252L4.85344 18.7252ZM9.53466 11.2131L11.5117 13.1902L11.8653 12.8367L9.88821 10.8596L9.53466 11.2131L9.53466 11.2131ZM11.5117 13.3408C11.7878 13.6713 12.1501 13.8367 12.5117 13.8367L12.5117 13.1236C12.3017 13.1236 12.0928 13.0281 11.933 12.8367L11.5117 13.3408L11.5117 13.3408ZM12.3511 13.8367C12.7127 13.8367 13.075 13.6713 13.3511 13.3408L12.9298 12.8367C12.77 13.0281 12.5611 13.1236 12.3511 13.1236L12.3511 13.8367L12.3511 13.8367ZM13.341 13.1903C14.0022 12.7267 14.0022 11.9751 13.341 11.5116L12.8369 11.8652C13.2196 12.1335 13.2196 12.5684 12.8369 12.8366L13.341 13.1903L13.341 13.1903ZM13.1905 11.5116L11.2134 9.53454L10.8598 9.88809L12.8369 11.8652L13.1905 11.5116L13.1905 11.5116ZM11.2075 9.89375C13.4546 7.78834 15.9911 6.0957 18.7254 4.85332L18.5186 4.3981C15.7344 5.66315 13.1523 7.38638 10.8657 9.52889L11.2075 9.89375L11.2075 9.89375ZM18.3911 4.72138L19.4666 7.31795L19.9286 7.1266L18.853 4.53004L18.3911 4.72138L18.3911 4.72138ZM19.4666 7.33361C19.6561 7.82866 20.0984 8.12662 20.5636 8.12662L20.5636 7.58565C20.2935 7.58565 20.038 7.41244 19.9286 7.12662L19.4666 7.33361L19.4666 7.33361ZM20.5636 8.49837C20.8979 8.49837 21.237 8.44556 21.5636 8.33434L21.1419 7.49837C20.9518 7.56311 20.7561 7.59341 20.5636 7.59341L20.5636 8.49837L20.5636 8.49837ZM21.0332 7.96028C21.6883 7.70939 21.9996 7.01502 21.7281 6.40932L21.2285 6.60067C21.3855 6.95119 21.2054 7.35311 20.8262 7.49835L21.0332 7.96028L21.0332 7.96028ZM21.66 6.40932L20.5845 3.81276L20.1225 4.0041L21.1981 6.60067L21.66 6.40932L21.66 6.40932ZM20.4413 4.1425C23.2532 3.08756 26.2436 2.49083 29.3213 2.39075L29.305 1.89101C26.1732 1.99286 23.1288 2.60018 20.2657 3.67436L20.4413 4.1425L20.4413 4.1425ZM29.0632 2.14088L29.0632 4.9368L30.0632 4.9368L30.0632 2.14088L29.0632 2.14088L29.0632 2.14088ZM29.0632 4.9368C29.0632 5.59233 29.5946 6.1238 30.2502 6.1238L30.2502 5.6238C29.8708 5.6238 29.5632 5.31619 29.5632 4.9368L29.0632 4.9368L29.0632 4.9368ZM30.2502 6.1238C30.9057 6.1238 31.4372 5.59233 31.4372 4.9368L30.9372 4.9368C30.9372 5.31619 30.6296 5.6238 30.2502 5.6238L30.2502 6.1238L30.2502 6.1238ZM31.9372 4.9368L31.9372 2.14112L30.9372 2.14112L30.9372 4.9368L31.9372 4.9368L31.9372 4.9368ZM31.1791 2.39098C34.2567 2.49106 37.2472 3.0878 40.059 4.14273L40.2347 3.6746C37.3715 2.60041 34.3272 1.99309 31.1953 1.89125L31.1791 2.39098L31.1791 2.39098ZM39.9159 3.81299L38.8403 6.40956L39.3023 6.6009L40.3778 4.00434L39.9159 3.81299L39.9159 3.81299ZM38.8477 6.40955C38.5763 7.01525 38.8875 7.70962 39.5427 7.96051L39.7496 7.49858C39.3704 7.35335 39.1903 6.95142 39.3473 6.60091L38.8477 6.40955L38.8477 6.40955ZM39.4827 8.33459C39.8091 8.4458 40.1486 8.49861 40.4827 8.49861L40.4827 7.59363C40.2902 7.59363 40.0946 7.56333 39.9045 7.49861L39.4827 8.33459L39.4827 8.33459ZM39.9367 8.12682C40.402 8.12682 40.8442 7.82871 41.0337 7.33387L40.5718 7.12682C40.4624 7.41257 40.2068 7.58586 39.9367 7.58586L39.9367 8.12682L39.9367 8.12682ZM41.0337 7.31818L42.1093 4.72162L41.6474 4.53027L40.5718 7.12683L41.0337 7.31818L41.0337 7.31818ZM41.7749 4.85355C44.5092 6.09582 47.0458 7.78845 49.2927 9.89398L49.6346 9.52913C47.348 7.3865 44.7659 5.66327 41.9817 4.39833L41.7749 4.85355L41.7749 4.85355ZM49.2869 9.53478L47.3098 11.5119L47.6633 11.8654L49.6404 9.88833L49.2869 9.53478L49.2869 9.53478ZM47.4579 11.5118C46.7967 11.9754 46.7967 12.7269 47.4579 13.1905L47.962 12.8369C47.5793 12.5686 47.5793 12.1337 47.962 11.8654L47.4579 11.5118L47.4579 11.5118ZM47.3098 13.3412C47.5859 13.6716 47.9483 13.8369 48.3098 13.8369L48.3098 13.1238C48.0997 13.1238 47.8909 13.0283 47.731 12.8369L47.3098 13.3412L47.3098 13.3412ZM48.1491 13.8369C48.5107 13.8369 48.8731 13.6716 49.1491 13.3412L48.7278 12.8369C48.5681 13.0283 48.3591 13.1238 48.1491 13.1238L48.1491 13.8369L48.1491 13.8369ZM48.9885 13.1905L50.9656 11.2134L50.612 10.8598L48.6349 12.8369L48.9885 13.1905L48.9885 13.1905ZM50.6064 11.2075C52.7118 13.4546 54.4044 15.9911 55.6468 18.7254L56.102 18.5186C54.837 15.7344 53.1137 13.1523 50.9712 10.8657L50.6064 11.2075L50.6064 11.2075ZM55.7787 18.3911L53.1822 19.4666L53.3735 19.9286L55.9701 18.853L55.7787 18.3911L55.7787 18.3911ZM53.2421 19.4666C52.5869 19.7175 52.2757 20.4119 52.5471 21.0176L53.0469 20.8262C52.8897 20.4757 53.0698 20.0738 53.449 19.9286L53.2421 19.4666L53.2421 19.4666ZM52.5397 21.0333C52.7292 21.5283 53.1715 21.8263 53.6367 21.8263L53.6367 21.2853C53.3666 21.2853 53.1111 21.1121 53.0017 20.8263L52.5397 21.0333L52.5397 21.0333ZM53.6367 22.198C53.9711 22.198 54.3103 22.1451 54.6367 22.034L54.2151 21.198C54.025 21.2628 53.8292 21.293 53.6367 21.293L53.6367 22.198L53.6367 22.198ZM54.0907 21.6599L56.6872 20.5844L56.4959 20.1224L53.8993 21.198L54.0907 21.6599L54.0907 21.6599ZM56.3575 20.4412C57.4124 23.253 58.0092 26.2435 58.1093 29.3212L58.609 29.3049C58.5071 26.173 57.8998 23.1287 56.8256 20.2656L56.3575 20.4412L56.3575 20.4412ZM58.3591 29.063L55.5632 29.063L55.5632 30.063L58.3591 30.063L58.3591 29.063L58.3591 29.063ZM55.5632 29.063C54.9077 29.063 54.3762 29.5945 54.3762 30.2501L54.8762 30.2501C54.8762 29.8707 55.1838 29.563 55.5632 29.563L55.5632 29.063L55.5632 29.063ZM54.3762 30.2501C54.3762 30.9056 54.9077 31.4371 55.5632 31.4371L55.5632 30.9371C55.1838 30.9371 54.8762 30.6294 54.8762 30.2501L54.3762 30.2501L54.3762 30.2501ZM55.5632 31.9371L58.3601 31.9371L58.3601 30.9371L55.5632 30.9371L55.5632 31.9371L55.5632 31.9371ZM58.1102 31.1788C58.0094 34.2346 57.4117 37.2269 56.3475 40.0546L56.8155 40.2307C57.8989 37.3518 58.5074 34.3055 58.6099 31.1953L58.1102 31.1788L58.1102 31.1788ZM56.6772 39.9117L54.0906 38.8402L53.8992 39.3021L56.4858 40.3736L56.6772 39.9117L56.6772 39.9117ZM54.0904 38.8475C53.485 38.5766 52.7907 38.8873 52.5396 39.5426L53.0015 39.7496C53.1468 39.3705 53.5488 39.1906 53.8993 39.3474L54.0904 38.8475L54.0904 38.8475ZM52.547 39.4826C52.2756 40.0883 52.5868 40.7827 53.2419 41.0336L53.4489 40.5717C53.0697 40.4264 52.8896 40.0245 53.0466 39.674L52.547 39.4826L52.547 39.4826ZM53.182 41.0336L55.7669 42.1044L55.9583 41.6424L53.3734 40.5717L53.182 41.0336L53.182 41.0336ZM55.635 41.7699C55.0434 43.0701 54.3506 44.3292 53.5575 45.536L53.9753 45.8106C54.7828 44.5821 55.488 43.3003 56.0901 41.9769L55.635 41.7699L55.635 41.7699ZM53.6033 45.536C53.1586 46.0839 53.3469 46.8198 54.0231 47.1799L54.3623 46.7621C53.9706 46.5536 53.8619 46.1276 54.1192 45.8106L53.6033 45.536L53.6033 45.536ZM53.8976 47.3243C54.4452 47.7687 55.1813 47.5808 55.5414 46.9043L55.1236 46.5652C54.9151 46.9567 54.4891 47.0655 54.1721 46.8082L53.8976 47.3243L53.8976 47.3243ZM55.5414 46.8398C58.7855 41.9038 60.5001 36.1669 60.5001 30.2502L60.0001 30.2502C60.0001 36.0695 58.3139 41.7109 55.1236 46.5652L55.5414 46.8398L55.5414 46.8398ZM60.5001 30.2502C60.5 22.1703 57.3531 14.5731 51.64 8.86001L51.2864 9.21357C56.9058 14.8329 60 22.303 60.0001 30.2502L60.5001 30.2502L60.5001 30.2502Z" fill="#1064E5" transform="translate(-0.25 -0.25)" />
      <path d="M19.6772 0L2.81102 0C1.2611 0 0 1.2611 0 2.81103L0 6.55906C0 8.10899 1.2611 9.37009 2.81102 9.37009L19.6772 9.37009C21.2271 9.37009 22.4882 8.10899 22.4882 6.55906L22.4882 2.81103C22.4882 1.26098 21.2271 0 19.6772 0L19.6772 0ZM20.6142 6.55906C20.6142 7.07571 20.1938 7.49607 19.6772 7.49607L2.81102 7.49607C2.29438 7.49607 1.87402 7.07571 1.87402 6.55906L1.87402 2.81103C1.87402 2.29438 2.29438 1.87402 2.81102 1.87402L19.6772 1.87402C20.1938 1.87402 20.6142 2.29438 20.6142 2.81103L20.6142 6.55906L20.6142 6.55906Z" fill="#1064E5" fill-rule="evenodd" transform="translate(18.74 40.291)" />
      <path d="M3.06102 0C1.37302 0 0 1.37303 0 3.06103L0 6.80906C0 8.49706 1.37302 9.87009 3.06102 9.87009L19.9272 9.87009C21.6152 9.87009 22.9882 8.49706 22.9882 6.80906L22.9882 3.06103C22.9882 1.3729 21.6152 0 19.9272 0L3.06102 0L3.06102 0ZM0.5 3.06103C0.5 1.64917 1.64917 0.5 3.06102 0.5L19.9272 0.5C21.339 0.5 22.4882 1.64906 22.4882 3.06103L22.4882 6.80906C22.4882 8.22092 21.339 9.37009 19.9272 9.37009L3.06102 9.37009C1.64917 9.37009 0.5 8.22092 0.5 6.80906L0.5 3.06103L0.5 3.06103ZM3.06102 1.87402C2.40631 1.87402 1.87402 2.40631 1.87402 3.06103L1.87402 6.80906C1.87402 7.46378 2.40631 7.99607 3.06102 7.99607L19.9272 7.99607C20.5819 7.99607 21.1142 7.46378 21.1142 6.80906L21.1142 3.06103C21.1142 2.40631 20.5819 1.87402 19.9272 1.87402L3.06102 1.87402L3.06102 1.87402ZM2.37402 3.06103C2.37402 2.68245 2.68245 2.37402 3.06102 2.37402L19.9272 2.37402C20.3057 2.37402 20.6142 2.68245 20.6142 3.06103L20.6142 6.80906C20.6142 7.18764 20.3057 7.49607 19.9272 7.49607L3.06102 7.49607C2.68245 7.49607 2.37402 7.18764 2.37402 6.80906L2.37402 3.06103L2.37402 3.06103Z" fill="#1064E5" fill-rule="evenodd" transform="translate(18.49 40.041)" />
      <path d="M2.81102 0L0.937008 0C0.419544 0 0 0.419548 0 0.937012C0 1.45448 0.419544 1.87402 0.937008 1.87402L2.81102 1.87402C3.32848 1.87402 3.74803 1.45448 3.74803 0.937012C3.74803 0.419548 3.32848 0 2.81102 0L2.81102 0Z" fill="#1064E5" fill-rule="evenodd" transform="translate(28.11 44.039)" />
      <path d="M1.18701 0C0.531471 0 0 0.531475 0 1.18701C0 1.84255 0.531471 2.37402 1.18701 2.37402L3.06102 2.37402C3.71656 2.37402 4.24803 1.84255 4.24803 1.18701C4.24803 0.531475 3.71656 0 3.06102 0L1.18701 0L1.18701 0ZM0.5 1.18701C0.5 0.807617 0.807617 0.5 1.18701 0.5L3.06102 0.5C3.44041 0.5 3.74803 0.807617 3.74803 1.18701C3.74803 1.56641 3.44041 1.87402 3.06102 1.87402L1.18701 1.87402C0.807617 1.87402 0.5 1.56641 0.5 1.18701L0.5 1.18701Z" fill="#1064E5" fill-rule="evenodd" transform="translate(27.86 43.789)" />
      <path d="M2.81103 0L0.937008 0C0.419544 0 0 0.419548 0 0.937012C0 1.45448 0.419544 1.87402 0.937008 1.87402L2.81103 1.87402C3.32849 1.87402 3.74803 1.45448 3.74803 0.937012C3.74803 0.419548 3.32849 0 2.81103 0L2.81103 0Z" fill="#1064E5" fill-rule="evenodd" transform="translate(23.425 44.039)" />
      <path d="M1.18701 0C0.531473 0 0 0.531475 0 1.18701C0 1.84255 0.531473 2.37402 1.18701 2.37402L3.06103 2.37402C3.71656 2.37402 4.24803 1.84255 4.24803 1.18701C4.24803 0.531475 3.71656 0 3.06103 0L1.18701 0L1.18701 0ZM0.5 1.18701C0.5 0.807617 0.807617 0.5 1.18701 0.5L3.06103 0.5C3.44042 0.5 3.74803 0.807617 3.74803 1.18701C3.74803 1.56641 3.44042 1.87402 3.06103 1.87402L1.18701 1.87402C0.807617 1.87402 0.5 1.56641 0.5 1.18701L0.5 1.18701Z" fill="#1064E5" fill-rule="evenodd" transform="translate(23.175 43.789)" />
      <path d="M2.81103 0L0.937012 0C0.419548 0 0 0.419548 0 0.937012C0 1.45448 0.419548 1.87402 0.937012 1.87402L2.81103 1.87402C3.3285 1.87402 3.74804 1.45448 3.74804 0.937012C3.74804 0.419548 3.3285 0 2.81103 0L2.81103 0Z" fill="#1064E5" fill-rule="evenodd" transform="translate(32.795 44.039)" />
      <path d="M1.18701 0C0.531475 0 0 0.531475 0 1.18701C0 1.84255 0.531475 2.37402 1.18701 2.37402L3.06103 2.37402C3.71657 2.37402 4.24804 1.84255 4.24804 1.18701C4.24804 0.531475 3.71657 0 3.06103 0L1.18701 0L1.18701 0ZM0.5 1.18701C0.5 0.807617 0.807617 0.5 1.18701 0.5L3.06103 0.5C3.44043 0.5 3.74804 0.807617 3.74804 1.18701C3.74804 1.56641 3.44043 1.87402 3.06103 1.87402L1.18701 1.87402C0.807617 1.87402 0.5 1.56641 0.5 1.18701L0.5 1.18701Z" fill="#1064E5" fill-rule="evenodd" transform="translate(32.545 43.789)" />
    </g>
  </g>
</svg>