<?xml version="1.0" encoding="utf-8"?>
<svg width="60" height="60" viewBox="0 0 60 60" fill="none" xmlns="http://www.w3.org/2000/svg">
  <defs>
    <clipPath id="clip_path_1">
      <rect width="60" height="60" />
    </clipPath>
  </defs>
  <g clip-path="url(#clip_path_1)">
    <path d="M58.3512 25.7039C57.7291 24.7645 56.7861 24.1173 55.6897 23.8719C56.397 22.5192 56.3681 20.8314 55.4673 19.4714C54.8264 18.5032 53.8596 17.8779 52.8072 17.6413C52.9949 17.2833 53.1336 16.8969 53.2164 16.4895C53.4462 15.3566 53.2219 14.2021 52.5834 13.2385C51.9613 12.2987 51.0183 11.6514 49.9219 11.4065C50.6292 10.0538 50.6003 8.36605 49.6994 7.00558C48.3825 5.01659 45.6917 4.46956 43.7023 5.78701L39.3947 8.63979C37.0986 7.47524 34.6564 6.64898 32.1218 6.1784C31.3207 4.96212 30.3891 3.83144 29.3463 2.8207L27.5643 1.09356C26.2592 -0.171705 24.2125 -0.361677 22.6973 0.6422C20.9047 1.82918 20.4122 4.2535 21.5991 6.0461C21.6458 6.11706 21.6916 6.18847 21.7369 6.25988C15.8954 7.44183 10.5716 10.5418 6.63117 15.0842C2.3552 20.0139 0 26.3273 0 32.8615C0 34.1139 0.0856019 35.3686 0.254975 36.5899C1.56006 46.0844 7.88453 54.2665 16.7597 57.9437C20.051 59.3079 23.5433 60 27.1381 60C32.8313 60 38.281 58.2564 42.8984 54.9582C47.4157 51.7309 50.7953 47.2774 52.6726 42.079C52.8479 41.5947 52.5966 41.0596 52.1123 40.8847C51.6275 40.7098 51.0929 40.9607 50.918 41.4454C49.1698 46.2863 46.0218 50.4336 41.8135 53.4398C37.5147 56.5109 32.4399 58.1342 27.1381 58.1342C24.397 58.1342 21.7204 57.7016 19.1588 56.8483L26.7494 51.8216L26.7508 51.8207L26.7517 51.8198L33.0602 47.6422L33.0606 47.6422C33.6269 47.2668 34.0137 46.6937 34.1492 46.0277C34.2847 45.3616 34.1529 44.6823 33.7775 44.116L33.6942 43.9897L34.9196 43.1781C35.7939 42.599 36.8454 42.372 37.8809 42.5381C39.3801 42.7789 40.9026 42.4493 42.1678 41.6112L52.332 34.8802C52.2625 35.7619 52.148 36.6385 51.9883 37.5004C51.894 38.0072 52.2286 38.4942 52.7353 38.5881C52.7925 38.5991 52.8502 38.6041 52.9065 38.6041C53.3474 38.6041 53.7392 38.2901 53.8225 37.841C54.0812 36.4499 54.2299 35.0249 54.2684 33.598L57.1326 31.701C58.0962 31.0629 58.754 30.0874 58.9838 28.9549C59.2141 27.8219 58.9893 26.6675 58.3512 25.7039L58.3512 25.7039ZM57.1555 28.5832C57.0246 29.2277 56.6506 29.7825 56.1022 30.1455L52.8278 32.314C52.8269 32.3144 52.826 32.3153 52.8246 32.3158L41.1374 40.0557C40.2631 40.6348 39.2116 40.8623 38.1761 40.6956C36.6774 40.4553 35.1549 40.7844 33.8892 41.6226L32.6637 42.4342L22.3677 26.8872L25.0292 15.3904C25.7144 12.4287 25.3533 9.30905 24.0477 6.5913C24.0358 6.56292 24.023 6.53545 24.0083 6.50845C23.7575 5.99483 23.4728 5.49633 23.1546 5.01568C22.5357 4.08092 22.7925 2.81704 23.7277 2.19768C24.5178 1.67446 25.5853 1.77333 26.2656 2.43297L28.0477 4.16057C29.9753 6.02962 31.4882 8.34774 32.4221 10.8645L33.3925 13.4788C33.3943 13.4839 33.3962 13.488 33.398 13.4926C33.4003 13.4985 33.403 13.5049 33.4053 13.5109C33.4122 13.5269 33.4186 13.5415 33.4255 13.5539C33.4442 13.5933 33.4648 13.6322 33.4896 13.6692C33.7743 14.0991 34.3529 14.2167 34.7823 13.932L44.7327 7.34295C45.8643 6.59359 47.3946 6.90441 48.144 8.036C48.8933 9.1676 48.5825 10.6979 47.4509 11.4473L46.5871 12.0195L46.5862 12.0199L44.6595 13.2962C44.6567 13.298 44.6549 13.2998 44.6521 13.3012C44.6411 13.309 44.6306 13.3163 44.6219 13.3236C44.2237 13.6161 44.1207 14.1723 44.3967 14.5889C44.681 15.0187 45.26 15.1364 45.6899 14.8517L47.618 13.5745C48.1659 13.2124 48.8219 13.0847 49.466 13.2156C50.1101 13.3465 50.6653 13.7205 51.0279 14.2689C51.3909 14.8169 51.519 15.4738 51.3881 16.1178C51.2572 16.7624 50.8832 17.3172 50.3348 17.6802L47.5434 19.5291C47.1135 19.8134 46.9959 20.392 47.2806 20.8218C47.4601 21.0928 47.7567 21.2397 48.0593 21.2397C48.236 21.2397 48.415 21.1894 48.5733 21.0846L49.0055 20.7985L50.5005 19.8083C51.6326 19.059 53.1624 19.3698 53.9118 20.5014C54.6611 21.6334 54.3503 23.1633 53.2187 23.9131L51.8244 24.8364C51.8171 24.841 51.8097 24.846 51.8024 24.851L50.4273 25.7615C49.9974 26.0458 49.8798 26.6249 50.1645 27.0547C50.344 27.3257 50.6406 27.4727 50.9432 27.4727C51.1199 27.4727 51.2989 27.4223 51.4572 27.3175L51.8894 27.0314L51.8898 27.0309L53.3849 26.0412C53.9328 25.6782 54.5893 25.5501 55.2338 25.6814C55.8783 25.8119 56.4331 26.1863 56.7962 26.7343C57.1587 27.2822 57.2864 27.9391 57.1555 28.5832L57.1555 28.5832ZM8.04062 16.3069C11.8277 11.9412 16.9862 9.00646 22.6296 7.98885C23.535 10.1825 23.752 12.6333 23.2109 14.9693L20.9363 24.7961C20.5788 24.4143 20.1146 24.1511 19.5918 24.0449C18.9253 23.909 18.2465 24.0413 17.6802 24.4166L11.2372 28.683L11.2363 28.6834L11.2358 28.6839L1.94321 34.8376C1.8924 34.1821 1.86585 33.5216 1.86585 32.8615C1.86585 26.7769 4.05899 20.8973 8.04062 16.3069L8.04062 16.3069ZM37.5833 9.83914L34.7328 11.727L34.1716 10.215C33.9372 9.58416 33.6685 8.96572 33.371 8.36056C34.8171 8.72723 36.2252 9.22161 37.5833 9.83914L37.5833 9.83914ZM32.3209 45.6555C32.2847 45.8331 32.1813 45.9865 32.0297 46.0867L32.0302 46.0867L26.4894 49.7557L16.2058 34.4192C15.9187 33.9912 15.3392 33.8772 14.9112 34.1643C14.4837 34.4513 14.3692 35.0303 14.6562 35.4584L24.9335 50.7861L17.0238 56.0243C9.16398 52.5865 3.53943 45.3264 2.1872 36.8783L11.4908 30.7374L12.5615 32.335C12.7419 32.6033 13.0367 32.7484 13.3374 32.7484C13.5159 32.7484 13.6968 32.6976 13.8561 32.5905C14.2841 32.3034 14.3985 31.7239 14.1115 31.2959L13.0481 29.7098L18.7106 25.9721C18.8612 25.8719 19.0421 25.8371 19.2197 25.8732C19.3973 25.9094 19.5506 26.0129 19.6509 26.1639L32.222 45.1465C32.3218 45.2971 32.357 45.4779 32.3209 45.6555L32.3209 45.6555Z" fill="#1064E5" fill-rule="evenodd" transform="translate(0.586 0)" />
    <path d="M56.4448 24.4622L55.85 24.1402L55.4448 24.9425L56.2982 25.1402L56.4448 24.4622L56.4448 24.4622ZM56.5503 19.9714L55.5503 20.971L55.5505 20.9714L56.5503 19.9714L56.5503 19.9714ZM53.5618 18.2316L52.9678 17.9091L52.5618 18.7105L53.4146 18.9091L53.5618 18.2316L53.5618 18.2316ZM53.7164 16.9895L54.7162 17.9895L54.7164 17.9865L53.7164 16.9895L53.7164 16.9895ZM53.6664 13.7385L52.6664 14.7378L52.6669 14.7385L53.6664 13.7385L53.6664 13.7385ZM50.6768 11.9968L50.0821 11.6749L49.6768 12.4774L50.5305 12.6749L50.6768 11.9968L50.6768 11.9968ZM50.7825 7.50559L49.7825 8.50555L49.7827 8.50559L50.7825 7.50559L50.7825 7.50559ZM44.9262 6.87014L43.9262 5.87014L43.9262 5.87016L44.9262 6.87014L44.9262 6.87014ZM40.1188 9.1398L39.6685 9.91186L40.1853 10.1398L40.6685 9.86155L40.1188 9.1398L40.1188 9.1398ZM33.2042 6.67841L32.2042 7.23785L32.4844 7.59938L32.9856 7.67841L33.2042 6.67841L33.2042 6.67841ZM29.8463 3.96166L30.8463 2.96171L30.8463 2.96166L29.8463 3.96166L29.8463 3.96166ZM28.7162 1.59357L27.7162 2.5934L27.7165 2.59357L28.7162 1.59357L28.7162 1.59357ZM23.1973 1.14221L24.1969 2.14221L24.1973 2.14204L23.1973 1.14221L23.1973 1.14221ZM22.0991 7.27007L23.0991 6.27438L23.0972 6.27007L22.0991 7.27007L22.0991 7.27007ZM22.2369 6.84543L22.3591 7.49198L23.2369 7.30177L22.757 6.49198L22.2369 6.84543L22.2369 6.84543ZM7.75346 16.2566L6.75351 15.2566L6.75346 15.2566L7.75346 16.2566L7.75346 16.2566ZM0.754975 38.0213L1.75497 37.03L1.75481 37.0213L0.754975 38.0213L0.754975 38.0213ZM17.2597 58.9818L18.2597 57.9818L18.2592 57.9818L17.2597 58.9818L17.2597 58.9818ZM43.3984 55.4582L44.3984 56.4582L44.3984 56.458L43.3984 55.4582L43.3984 55.4582ZM53.7023 43.4088L52.7027 42.4088L52.7023 42.4112L53.7023 43.4088L53.7023 43.4088ZM52.6123 41.9144L53.6123 40.9144L53.6117 40.9144L52.6123 41.9144L52.6123 41.9144ZM51.418 41.9454L52.418 42.9454L52.418 42.9442L51.418 41.9454L51.418 41.9454ZM43.0229 54.5329L42.0229 53.5329L42.0229 53.5329L43.0229 54.5329L43.0229 54.5329ZM19.6588 57.3992L19.3827 56.9314L18.5268 57.5673L19.5008 57.9314L19.6588 57.3992L19.6588 57.3992ZM27.2494 52.3216L28.0302 53.3216L28.149 53.2549L28.2494 53.1695L27.2494 52.3216L27.2494 52.3216ZM27.8973 52.8207L27.8973 51.8207L27.3114 51.8207L26.8973 52.1135L27.8973 52.8207L27.8973 52.8207ZM27.8981 52.9029L27.1176 51.9029L26.9988 51.9696L26.8981 52.0547L27.8981 52.9029L27.8981 52.9029ZM34.2841 48.6422L34.2841 47.6422L33.7386 47.6422L33.2841 47.8084L34.2841 48.6422L34.2841 48.6422ZM33.5606 48.1422L33.5606 49.1422L34.106 49.1422L34.5606 48.9758L33.5606 48.1422L33.5606 48.1422ZM35.1592 47.428L34.1592 46.428L34.1592 46.428L35.1592 47.428L35.1592 47.428ZM34.8601 44.616L33.8601 45.6124L33.8615 45.616L34.8601 44.616L34.8601 44.616ZM34.5021 44.6751L34.1032 44.0728L33.5021 44.471L33.899 45.0728L34.5021 44.6751L34.5021 44.6751ZM36.1435 44.2612L35.1435 43.2612L35.1435 43.2612L36.1435 44.2612L36.1435 44.2612ZM38.3809 43.5444L39.3809 42.5446L39.3796 42.5444L38.3809 43.5444L38.3809 43.5444ZM43.3917 42.6943L42.3921 41.6943L42.3917 41.6943L43.3917 42.6943L43.3917 42.6943ZM52.8787 35.3802L53.4616 35.4195L53.556 34.397L52.556 34.9633L52.8787 35.3802L52.8787 35.3802ZM52.4883 38.0004L53.4881 39.0004L53.4883 38.9971L52.4883 38.0004L52.4883 38.0004ZM53.2353 39.5964L54.2353 38.5976L54.2014 38.5964L53.2353 39.5964L53.2353 39.5964ZM54.8309 39.2496L53.8309 38.2496L53.8309 38.2518L54.8309 39.2496L54.8309 39.2496ZM55.2686 34.6811L54.7162 33.6811L54.2826 34.0256L54.2686 34.6487L55.2686 34.6811L55.2686 34.6811ZM58.3565 32.7842L57.3565 31.7842L57.3565 31.7842L58.3565 32.7842L58.3565 32.7842ZM59.9938 30.3553L58.9938 29.3553L58.9938 29.3573L59.9938 30.3553L59.9938 30.3553ZM38.0833 10.4059L38.3594 10.884L39.112 10.3124L38.2903 9.88398L38.0833 10.4059L38.0833 10.4059ZM35.3934 12.227L34.7641 12.4544L35.0585 13.227L35.7641 12.7719L35.3934 12.227L35.3934 12.227ZM34.6716 11.5408L35.6716 10.542L35.6714 10.5408L34.6716 11.5408L34.6716 11.5408ZM33.871 8.88275L33.9939 8.38377L32.9447 8.10988L33.4223 9.10988L33.871 8.88275L33.871 8.88275ZM23.202 8.92521L24.0408 8.58675L23.7614 7.92521L23.0408 8.05222L23.202 8.92521L23.202 8.92521ZM24.2238 16.3565L23.2238 15.3565L23.2238 15.3565L24.2238 16.3565L24.2238 16.3565ZM21.4997 25.2961L21.0713 25.6379L21.8232 26.3221L22.0713 25.4089L21.4997 25.2961L21.4997 25.2961ZM20.9919 24.5449L19.9919 25.5447L19.9959 25.5449L20.9919 24.5449L20.9919 24.5449ZM18.1802 24.9166L19.1795 25.9166L19.1802 25.9164L18.1802 24.9166L18.1802 24.9166ZM11.7372 29.183L11.7372 30.183L12.2825 30.183L12.7372 30.0168L11.7372 29.183L11.7372 29.183ZM11.7363 29.1834L11.7363 30.1834L12.3222 30.1834L12.7363 29.8906L11.7363 29.1834L11.7363 29.1834ZM11.7358 29.1839L12.288 30.1839L12.7358 29.8282L12.7358 29.1839L11.7358 29.1839L11.7358 29.1839ZM2.5883 35.3376L1.9447 35.3813L2.02953 36.3376L2.9447 35.808L2.5883 35.3376L2.5883 35.3376ZM32.5297 46.6245L32.2539 46.1697L30.8679 47.1697L32.5297 47.1697L32.5297 46.6245L32.5297 46.6245ZM32.5302 46.632L32.8063 47.0867L34.1909 46.0867L32.5302 46.0867L32.5302 46.632L32.5302 46.632ZM27.1748 50.2557L26.5741 50.6586L26.9746 51.2557L27.5741 50.8588L27.1748 50.2557L27.1748 50.2557ZM16.7058 35.6408L17.7058 34.6408L17.7058 34.6408L16.7058 35.6408L16.7058 35.6408ZM16.1325 35.249L15.1332 34.249L15.1325 34.2492L16.1325 35.249L16.1325 35.249ZM15.1562 36.6799L16.1562 35.6799L16.1562 35.6799L15.1562 36.6799L15.1562 36.6799ZM25.4335 51.4081L25.8306 52.0077L26.4335 51.6083L26.0308 51.0077L25.4335 51.4081L25.4335 51.4081ZM17.744 56.5243L17.3234 57.332L17.847 57.5243L18.3234 57.2593L17.744 56.5243L17.744 56.5243ZM3.14249 37.8017L2.63683 36.961L2.14249 37.3192L2.2361 37.961L3.14249 37.8017L3.14249 37.8017ZM12.1141 31.5466L12.7154 31.1437L12.3152 30.5466L11.7154 30.9425L12.1141 31.5466L12.1141 31.5466ZM13.6462 32.835L12.6462 33.8329L12.6472 33.835L13.6462 32.835L13.6462 32.835ZM15.0771 33.6752L14.0789 32.6752L14.0771 32.6759L15.0771 33.6752L15.0771 33.6752ZM15.1962 31.7959L14.1962 32.7956L14.1962 32.7959L15.1962 31.7959L15.1962 31.7959ZM13.8524 30.3923L13.4565 29.7925L12.8524 30.1912L13.2554 30.7925L13.8524 30.3923L13.8524 30.3923ZM19.2106 26.4721L20.2048 27.4721L20.2106 27.4695L19.2106 26.4721L19.2106 26.4721ZM20.6199 26.3732L19.6199 27.3732L19.6199 27.3732L20.6199 26.3732L20.6199 26.3732ZM20.1509 27.3874L21.1509 26.3889L21.1502 26.3874L20.1509 27.3874L20.1509 27.3874ZM33.3051 45.6465L32.3051 46.6458L32.3053 46.6465L33.3051 45.6465L33.3051 45.6465ZM57.3261 31.2286L56.3265 30.2286L56.3261 30.2288L57.3261 31.2286L57.3261 31.2286ZM53.3278 32.814L54.1376 33.814L54.2358 33.7836L54.3278 33.7463L53.3278 32.814L53.3278 32.814ZM54.0485 33.3415L53.4759 32.3415L53.2484 32.3856L53.0485 32.4625L54.0485 33.3415L54.0485 33.3415ZM42.3613 41.1388L41.3613 40.1388L41.3613 40.1388L42.3613 41.1388L42.3613 41.1388ZM38.6761 41.7019L39.6761 40.7021L39.6723 40.7019L38.6761 41.7019L38.6761 41.7019ZM35.1131 42.7057L34.1131 41.7057L34.1131 41.7057L35.1131 42.7057L35.1131 42.7057ZM33.3484 42.9342L32.7469 43.3326L33.1454 43.9342L33.7469 43.5358L33.3484 42.9342L33.3484 42.9342ZM23.3321 27.5645L22.4227 27.2744L22.3321 27.8131L22.5537 28.2744L23.3321 27.5645L23.3321 27.5645ZM25.5292 15.8904L26.5292 16.8904L26.5292 16.8895L25.5292 15.8904L25.5292 15.8904ZM25.0866 7.09131L24.0866 7.98443L24.0972 8.03851L24.1092 8.09131L25.0866 7.09131L25.0866 7.09131ZM25.0591 7.00846L24.0591 7.92896L24.0693 7.96915L24.0807 8.00846L25.0591 7.00846L25.0591 7.00846ZM23.6546 6.23966L24.6546 5.23984L24.6544 5.23966L23.6546 6.23966L23.6546 6.23966ZM24.9517 3.28081L23.9517 2.28081L23.9517 2.28083L24.9517 3.28081L24.9517 3.28081ZM27.4175 2.93298L26.4175 3.93284L26.4178 3.93298L27.4175 2.93298L27.4175 2.93298ZM28.5477 5.30159L29.5477 4.30167L29.5477 4.30159L28.5477 5.30159L28.5477 5.30159ZM33.4533 11.3645L32.4533 12.3645L32.4533 12.3645L33.4533 11.3645L33.4533 11.3645ZM33.8925 14.8048L34.8925 13.8226L34.8902 13.8048L33.8925 14.8048L33.8925 14.8048ZM33.898 14.8069L34.898 13.8398L34.8926 13.8069L33.898 14.8069L33.898 14.8069ZM34.4387 14.0109L33.4387 14.9225L33.4458 14.9672L33.4539 15.0109L34.4387 14.0109L34.4387 14.0109ZM33.9255 14.8111L34.9255 13.9248L34.9106 13.8671L34.8938 13.8111L33.9255 14.8111L33.9255 14.8111ZM33.9896 14.8919L34.9896 13.8962L34.9877 13.8919L33.9896 14.8919L33.9896 14.8919ZM36.006 15.0151L35.0067 14.0151L35.006 14.0156L36.006 15.0151L36.006 15.0151ZM45.2327 7.84296L46.2327 8.84296L46.2327 8.84296L45.2327 7.84296L45.2327 7.84296ZM48.6748 12.5304L47.6748 11.5304L47.6748 11.5304L48.6748 12.5304L48.6748 12.5304ZM47.0871 12.5195L47.0871 13.5195L47.6326 13.5195L48.0871 13.3531L47.0871 12.5195L47.0871 12.5195ZM47.0862 12.5199L47.8672 13.5199L47.9858 13.4532L48.0862 13.3681L47.0862 12.5199L47.0862 12.5199ZM45.8821 14.3793L44.8864 13.3793L44.8821 13.3812L45.8821 14.3793L45.8821 14.3793ZM45.8631 14.354L45.0894 13.354L44.9711 13.3922L44.8631 13.4417L45.8631 14.354L45.8631 14.354ZM45.1219 13.8236L46.0409 14.8236L46.0825 14.7993L46.1219 14.7727L45.1219 13.8236L45.1219 13.8236ZM44.8967 15.8127L45.8967 14.8142L45.8962 14.8127L44.8967 15.8127L44.8967 15.8127ZM46.9138 15.9348L45.9138 14.9348L45.9138 14.9348L46.9138 15.9348L46.9138 15.9348ZM48.8419 14.6573L47.8433 13.6573L47.8419 13.658L48.8419 14.6573L48.8419 14.6573ZM50.8664 13.7156L49.8664 14.7156L49.8664 14.7156L50.8664 13.7156L50.8664 13.7156ZM52.1108 14.7689L51.1108 15.7675L51.1113 15.7689L52.1108 14.7689L52.1108 14.7689ZM52.3981 17.5182L51.3981 16.5182L51.3981 16.5192L52.3981 17.5182L52.3981 17.5182ZM51.5587 18.7632L50.5591 17.7632L50.5587 17.7634L51.5587 18.7632L51.5587 18.7632ZM48.0434 20.0291L49.0423 21.0291L49.0434 21.0286L48.0434 20.0291L48.0434 20.0291ZM47.7806 22.0457L48.7806 21.0461L48.7806 21.0457L47.7806 22.0457L47.7806 22.0457ZM49.0733 21.5846L50.0729 22.5846L50.0733 22.5846L49.0733 21.5846L49.0733 21.5846ZM49.5055 21.2985L50.5055 22.2985L50.5055 22.2983L49.5055 21.2985L49.5055 21.2985ZM51.7244 20.8914L50.7248 19.8914L50.7244 19.8916L51.7244 20.8914L51.7244 20.8914ZM54.4118 21.7253L55.4118 20.7257L55.4118 20.7253L54.4118 21.7253L54.4118 21.7253ZM53.7187 24.4131L54.7183 25.4131L54.7187 25.4129L53.7187 24.4131L53.7187 24.4131ZM52.3244 25.3364L53.2849 26.3364L53.3244 26.3194L52.3244 25.3364L52.3244 25.3364ZM52.3024 25.351L53.277 26.351L53.3024 26.3393L52.3024 25.351L52.3024 25.351ZM50.9273 26.2615L51.9266 27.2615L51.9273 27.261L50.9273 26.2615L50.9273 26.2615ZM50.6645 28.2786L51.6645 27.279L51.6645 27.2786L50.6645 28.2786L50.6645 28.2786ZM51.9572 27.8175L52.9568 28.8175L52.9572 28.8175L51.9572 27.8175L51.9572 27.8175ZM52.3894 27.5315L52.9414 28.5313L53.3894 28.1757L53.3894 27.5313L52.3894 27.5315L52.3894 27.5315ZM52.3898 27.5309L52.3898 28.5309L52.9351 28.5309L53.3898 28.3647L52.3898 27.5309L52.3898 27.5309ZM53.8849 26.5412L54.8845 27.5412L54.8849 27.541L53.8849 26.5412L53.8849 26.5412ZM56.6339 26.1814L55.6339 27.1812L55.6409 27.1814L56.6339 26.1814L56.6339 26.1814ZM57.2962 27.9581L58.2962 26.9592L58.296 26.9581L57.2962 27.9581L57.2962 27.9581ZM59.268 25.9278C58.5744 24.8804 57.521 24.1575 56.2989 23.884L56.0805 24.8598C57.0512 25.077 57.8837 25.6486 58.4343 26.4799L59.268 25.9278L59.268 25.9278ZM56.6328 24.6036C57.4207 23.0966 57.39 21.2138 56.3841 19.6953L55.5504 20.2475C56.3463 21.449 56.3733 22.9417 55.7466 24.1402L56.6328 24.6036L56.6328 24.6036ZM56.3842 19.6954C55.6688 18.6146 54.5892 17.9171 53.4169 17.6534L53.1975 18.6291C54.13 18.8388 54.984 19.3919 55.5503 20.2474L56.3842 19.6954L56.3842 19.6954ZM53.75 18.3734C53.9594 17.974 54.1141 17.5431 54.2064 17.0892L53.2265 16.8899C53.1531 17.2508 53.0303 17.5926 52.8644 17.9091L53.75 18.3734L53.75 18.3734ZM54.2065 17.0889C54.4626 15.8263 54.2121 14.5366 53.5001 13.4623L52.6666 14.0147C53.2318 14.8675 53.4299 15.8869 53.2264 16.8901L54.2065 17.0889L54.2065 17.0889ZM53.5003 13.4625C52.8066 12.4147 51.7532 11.6916 50.5309 11.4185L50.3129 12.3945C51.2833 12.6113 52.1158 13.1828 52.6664 14.0145L53.5003 13.4625L53.5003 13.4625ZM50.865 12.1382C51.6529 10.6313 51.6221 8.74845 50.6163 7.22953L49.7826 7.78164C50.5785 8.98368 50.6054 10.4764 49.9788 11.6749L50.865 12.1382L50.865 12.1382ZM50.6163 7.22954C49.1469 5.0103 46.1459 4.40023 43.9262 5.87014L44.4783 6.7039C46.2375 5.53892 48.618 6.02291 49.7825 7.78163L50.6163 7.22954L50.6163 7.22954ZM43.9262 5.87015L39.6186 8.72294L40.1708 9.55667L44.4784 6.70389L43.9262 5.87015L43.9262 5.87015ZM40.1209 8.69388C37.7821 7.50769 35.2945 6.66608 32.713 6.18681L32.5305 7.17001C35.0183 7.6319 37.4151 8.44281 39.6685 9.58573L40.1209 8.69388L40.1209 8.69388ZM33.0393 6.40338C32.2187 5.15742 31.264 3.99844 30.1943 2.96168L29.4983 3.67974C30.5143 4.66446 31.4227 5.76683 32.2042 6.95343L33.0393 6.40338L33.0393 6.40338ZM30.1943 2.96166L28.4122 1.23452L27.7163 1.95261L29.4984 3.67975L30.1943 2.96166L30.1943 2.96166ZM28.4123 1.23457C26.9386 -0.194119 24.6323 -0.408277 22.9212 0.72539L23.4735 1.55903C24.7928 0.68494 26.5797 0.850726 27.7162 1.95255L28.4123 1.23457L28.4123 1.23457ZM22.9213 0.725317C20.8984 2.06478 20.3428 4.79935 21.6822 6.82216L22.516 6.27007C21.4815 4.70767 21.911 2.5936 23.4734 1.5591L22.9213 0.725317L22.9213 0.725317ZM21.6815 6.99787C21.727 7.08741 21.7722 7.17841 21.8179 7.27126L22.6815 6.56301C22.6343 6.46707 22.5859 6.3693 22.5359 6.27126L21.6815 6.99787L21.6815 6.99787ZM22.1378 6.26982C16.1877 7.47372 10.7661 10.631 6.75348 15.2566L7.50886 15.9118C11.3771 11.4527 16.6031 8.40995 22.3361 7.24996L22.1378 6.26982L22.1378 6.26982ZM6.75346 15.2566C2.39852 20.2773 0 26.7071 0 33.3615L1 33.3615C1 26.9475 3.31188 20.7504 7.50888 15.9118L6.75346 15.2566L6.75346 15.2566ZM0 33.3615C0 34.6364 0.087125 35.9141 0.259714 37.1586L1.25024 37.0213C1.08408 35.8231 1 34.5914 1 33.3615L0 33.3615L0 33.3615ZM0.259632 37.158C1.58898 46.829 8.02958 55.1607 17.0683 58.9056L17.451 57.9818C8.73948 54.3724 2.53114 46.3399 1.25032 37.0219L0.259632 37.158L0.259632 37.158ZM17.0682 58.9056C20.4208 60.2951 23.9781 61 27.6381 61L27.6381 60C24.1084 60 20.6812 59.3206 17.4511 57.9818L17.0682 58.9056L17.0682 58.9056ZM27.6381 61C33.4352 61 38.9865 59.224 43.6891 55.8651L43.1078 55.0513C38.5754 58.2887 33.2274 60 27.6381 60L27.6381 61L27.6381 61ZM43.6891 55.865C48.2885 52.5791 51.731 48.043 53.6429 42.7488L52.7023 42.4092C50.8597 47.5117 47.5429 51.8828 43.1078 55.0513L43.6891 55.865L43.6891 55.865ZM53.6428 42.7492C53.9122 42.0048 53.526 41.183 52.7821 40.9144L52.4425 41.855C52.6672 41.9361 52.7836 42.1846 52.7025 42.4088L53.6428 42.7492L53.6428 42.7492ZM52.782 40.9144C52.0377 40.6459 51.2163 41.031 50.9477 41.7758L51.8883 42.1151C51.9694 41.8904 52.2174 41.7738 52.4427 41.855L52.782 40.9144L52.782 40.9144ZM50.9477 41.7756C49.2342 46.5206 46.149 50.5854 42.0229 53.5329L42.6042 54.3466C46.8945 51.2818 50.1054 47.052 51.8883 42.1153L50.9477 41.7756L50.9477 41.7756ZM42.0229 53.5329C37.8092 56.5433 32.8361 58.1342 27.6381 58.1342L27.6381 59.1342C33.0437 59.1342 38.2202 57.4786 42.6042 54.3466L42.0229 53.5329L42.0229 53.5329ZM27.6381 58.1342C24.9501 58.1342 22.3269 57.71 19.8168 56.8739L19.5008 57.8227C22.1139 58.6931 24.8439 59.1342 27.6381 59.1342L27.6381 58.1342L27.6381 58.1342ZM19.9349 57.7652L27.5255 52.7385L26.9734 51.9047L19.3827 56.9314L19.9349 57.7652L19.9349 57.7652ZM27.894 52.7697C27.8731 52.7862 27.8515 52.8013 27.8297 52.8147C27.808 52.8281 27.7875 52.8392 27.7695 52.8481C27.7517 52.857 27.7367 52.8635 27.7267 52.8677C27.7218 52.8697 27.7178 52.8714 27.7153 52.8724C27.713 52.8733 27.7112 52.8741 27.7115 52.8739C27.7115 52.8739 27.7115 52.8739 27.7115 52.8739C27.7116 52.8739 27.7116 52.8739 27.7116 52.8739C27.7116 52.8739 27.7118 52.8739 27.7118 52.8737C27.7119 52.8737 27.7122 52.8736 27.7126 52.8735C27.7132 52.8732 27.7143 52.8729 27.7156 52.8723C27.7181 52.8713 27.7222 52.8696 27.7273 52.8675C27.7373 52.8632 27.7524 52.8566 27.7703 52.8478C27.7885 52.8388 27.8091 52.8277 27.831 52.8142C27.853 52.8005 27.8748 52.7854 27.8958 52.7688L26.8979 51.9781C26.9188 51.9615 26.9404 51.9465 26.9623 51.9331C26.9839 51.9196 27.0043 51.9086 27.0224 51.8996C27.0402 51.8909 27.0552 51.8843 27.065 51.8802C27.07 51.878 27.0741 51.8765 27.0765 51.8755C27.0787 51.8746 27.0807 51.8738 27.0803 51.8739C27.0803 51.8739 27.0803 51.8739 27.0803 51.8739C27.0801 51.874 27.0801 51.874 27.08 51.874C27.0798 51.8741 27.0796 51.8742 27.0793 51.8744C27.0786 51.8746 27.0776 51.875 27.0762 51.8756C27.0736 51.8766 27.0695 51.8783 27.0646 51.8804C27.0544 51.8846 27.0393 51.8912 27.0214 51.9001C27.0031 51.9091 26.9825 51.9202 26.9606 51.9338C26.9387 51.9474 26.917 51.9625 26.8958 51.9792L27.894 52.7697L27.894 52.7697ZM27.3252 52.8207C27.4342 52.8207 27.5544 52.7945 27.6624 52.7302C27.7539 52.6757 27.8029 52.6126 27.8145 52.5978C27.8213 52.589 27.8273 52.5807 27.8254 52.5832C27.8254 52.5832 27.8242 52.585 27.8225 52.5873C27.8206 52.5897 27.818 52.5932 27.8148 52.5974C27.8009 52.6152 27.777 52.6432 27.7417 52.6733L26.9107 51.9662C26.8751 51.9965 26.8512 52.0248 26.8371 52.0427C26.8338 52.047 26.8311 52.0506 26.8293 52.053C26.8276 52.0553 26.8262 52.0572 26.8262 52.0573C26.8243 52.0599 26.8301 52.0517 26.837 52.043C26.8484 52.0284 26.8972 51.9654 26.9886 51.911C27.0964 51.8467 27.2165 51.8207 27.3252 51.8207L27.3252 52.8207L27.3252 52.8207ZM27.5278 52.7366L33.8362 48.5591L33.2841 47.7253L26.9757 51.9029L27.5278 52.7366L27.5278 52.7366ZM33.5602 48.6422L34.5602 48.6422L34.5602 47.6422L33.5602 47.6422L33.5602 48.6422L33.5602 48.6422ZM33.8369 48.559C34.5134 48.1105 34.9772 47.4234 35.1392 46.6273L34.1592 46.428C34.0502 46.964 33.7404 47.4232 33.2844 47.7255L33.8369 48.559L33.8369 48.559ZM35.1392 46.6273C35.3011 45.8315 35.1431 45.0169 34.6942 44.3398L33.8607 44.8923C34.1626 45.3477 34.2683 45.8917 34.1592 46.428L35.1392 46.6273L35.1392 46.6273ZM34.7768 44.4011L34.6861 44.2145L33.7768 45.0279L33.8675 45.2145L34.7768 44.4011L34.7768 44.4011ZM34.4703 44.9066L35.6957 44.0949L35.1435 43.2612L33.9181 44.0728L34.4703 44.9066L34.4703 44.9066ZM35.6957 44.095C36.4653 43.5852 37.39 43.3855 38.3017 43.5318L38.4601 42.5444C37.3009 42.3584 36.1225 42.6128 35.1435 43.2612L35.6957 44.095L35.6957 44.095ZM38.3016 43.5318C39.9248 43.7925 41.5741 43.4354 42.944 42.528L42.3917 41.6943C41.231 42.4632 39.8354 42.7653 38.4602 42.5445L38.3016 43.5318L38.3016 43.5318ZM42.9439 42.528L53.1081 35.7971L52.556 34.9633L42.3918 41.6943L42.9439 42.528L42.9439 42.528ZM52.3336 35.3409C52.2653 36.2056 52.1531 37.0649 51.9966 37.9093L52.9799 38.0916C53.1429 37.212 53.2596 36.3181 53.3305 35.4195L52.3336 35.3409L52.3336 35.3409ZM51.9967 37.909C51.8518 38.6874 52.3659 39.4356 53.1443 39.5797L53.3264 38.5964C53.0913 38.5529 52.9361 38.327 52.9798 38.0919L51.9967 37.909L51.9967 37.909ZM53.141 39.5791C53.4811 39.5965 53.8178 39.6041 54.141 39.6041L54.141 38.6041C54.0404 38.6041 53.9421 38.6017 53.8514 38.5971L53.141 39.5791L53.141 39.5791ZM53.4065 39.6041C54.0842 39.6041 54.6861 39.1222 54.8141 38.4322L53.8309 38.2498C53.7923 38.4579 53.6105 38.6041 53.4065 38.6041L53.4065 39.6041L53.4065 39.6041ZM54.8141 38.4324C55.0776 37.015 55.2291 35.5639 55.2682 34.1115L54.2686 34.0845C54.2308 35.4858 54.0847 36.8848 53.8309 38.2496L54.8141 38.4324L54.8141 38.4324ZM55.0445 34.5149L57.9087 32.6179L57.3565 31.7842L54.4923 33.6811L55.0445 34.5149L55.0445 34.5149ZM57.9087 32.6179C58.9828 31.9066 59.7176 30.817 59.9738 29.5543L58.9938 29.3555C58.7904 30.3579 58.2096 31.2192 57.3565 31.7842L57.9087 32.6179L57.9087 32.6179ZM59.9738 29.5545C60.2305 28.2916 59.9794 27.002 59.2681 25.9278L58.4343 26.4799C58.9992 27.333 59.1977 28.3523 58.9938 29.3553L59.9738 29.5545L59.9738 29.5545ZM37.8073 9.92228L34.9568 11.8101L35.5089 12.6438L38.3594 10.756L37.8073 9.92228L37.8073 9.92228ZM35.7016 12.053L35.1404 10.541L34.2029 10.889L34.7641 12.4009L35.7016 12.053L35.7016 12.053ZM35.1403 10.5408C34.8997 9.89311 34.6241 9.25917 34.3197 8.63995L33.4223 9.08118C33.7129 9.6723 33.9748 10.2752 34.2029 10.8891L35.1403 10.5408L35.1403 10.5408ZM33.7481 9.34523C35.1653 9.70458 36.5452 10.1891 37.8764 10.7943L38.2903 9.88398C36.9051 9.25416 35.4688 8.7499 33.9939 8.37591L33.7481 9.34523L33.7481 9.34523ZM8.91832 17.1345C12.6309 12.8547 17.6877 9.97822 23.2183 8.98093L23.0408 7.9968C17.2848 9.03473 12.0245 12.0277 8.16293 16.4792L8.91832 17.1345L8.91832 17.1345ZM22.6674 8.67964C23.5338 10.7787 23.741 13.1235 23.2238 15.3565L24.198 15.5821C24.763 13.1431 24.5362 10.5862 23.5917 8.29809L22.6674 8.67964L22.6674 8.67964ZM23.2238 15.3565L20.9492 25.1834L21.9234 25.4089L24.198 15.5821L23.2238 15.3565L23.2238 15.3565ZM21.8013 24.9543C21.3737 24.4978 20.8171 24.1821 20.1914 24.0549L19.9923 25.0349C20.4121 25.1202 20.7839 25.3309 21.0713 25.6379L21.8013 24.9543L21.8013 24.9543ZM20.1918 24.055C19.3951 23.8925 18.5809 24.0512 17.904 24.4999L18.4565 25.3334C18.9121 25.0314 19.4556 24.9254 19.9919 25.0348L20.1918 24.055L20.1918 24.055ZM17.9042 24.4997L11.4611 28.7661L12.0132 29.5999L18.4563 25.3335L17.9042 24.4997L17.9042 24.4997ZM11.8835 28.683C11.8835 28.683 11.8835 28.683 11.8834 28.683C11.8834 28.683 11.8834 28.683 11.8832 28.683C11.8832 28.683 11.8829 28.683 11.8826 28.683C11.8822 28.683 11.8814 28.683 11.8802 28.683C11.8783 28.683 11.8742 28.683 11.8691 28.6831C11.86 28.6832 11.8393 28.6836 11.8127 28.6855C11.7503 28.6899 11.6623 28.7021 11.5669 28.7358C11.4837 28.7653 11.4287 28.7996 11.4101 28.8115C11.3993 28.8184 11.3911 28.824 11.388 28.8262C11.3862 28.8274 11.3846 28.8285 11.3839 28.829C11.3835 28.8293 11.3832 28.8295 11.3831 28.8296C11.3829 28.8297 11.3829 28.8298 11.3828 28.8298C11.3828 28.8298 11.3828 28.8298 11.3828 28.8298L12.3816 29.537C12.3872 29.5331 12.372 29.5441 12.3551 29.5548C12.3367 29.5666 12.2819 29.6008 12.1988 29.6303C12.1036 29.6639 12.0157 29.6761 11.9534 29.6805C11.9105 29.6836 11.8702 29.683 11.8835 29.683L11.8835 28.683L11.8835 28.683ZM11.7363 29.1834C11.7362 28.6834 11.736 28.6834 11.7358 28.6834C11.7357 28.6834 11.7354 28.6834 11.7353 28.6835C11.7349 28.6835 11.7346 28.6835 11.7343 28.6835C11.7336 28.6835 11.7329 28.6835 11.7323 28.6835C11.7309 28.6835 11.7296 28.6835 11.7282 28.6835C11.7254 28.6836 11.7225 28.6836 11.7196 28.6837C11.7137 28.6839 11.7073 28.6842 11.7006 28.6847C11.6873 28.6857 11.6716 28.6873 11.654 28.6903C11.6212 28.6957 11.5698 28.7076 11.5124 28.7363C11.4531 28.766 11.3785 28.8184 11.3199 28.9063C11.2592 28.9973 11.2358 29.0963 11.2358 29.1839L12.2358 29.1839C12.2358 29.2713 12.2125 29.3701 12.1519 29.461C12.0934 29.5488 12.0189 29.6011 11.9597 29.6307C11.9024 29.6594 11.8511 29.6712 11.8184 29.6766C11.8009 29.6796 11.7852 29.6812 11.7719 29.6822C11.7652 29.6827 11.7589 29.683 11.753 29.6832C11.75 29.6833 11.7471 29.6833 11.7444 29.6834C11.743 29.6834 11.7416 29.6834 11.7403 29.6834C11.7396 29.6834 11.7389 29.6834 11.7383 29.6834C11.7379 29.6834 11.7376 29.6834 11.7373 29.6834C11.7371 29.6834 11.7369 29.6834 11.7368 29.6834C11.7366 29.6834 11.7363 29.6834 11.7363 29.1834L11.7363 29.1834ZM11.4598 28.767L2.16714 34.9207L2.71927 35.7545L12.0119 29.6008L11.4598 28.767L11.4598 28.767ZM2.94171 35.299C2.89186 34.6558 2.86585 34.0082 2.86585 33.3615L1.86585 33.3615C1.86585 34.0349 1.89293 34.7084 1.9447 35.3763L2.94171 35.299L2.94171 35.299ZM2.86585 33.3615C2.86585 27.3971 5.01568 21.6339 8.91834 17.1345L8.16291 16.4793C4.10231 21.1608 1.86585 27.1567 1.86585 33.3615L2.86585 33.3615L2.86585 33.3615ZM32.3309 46.0557C32.3213 46.1059 32.2949 46.1474 32.2539 46.176L32.8056 47.0557C33.0676 46.8729 33.2482 46.5908 33.3108 46.2663L32.3309 46.0557L32.3309 46.0557ZM32.5297 47.0867L33.5297 47.0867L33.5297 46.0867L32.5297 46.0867L32.5297 47.0867L32.5297 47.0867ZM32.2542 46.1698L26.7134 49.8388L27.2655 50.6726L32.8063 47.0036L32.2542 46.1698L32.2542 46.1698ZM27.4047 49.9772L17.121 34.6408L16.2905 35.1977L26.5741 50.5342L27.4047 49.9772L27.4047 49.9772ZM17.121 34.6408C16.6801 33.9832 15.7899 33.8083 15.1327 34.249L15.6897 35.0795C15.8886 34.9462 16.1574 34.9993 16.2905 35.1977L17.121 34.6408L17.121 34.6408ZM15.1325 34.2491C14.476 34.6899 14.3 35.5793 14.741 36.2368L15.5715 35.6799C15.4384 35.4814 15.4913 35.2127 15.6899 35.0794L15.1325 34.2491L15.1325 34.2491ZM14.7409 36.2368L25.0182 51.5646L25.8488 51.0077L15.5715 35.6799L14.7409 36.2368L14.7409 36.2368ZM25.1574 50.8693L17.2477 56.1074L17.7999 56.9412L25.7096 51.703L25.1574 50.8693L25.1574 50.8693ZM17.7242 56.0662C10.0198 52.6964 4.50617 45.5788 3.18091 37.2993L2.19348 37.4574C3.57269 46.0739 9.30812 53.4766 17.3234 56.9824L17.7242 56.0662L17.7242 56.0662ZM2.96263 37.7956L12.2662 31.6547L11.7154 30.8201L2.41176 36.961L2.96263 37.7956L2.96263 37.7956ZM11.5754 31.5158L12.6462 33.1134L13.4768 32.5567L12.4061 30.9591L11.5754 31.5158L11.5754 31.5158ZM12.6466 33.114C12.9234 33.5258 13.3768 33.7484 13.8374 33.7484L13.8374 32.7484C13.6965 32.7484 13.5603 32.6808 13.4764 32.556L12.6466 33.114L12.6466 33.114ZM13.8374 33.7484C14.1805 33.7484 14.53 33.6703 14.8374 33.5054L14.1379 32.6755C14.0459 32.7249 13.942 32.7484 13.8374 32.7484L13.8374 33.7484L13.8374 33.7484ZM14.6345 33.5057C15.2918 33.065 15.4677 32.1749 15.0268 31.5174L14.1962 32.0744C14.3293 32.2729 14.2764 32.5419 14.0776 32.6752L14.6345 33.5057L14.6345 33.5057ZM15.0268 31.5175L13.9634 29.9313L13.1328 30.4882L14.1962 32.0743L15.0268 31.5175L15.0268 31.5175ZM13.8235 30.627L19.4861 26.8894L18.9352 26.0548L13.2727 29.7925L13.8235 30.627L13.8235 30.627ZM19.5591 26.8883C19.6028 26.8626 19.6536 26.8533 19.7084 26.8632L19.9336 25.8833C19.5874 25.8208 19.2299 25.8812 18.9336 26.0559L19.5591 26.8883L19.5591 26.8883ZM19.6199 26.8632C19.6702 26.8729 19.7119 26.8994 19.7406 26.9404L20.6199 26.3874C20.437 26.1263 20.155 25.9459 19.8304 25.8833L19.6199 26.8632L19.6199 26.8632ZM19.734 26.94L32.3051 45.9225L33.1389 45.3704L20.5678 26.3878L19.734 26.94L19.734 26.94ZM32.3052 45.9945C32.3316 46.0395 32.3406 46.091 32.3309 46.1448L33.3108 46.3703C33.3735 46.0227 33.312 45.6656 33.1388 45.3703L32.3052 45.9945L32.3052 45.9945ZM57.1655 28.9837C57.061 29.4982 56.7639 29.9389 56.3262 30.2286L56.8782 31.0625C57.5372 30.6262 57.9882 29.9572 58.1455 29.1827L57.1655 28.9837L57.1655 28.9837ZM56.3261 30.2287L53.0517 32.3971L53.6039 33.2309L56.8783 31.0624L56.3261 30.2287L56.3261 30.2287ZM53.1505 32.3682C53.101 32.3828 53.065 32.3972 53.0544 32.4015C53.0508 32.4029 53.048 32.4039 53.0464 32.4045C53.0457 32.405 53.045 32.4052 53.0445 32.4054C53.0443 32.4055 53.0441 32.4055 53.0441 32.4056C53.0439 32.4056 53.0439 32.4056 53.0439 32.4056C53.0439 32.4056 53.0439 32.4056 53.0439 32.4056C53.0439 32.4056 53.0439 32.4056 53.0439 32.4056C53.0432 32.4059 53.0476 32.4041 53.0529 32.402C53.075 32.3933 53.1508 32.3633 53.2606 32.3415L53.8194 33.3415C53.9316 33.3193 54.0093 33.2886 54.0332 33.2791C54.0364 33.2778 54.039 33.2768 54.0408 33.2761C54.0424 33.2754 54.0436 33.2749 54.0436 33.2749C54.045 33.2744 54.0401 33.2764 54.0344 33.2786C54.0247 33.2825 53.9894 33.2965 53.9408 33.311L53.1505 32.3682L53.1505 32.3682ZM53.0485 32.3989L41.3613 40.1388L41.9135 40.9726L53.6007 33.2327L53.0485 32.3989L53.0485 32.3989ZM41.3613 40.1388C40.5916 40.6486 39.667 40.8486 38.7556 40.702L38.5967 41.6893C39.7562 41.8759 40.9346 41.6209 41.9135 40.9725L41.3613 40.1388L41.3613 40.1388ZM38.7553 40.7019C37.1327 40.4418 35.4834 40.7983 34.1131 41.7057L34.6652 42.5395C35.8264 41.7706 37.2221 41.4689 38.597 41.6893L38.7553 40.7019L38.7553 40.7019ZM34.1131 41.7057L32.8877 42.5174L33.4398 43.3511L34.6653 42.5395L34.1131 41.7057L34.1131 41.7057ZM33.5806 42.6581L23.2846 27.1111L22.4508 27.6633L32.7469 43.2103L33.5806 42.6581L33.5806 42.6581ZM23.3548 27.4999L26.0163 16.0032L25.042 15.7777L22.3806 27.2744L23.3548 27.4999L23.3548 27.4999ZM26.0163 16.0031C26.7275 12.9294 26.3526 9.69372 24.9984 6.87481L24.097 7.30781C25.354 9.92439 25.7014 12.928 25.042 15.7777L26.0163 16.0031L26.0163 16.0031ZM25.0688 7.01857C25.0508 6.9401 25.0296 6.8566 25.004 6.77007L24.0688 7.69655C24.0743 7.71498 24.0804 7.73824 24.0877 7.77007L25.0688 7.01857L25.0688 7.01857ZM24.9576 6.78902C24.6973 6.25597 24.4018 5.73857 24.0716 5.23971L23.2377 5.79166C23.5438 6.25411 23.8177 6.73372 24.0591 7.22789L24.9576 6.78902L24.9576 6.78902ZM24.0715 5.23966C23.6051 4.53519 23.7988 3.5815 24.5038 3.11456L23.9517 2.28082C22.7863 3.0526 22.4663 4.62667 23.2377 5.79172L24.0715 5.23966L24.0715 5.23966ZM24.5038 3.11457C25.0982 2.72097 25.906 2.79588 26.4175 3.29193L27.1137 2.57404C26.2647 1.75081 24.9375 1.62797 23.9517 2.28081L24.5038 3.11457L24.5038 3.11457ZM26.4176 3.29198L28.1996 5.01958L28.8957 4.30159L27.1136 2.57398L26.4176 3.29198L26.4176 3.29198ZM28.1996 5.01955C30.0738 6.83674 31.5454 9.09166 32.4533 11.5385L33.3908 11.1906C32.431 8.60385 30.8768 6.22253 28.8957 4.30162L28.1996 5.01955L28.1996 5.01955ZM32.4533 11.5385L33.4238 14.1528L34.3613 13.8048L33.3908 11.1905L32.4533 11.5385L32.4533 11.5385ZM33.4226 14.7168C33.4272 14.7472 33.4311 14.7715 33.4333 14.7842C33.4339 14.7876 33.4343 14.7902 33.4346 14.792C33.435 14.7944 33.435 14.7946 33.4353 14.7957C33.4355 14.797 33.435 14.7949 33.4345 14.791L34.4224 13.8243C34.4209 13.8147 34.4195 13.8064 34.4188 13.8022C34.4185 13.8001 34.418 13.7975 34.4179 13.797C34.4177 13.7959 34.4177 13.7959 34.4177 13.7962C34.4179 13.7975 34.42 13.8097 34.4226 13.8269L33.4226 14.7168L33.4226 14.7168ZM33.4313 14.7562C33.4332 14.7682 33.4349 14.7787 33.4362 14.7863C33.4374 14.7936 33.4385 14.8006 33.4391 14.8043C33.4398 14.8088 33.44 14.8098 33.4401 14.8106C33.4402 14.8108 33.4398 14.8085 33.4392 14.8043L34.4313 13.865C34.4294 13.853 34.4277 13.8425 34.4265 13.8349C34.4252 13.8276 34.4242 13.8206 34.4235 13.8172C34.4228 13.8125 34.4226 13.8114 34.4225 13.8106C34.4225 13.8104 34.4229 13.813 34.4235 13.8172L33.4313 14.7562L33.4313 14.7562ZM33.4458 14.628C33.4518 14.6548 33.469 14.7326 33.4919 14.8111L34.4381 13.8111C34.4409 13.8206 34.4429 13.8278 34.4441 13.8323C34.4446 13.8346 34.445 13.8362 34.4454 13.8373C34.4456 13.8385 34.4458 13.8391 34.4458 13.8391C34.4458 13.8391 34.4457 13.8387 34.4455 13.8377C34.4453 13.8366 34.4449 13.8354 34.4445 13.8333C34.4435 13.8294 34.4423 13.8243 34.4407 13.8169L33.4458 14.628L33.4458 14.628ZM33.4741 14.5467C33.5004 14.6311 33.535 14.7333 33.5808 14.8387L34.4741 13.9262C34.4669 13.9098 34.4572 13.8838 34.4432 13.8387L33.4741 14.5467L33.4741 14.5467ZM33.5727 14.4454C34.0098 15.1052 34.8987 15.2863 35.5586 14.8487L35.006 14.0153C34.8071 14.1471 34.5388 14.093 34.4064 13.8931L33.5727 14.4454L33.5727 14.4454ZM35.5583 14.8489L45.5088 8.25984L44.9566 7.42607L35.0062 14.0151L35.5583 14.8489L35.5583 14.8489ZM45.5088 8.25984C46.4102 7.66291 47.6302 7.91077 48.2271 8.81208L49.0608 8.25995C48.159 6.89807 46.3184 6.52429 44.9566 7.42608L45.5088 8.25984L45.5088 8.25984ZM48.2271 8.81208C48.824 9.71348 48.5761 10.9335 47.6748 11.5304L48.227 12.3641C49.5888 11.4623 49.9626 9.62173 49.0608 8.25995L48.2271 8.81208L48.2271 8.81208ZM47.6748 11.5304L46.811 12.1026L47.3632 12.9363L48.227 12.3641L47.6748 11.5304L47.6748 11.5304ZM47.2339 12.5195C47.2339 12.0195 47.2335 12.0195 47.2332 12.0195C47.2331 12.0195 47.2328 12.0195 47.2325 12.0195C47.2321 12.0195 47.2315 12.0195 47.2311 12.0195C47.2301 12.0195 47.2293 12.0195 47.2283 12.0195C47.2264 12.0195 47.2246 12.0195 47.2226 12.0195C47.2188 12.0196 47.215 12.0196 47.211 12.0197C47.2033 12.0199 47.1952 12.0202 47.1868 12.0206C47.1702 12.0214 47.1525 12.0226 47.1338 12.0245C47.0966 12.0283 47.0546 12.0346 47.0099 12.0452C46.918 12.0669 46.8193 12.1051 46.7326 12.1664L47.7326 12.8735C47.6466 12.9343 47.5486 12.9723 47.4571 12.9939C47.4127 13.0044 47.371 13.0107 47.3338 13.0144C47.3153 13.0163 47.2976 13.0176 47.281 13.0184C47.2727 13.0188 47.2646 13.019 47.2567 13.0192C47.2529 13.0193 47.2489 13.0194 47.2453 13.0194C47.2433 13.0194 47.2414 13.0194 47.2396 13.0195C47.2386 13.0195 47.2376 13.0195 47.2368 13.0195C47.2363 13.0195 47.2358 13.0195 47.2354 13.0195C47.2351 13.0195 47.2348 13.0195 47.2346 13.0195C47.2344 13.0195 47.2339 13.0195 47.2339 12.5195L47.2339 12.5195ZM46.8101 12.1031L44.8833 13.3793L45.4356 14.213L47.3623 12.9368L46.8101 12.1031L46.8101 12.1031ZM44.9007 13.3832C44.8821 13.3917 44.8678 13.3988 44.8602 13.4026C44.8567 13.4044 44.8538 13.406 44.8536 13.4061C44.8526 13.4066 44.8547 13.4054 44.8574 13.4042C44.8686 13.3984 44.9133 13.3757 44.9772 13.354L45.7145 14.354C45.7831 14.3308 45.8316 14.3063 45.8466 14.2987C45.8485 14.2977 45.8502 14.2968 45.8512 14.2962C45.8522 14.2958 45.853 14.2953 45.8532 14.2952C45.854 14.2949 45.852 14.2959 45.8494 14.2971C45.8439 14.3 45.8316 14.3062 45.8152 14.3135L44.9007 13.3832L44.9007 13.3832ZM44.898 13.3932C44.894 13.3955 44.8445 13.4221 44.7999 13.4515L45.7999 14.3807C45.7932 14.3851 45.7879 14.3883 45.7847 14.3903C45.7831 14.3913 45.7819 14.392 45.7811 14.3925C45.7803 14.3928 45.7799 14.3932 45.7799 14.3932C45.7797 14.3932 45.78 14.3931 45.7808 14.3926C45.7814 14.3922 45.7824 14.3918 45.7838 14.391C45.7852 14.3902 45.7867 14.3893 45.7887 14.3882C45.7904 14.3873 45.7931 14.3858 45.7954 14.3845L44.898 13.3932L44.898 13.3932ZM44.8259 13.4207C44.2143 13.8699 44.0554 14.7244 44.4799 15.3651L45.3135 14.8127C45.186 14.6202 45.233 14.3624 45.4179 14.2266L44.8259 13.4207L44.8259 13.4207ZM44.4797 15.3647C44.9165 16.0252 45.806 16.2057 46.466 15.7685L45.9138 14.9348C45.714 15.0671 45.4455 15.0123 45.3137 14.8131L44.4797 15.3647L44.4797 15.3647ZM46.466 15.7685L48.3941 14.4913L47.8419 13.6576L45.9138 14.9348L46.466 15.7685L46.466 15.7685ZM48.3936 14.4916C48.8312 14.2025 49.3523 14.1011 49.8664 14.2056L50.0656 13.2256C49.2915 13.0683 48.5006 13.2223 47.8423 13.6573L48.3936 14.4916L48.3936 14.4916ZM49.8664 14.2056C50.3807 14.3101 50.8216 14.6072 51.1108 15.0447L51.945 14.4932C51.509 13.8338 50.8394 13.3829 50.0656 13.2256L49.8664 14.2056L49.8664 14.2056ZM51.111 15.0451C51.4009 15.4826 51.5026 16.0043 51.3981 16.5182L52.3781 16.7174C52.5355 15.9432 52.3809 15.1512 51.9447 14.4928L51.111 15.0451L51.111 15.0451ZM51.3981 16.5183C51.2936 17.0329 50.9966 17.4735 50.5588 17.7632L51.1108 18.5971C51.7699 18.1609 52.2208 17.4918 52.3781 16.7174L51.3981 16.5183L51.3981 16.5183ZM50.5587 17.7633L47.7673 19.6122L48.3195 20.4459L51.1109 18.597L50.5587 17.7633L50.5587 17.7633ZM47.7676 19.612C47.1071 20.0488 46.9266 20.9379 47.3638 21.5979L48.1975 21.0457C48.0652 20.846 48.1199 20.5779 48.3192 20.4461L47.7676 19.612L47.7676 19.612ZM47.3637 21.5979C47.6396 22.0145 48.096 22.2397 48.5593 22.2397L48.5593 21.2397C48.4174 21.2397 48.2805 21.1711 48.1975 21.0458L47.3637 21.5979L47.3637 21.5979ZM48.5593 22.2397C48.9036 22.2397 49.2522 22.162 49.5593 22.0015L48.8607 21.1676C48.7668 21.2167 48.6622 21.2397 48.5593 21.2397L48.5593 22.2397L48.5593 22.2397ZM49.3583 22.0015L49.7973 21.7154L49.2363 20.8816L48.7973 21.1677L49.3583 22.0015L49.3583 22.0015ZM49.7815 21.7153L51.2766 20.7252L50.7244 19.8915L49.2294 20.8816L49.7815 21.7153L49.7815 21.7153ZM51.2765 20.7253C52.1784 20.1282 53.3981 20.3762 53.9949 21.2774L54.8287 20.7253C53.9268 19.3634 52.0867 18.9897 50.7245 19.8914L51.2765 20.7253L51.2765 20.7253ZM53.9949 21.2774C54.5918 22.1792 54.344 23.399 53.4425 23.9963L53.9949 24.8299C55.3566 23.9276 55.7304 22.0876 54.8287 20.7254L53.9949 21.2774L53.9949 21.2774ZM53.4427 23.9962L52.0483 24.9195L52.6004 25.7533L53.9948 24.83L53.4427 23.9962L53.4427 23.9962ZM52.0894 24.9124C52.0576 24.9258 52.029 24.9392 52.0191 24.9437L53.0072 25.9124C53.0142 25.9091 53.0168 25.9079 53.0186 25.9071C53.0202 25.9064 53.0181 25.9074 53.0137 25.9092L52.0894 24.9124L52.0894 24.9124ZM52.0264 24.9342L50.6512 25.8446L51.2033 26.6784L52.5784 25.7679L52.0264 24.9342L52.0264 24.9342ZM50.6515 25.8445C49.991 26.2813 49.8105 27.1709 50.2477 27.8308L51.0814 27.2786C50.9491 27.0789 51.0039 26.8103 51.2031 26.6786L50.6515 25.8445L50.6515 25.8445ZM50.2476 27.8308C50.5235 28.2474 50.9799 28.4727 51.4432 28.4727L51.4432 27.4727C51.3013 27.4727 51.1644 27.404 51.0814 27.2787L50.2476 27.8308L50.2476 27.8308ZM51.4432 28.4727C51.7875 28.4727 52.1362 28.395 52.4432 28.2344L51.7446 27.4005C51.6507 27.4497 51.5462 27.4727 51.4432 27.4727L51.4432 28.4727L51.4432 28.4727ZM52.2422 28.2344L52.6812 27.9483L52.1203 27.1145L51.6812 27.4006L52.2422 28.2344L52.2422 28.2344ZM52.3894 27.5314C52.8894 27.5313 52.8894 27.5315 52.8894 27.5318C52.8894 27.5319 52.8894 27.5321 52.8894 27.5323C52.8894 27.5326 52.8894 27.5329 52.8894 27.5333C52.8894 27.5339 52.8894 27.5346 52.8894 27.5353C52.8894 27.5366 52.8893 27.538 52.8893 27.5393C52.8893 27.5421 52.8892 27.545 52.8891 27.5479C52.8889 27.5538 52.8886 27.5602 52.8881 27.5669C52.8872 27.5802 52.8855 27.5959 52.8826 27.6134C52.8772 27.6461 52.8653 27.6974 52.8367 27.7547C52.807 27.814 52.7547 27.8885 52.6669 27.947C52.576 28.0077 52.4772 28.0309 52.3898 28.0309L52.3898 27.0309C52.3022 27.0309 52.2033 27.0542 52.1122 27.115C52.0243 27.1736 51.9719 27.2482 51.9422 27.3076C51.9135 27.365 51.9016 27.4164 51.8962 27.4492C51.8932 27.4668 51.8916 27.4825 51.8906 27.4958C51.8902 27.5026 51.8899 27.5089 51.8897 27.5148C51.8896 27.5178 51.8895 27.5206 51.8894 27.5234C51.8894 27.5248 51.8894 27.5262 51.8894 27.5275C51.8894 27.5282 51.8894 27.5288 51.8894 27.5295C51.8894 27.5298 51.8894 27.5302 51.8894 27.5305C51.8894 27.5307 51.8894 27.5309 51.8894 27.531C51.8894 27.5312 51.8894 27.5315 52.3894 27.5314L52.3894 27.5314ZM52.6658 27.9478L54.1609 26.9582L53.6089 26.1243L52.1138 27.114L52.6658 27.9478L52.6658 27.9478ZM54.161 26.9581C54.5985 26.6682 55.1197 26.5665 55.6339 26.6714L55.8337 25.6915C55.0588 25.5336 54.2671 25.6882 53.6087 26.1244L54.161 26.9581L54.161 26.9581ZM55.6346 26.6715C56.1487 26.7756 56.5894 27.0728 56.8793 27.5104L57.713 26.9581C57.2769 26.2999 56.6079 25.8482 55.833 25.6914L55.6346 26.6715L55.6346 26.6715ZM56.8792 27.5102C57.1686 27.9476 57.27 28.4694 57.1655 28.9836L58.1455 29.1828C58.3028 28.4088 58.1488 27.6169 57.7131 26.9584L56.8792 27.5102L56.8792 27.5102Z" fill="#1064E5" transform="translate(0.086 -0.5)" />
  </g>
</svg>