<?xml version="1.0" encoding="utf-8"?>
<svg width="60" height="60" viewBox="0 0 60 60" fill="none" xmlns="http://www.w3.org/2000/svg">
  <g>
    <g transform="translate(44.675 31.712)">
      <g>
        <path d="M4.83692 0C4.35469 0 3.96375 0.390936 3.96375 0.873162C3.96375 1.48453 3.46641 1.98187 2.85504 1.98187C2.24379 1.98187 1.74633 1.48453 1.74633 0.873162C1.74633 0.390819 1.35539 0 0.873163 0C0.390936 0 0 0.390936 0 0.873162C0 2.44746 1.28086 3.7282 2.85504 3.7282C4.42922 3.7282 5.71008 2.44734 5.71008 0.873162C5.71008 0.390702 5.31914 0 4.83692 0L4.83692 0Z" fill="#1064E5" fill-rule="evenodd" />
        <path d="M1.37316 0C0.614795 0 0 0.614793 0 1.37316C0 3.22361 1.50473 4.7282 3.35504 4.7282C5.20536 4.7282 6.71008 3.22348 6.71008 1.37316C6.71008 0.614469 6.09519 0 5.33692 0C4.57855 0 3.96375 0.614793 3.96375 1.37316C3.96375 1.70839 3.69027 1.98187 3.35504 1.98187C3.0199 1.98187 2.74633 1.70835 2.74633 1.37316C2.74633 0.61463 2.13149 0 1.37316 0L1.37316 0ZM1 1.37316C1 1.16708 1.16708 1 1.37316 1C1.57929 1 1.74633 1.16701 1.74633 1.37316C1.74633 2.26071 2.46768 2.98187 3.35504 2.98187C4.24255 2.98187 4.96375 2.26067 4.96375 1.37316C4.96375 1.16708 5.13083 1 5.33692 1C5.54309 1 5.71008 1.16693 5.71008 1.37316C5.71008 2.6712 4.65308 3.7282 3.35504 3.7282C2.05699 3.7282 1 2.6713 1 1.37316L1 1.37316Z" fill="#1064E5" fill-rule="evenodd" transform="translate(-0.5 -0.5)" />
      </g>
    </g>
    <g transform="translate(0 0.599)">
      <g>
        <path d="M57.7083 31.2557L55.2506 30.4684C54.9359 30.3675 54.6878 30.1163 54.5871 29.7962C54.0691 28.1494 53.2875 26.6033 52.2639 25.2008C51.7973 24.5616 51.2786 23.9511 50.7118 23.37C51.0744 21.7794 51.2715 19.9793 51.246 18.4241C51.2094 16.1993 50.7648 14.8944 49.8868 14.4346C49.414 14.1866 47.9749 13.4333 40.1858 16.9989C40.0014 17.0832 39.8291 17.1872 39.6696 17.3062C39.1445 17.1652 38.6078 17.0346 38.0678 16.9174C38.0027 16.9032 37.9357 16.8907 37.8702 16.8769C38.5014 15.498 38.8699 14.0005 38.9392 12.4546C38.9607 11.9727 38.5877 11.5646 38.1059 11.5432C37.6253 11.5193 37.2159 11.8945 37.1945 12.3764C37.0807 14.9183 36.0263 17.31 34.2255 19.1108C33.1497 20.1867 31.8899 20.9682 30.5473 21.4604C28.2189 21.1337 25.8472 21.1337 23.5188 21.4604C22.1761 20.9682 20.9164 20.1867 19.8405 19.1108C17.9194 17.1896 16.8613 14.6353 16.8613 11.9183C16.8613 9.20121 17.9194 6.64699 19.8405 4.72582C21.7617 2.80453 24.3162 1.74645 27.033 1.74645C29.7499 1.74645 32.3044 2.80453 34.2255 4.72582C34.9976 5.49785 35.6355 6.37887 36.1218 7.34414C36.3387 7.77492 36.8638 7.94836 37.2945 7.73133C37.7252 7.51453 37.8986 6.98941 37.6816 6.55875C37.1118 5.42684 36.3645 4.39477 35.4606 3.49078C33.2095 1.23973 30.2166 0 27.0332 0C23.8498 0 20.8568 1.23973 18.6057 3.49078C16.3547 5.74195 15.115 8.73481 15.115 11.9182C15.115 15.1016 16.3547 18.0946 18.6057 20.3456C19.2551 20.995 19.9615 21.5534 20.7087 22.0212L20.7094 22.0211C20.1664 22.1621 19.6276 22.3206 19.0948 22.4987C18.6374 22.6516 18.3906 23.1463 18.5435 23.6038C18.6963 24.0612 19.1912 24.308 19.6485 24.1552C24.4105 22.5632 29.6558 22.5632 34.4179 24.1552C34.5097 24.1859 34.603 24.2004 34.6948 24.2004C35.06 24.2004 35.4006 23.9693 35.5228 23.6038C35.6757 23.1464 35.4289 22.6516 34.9716 22.4987C34.4387 22.3206 33.8999 22.162 33.357 22.0211L33.3577 22.0212C34.105 21.5534 34.8112 20.995 35.4606 20.3456C36.035 19.7712 36.5421 19.1439 36.9824 18.4772C37.2231 18.5239 37.462 18.5729 37.6975 18.624C38.0111 18.6921 38.3232 18.7652 38.6326 18.842C38.6229 18.88 38.6129 18.9178 38.6048 18.9564C38.179 20.9773 38.2066 22.7646 38.687 24.2685C39.1187 25.6202 39.8979 26.7154 41.0026 27.5236C42.3047 28.4761 43.8766 28.8875 45.3006 28.8875C46.3723 28.8875 47.3603 28.6543 48.0859 28.2434C48.9067 27.7785 49.5943 26.7989 50.1387 25.3282C50.3903 25.6219 50.6287 25.9227 50.8535 26.2307C51.7649 27.4792 52.4606 28.8552 52.9214 30.3203C53.192 31.1808 53.8637 31.8579 54.7181 32.1318L57.1758 32.919C57.8207 33.1256 58.2539 33.7192 58.2539 34.3963L58.2539 38.4715C58.2539 39.1486 57.8207 39.7421 57.1758 39.9487L53.2161 41.2171C52.5826 41.4202 52.0465 41.8555 51.7065 42.4431C50.1509 45.1316 47.705 47.3564 44.4366 49.0557C44.059 49.2523 43.7974 49.6037 43.7187 50.0202L42.4505 56.7354C42.4154 56.9204 42.2534 57.0546 42.065 57.0546L37.9416 57.0546C37.7532 57.0546 37.5912 56.9203 37.5561 56.7354L36.8537 53.0242C36.7154 52.294 36.0306 51.8089 35.2935 51.9206C33.5173 52.1892 31.687 52.3253 29.8539 52.3253C28.49 52.3253 27.1437 52.2492 25.8519 52.0991C25.1377 52.017 24.4723 52.5039 24.3388 53.2091L23.6713 56.7354C23.6362 56.9204 23.4742 57.0546 23.2859 57.0546L19.1624 57.0546C18.9741 57.0546 18.812 56.9203 18.7765 56.7326L17.5554 50.3902C17.4768 49.9815 17.2201 49.6341 16.8509 49.4368C11.2793 46.4625 8.33438 41.4933 8.33438 35.0667C8.33438 31.8197 9.04477 28.9485 10.4457 26.5325C11.7531 24.278 13.6625 22.4139 16.121 20.9918C16.5384 20.7503 16.6811 20.2161 16.4396 19.7986C16.1982 19.3812 15.6641 19.2388 15.2466 19.48C10.4795 22.2376 7.60434 26.4919 6.81271 31.8954C6.72867 31.8878 6.64453 31.8805 6.56074 31.8718C6.57598 31.2888 6.47051 30.7005 6.24082 30.1296C5.73422 28.8703 4.69359 27.9614 3.58957 27.8141C2.71957 27.6976 1.89164 28.067 1.31707 28.8261C0.483984 29.927 0.619805 30.7982 0.880313 31.3351C1.32012 32.2413 2.45063 32.8823 4.32668 33.2854C4.27512 33.3626 4.2184 33.4402 4.15629 33.5181C3.04781 34.9083 1.74187 35.2157 0.893906 35.2446C0.3975 35.2614 0 35.6599 0 36.1567L0 36.1609C0 36.6509 0.386602 37.0505 0.876094 37.0729C0.938789 37.0758 1.0043 37.0773 1.0725 37.0773C2.14547 37.0773 3.86754 36.6816 5.52199 34.607C5.7832 34.2796 5.99602 33.9341 6.15961 33.5772C6.32438 33.5958 6.4827 33.6117 6.63434 33.6258C6.60467 34.0987 6.58816 34.5785 6.58816 35.0667C6.58816 38.7028 7.455 41.9448 9.16441 44.703C10.7406 47.246 12.9973 49.3282 15.874 50.8941L17.0611 57.06C17.252 58.0688 18.1357 58.8009 19.1624 58.8009L23.2859 58.8009C24.3125 58.8009 25.1962 58.0688 25.3871 57.06L25.9907 53.8716C27.2441 54.0043 28.5418 54.0716 29.8538 54.0716C31.6537 54.0716 33.4516 53.9462 35.2038 53.6987L35.84 57.0602C36.0311 58.069 36.9148 58.8011 37.9413 58.8011L42.0648 58.8011C43.0915 58.8011 43.9752 58.0689 44.1662 57.0598L45.401 50.5218C48.8895 48.6771 51.5189 46.2539 53.2179 43.3177C53.3404 43.106 53.5289 42.9507 53.7487 42.8803L57.7083 41.612C59.079 41.1727 60 39.9107 60 38.4713L60 34.3961C60 32.9568 59.079 31.6948 57.7083 31.2557L57.7083 31.2557ZM49.3685 20.8779C49.0324 23.752 48.1309 26.2106 47.225 26.7237C46.1954 27.3069 43.8183 27.4195 42.0335 26.1139C40.2466 24.8068 39.6519 22.4563 40.3134 19.3164L40.3134 19.3162C40.3799 19.0009 40.6039 18.7281 40.9127 18.5868C45.2843 16.5857 47.8046 15.9312 48.741 15.9312C48.8823 15.9312 48.9875 15.9461 49.0576 15.9735C49.3389 16.2732 49.7078 17.9773 49.3685 20.8779L49.3685 20.8779ZM2.45168 30.5726C2.36133 30.3863 2.57461 30.0587 2.70984 29.8799C2.92418 29.5968 3.12164 29.5389 3.27082 29.5389C3.30234 29.5389 3.33176 29.5414 3.35871 29.5451C3.7602 29.5986 4.3227 30.0404 4.6207 30.7812C4.6909 30.9555 4.78207 31.2444 4.8034 31.6047C3.59461 31.3542 2.65547 30.9932 2.45168 30.5726L2.45168 30.5726ZM6.8127 32.8954L6.8127 31.8954L6.8127 32.8954Z" fill="#1064E5" fill-rule="evenodd" />
        <path d="M58.2083 32.2795L59.2083 31.2795L59.2083 31.2795L58.2083 32.2795L58.2083 32.2795ZM56.598 30.9684L55.598 31.9682L55.5986 31.9684L56.598 30.9684L56.598 30.9684ZM55.6101 30.2962L54.6101 31.2962L54.6101 31.2962L55.6101 30.2962L55.6101 30.2962ZM53.36 25.7008L52.36 26.7008L52.36 26.7008L53.36 25.7008L53.36 25.7008ZM51.6639 24.0003L50.7741 23.7589L50.6639 24.3354L51.0107 24.7589L51.6639 24.0003L51.6639 24.0003ZM51.746 19.9159L52.746 18.9159L52.746 18.9159L51.746 19.9159L51.746 19.9159ZM51.1546 14.9346L50.1546 15.9344L50.1559 15.9346L51.1546 14.9346L51.1546 14.9346ZM40.6858 17.4989L41.6853 18.4989L41.6858 18.4987L40.6858 17.4989L40.6858 17.4989ZM40.3424 17.8062L40.0399 18.6908L40.5863 18.8062L41.0399 18.5402L40.3424 17.8062L40.3424 17.8062ZM39.4613 17.4174L38.4613 18.4172L38.4651 18.4174L39.4613 17.4174L39.4613 17.4174ZM38.6554 17.4672L38.0194 17.1688L37.6554 17.9837L38.5109 18.1688L38.6554 17.4672L38.6554 17.4672ZM39.4392 12.9546L40.4392 13.9546L40.4392 13.9546L39.4392 12.9546L39.4392 12.9546ZM39.581 12.0432L38.581 13.043L38.6853 13.0432L39.581 12.0432L39.581 12.0432ZM37.6945 12.8764L38.6945 13.8764L38.6945 13.8675L37.6945 12.8764L37.6945 12.8764ZM34.7255 19.6108L35.7255 20.6108L35.7255 20.6108L34.7255 19.6108L34.7255 19.6108ZM31.2655 21.9604L30.9778 22.9265L31.491 22.9604L31.9778 22.8763L31.2655 21.9604L31.2655 21.9604ZM24.559 21.9604L23.8467 22.8763L24.3335 22.9604L24.8467 22.9265L24.559 21.9604L24.559 21.9604ZM20.3405 5.22582L21.3405 6.22582L21.3405 6.22579L20.3405 5.22582L20.3405 5.22582ZM35.372 5.22582L34.372 6.22579L34.372 6.22582L35.372 5.22582L35.372 5.22582ZM36.6218 8.61921L37.6218 7.61948L37.6218 7.61921L36.6218 8.61921L36.6218 8.61921ZM38.5694 8.7847L37.5707 7.7847L37.5694 7.78497L38.5694 8.7847L38.5694 8.7847ZM38.735 7.05875L37.735 8.05844L37.7352 8.05875L38.735 7.05875L38.735 7.05875ZM35.9606 4.63723L36.9606 3.63729L36.9603 3.63723L35.9606 4.63723L35.9606 4.63723ZM19.7522 4.63723L18.7522 3.63723L18.7522 3.63726L19.7522 4.63723L19.7522 4.63723ZM21.9433 22.5212L20.9433 23.3688L21.4022 23.5212L21.9433 23.5212L21.9433 22.5212L21.9433 22.5212ZM21.2094 22.5293L22.2094 23.0211L21.2094 22.0211L21.2094 22.5293L21.2094 22.5293ZM20.4362 23.5245L19.4362 22.5245L19.4362 22.5245L20.4362 23.5245L20.4362 23.5245ZM19.0435 24.9453L20.0435 23.9453L20.0435 23.9453L19.0435 24.9453L19.0435 24.9453ZM20.1485 24.6552L21.1485 25.6552L21.1485 25.6552L20.1485 24.6552L20.1485 24.6552ZM35.7593 24.6552L34.7593 25.6552L34.7599 25.6552L35.7593 24.6552L35.7593 24.6552ZM36.0228 24.1038L37.0228 25.1038L37.0228 25.1032L36.0228 24.1038L36.0228 24.1038ZM35.4716 23.5245L36.4716 22.5245L36.4716 22.5245L35.4716 23.5245L35.4716 23.5245ZM34.7313 22.5293L34.7313 22.0211L33.7313 23.0211L34.7313 22.5293L34.7313 22.5293ZM33.8577 22.5212L33.8577 23.5212L34.399 23.5212L34.8577 23.3688L33.8577 22.5212L33.8577 22.5212ZM37.8792 19.4226L38.0652 18.5376L37.4246 18.4226L37.0652 18.9258L37.8792 19.4226L37.8792 19.4226ZM38.1975 19.6354L39.1975 18.6354L39.1975 18.6354L38.1975 19.6354L38.1975 19.6354ZM39.1326 19.6531L39.9275 19.8567L40.1326 19.0557L39.3302 18.8567L39.1326 19.6531L39.1326 19.6531ZM39.1048 19.4564L40.1046 20.4564L40.1048 20.4516L39.1048 19.4564L39.1048 19.4564ZM39.187 25.6163L40.187 24.617L40.187 24.6163L39.187 25.6163L39.187 25.6163ZM42.2074 28.0236L41.2074 29.0236L41.2074 29.0236L42.2074 28.0236L42.2074 28.0236ZM48.5859 28.7434L49.5859 29.7434L49.5859 29.7434L48.5859 28.7434L48.5859 28.7434ZM50.7224 25.857L51.1698 25.5221L50.5177 24.857L50.1698 25.6783L50.7224 25.857L50.7224 25.857ZM51.9496 26.7307L50.9496 27.7304L50.9498 27.7307L51.9496 26.7307L51.9496 26.7307ZM53.4214 31.6703L54.4214 30.6703L54.4214 30.6703L53.4214 31.6703L53.4214 31.6703ZM56.0655 32.6318L55.0655 33.6318L55.0662 33.6318L56.0655 32.6318L56.0655 32.6318ZM57.6758 33.9429L58.6758 32.9429L58.6758 32.9429L57.6758 33.9429L57.6758 33.9429ZM57.6758 40.4487L58.6758 41.4487L58.6758 41.4487L57.6758 40.4487L57.6758 40.4487ZM54.5635 42.2409L53.5641 41.2409L53.5635 41.2409L54.5635 42.2409L54.5635 42.2409ZM52.2065 42.9431L53.2065 43.9431L53.2065 43.9431L52.2065 42.9431L52.2065 42.9431ZM45.7057 50.1121L44.7066 49.1121L44.7057 49.1123L45.7057 50.1121L45.7057 50.1121ZM44.7274 51.4273L43.7274 50.4273L43.7274 50.4284L44.7274 51.4273L44.7274 51.4273ZM42.9505 57.2354L43.9503 58.2354L43.9505 58.2333L42.9505 57.2354L42.9505 57.2354ZM38.5649 57.2354L37.5649 58.2343L37.5649 58.2354L38.5649 57.2354L38.5649 57.2354ZM37.3537 54.4311L38.3537 53.4322L38.3537 53.4311L37.3537 54.4311L37.3537 54.4311ZM35.7935 52.4206L36.7908 53.4206L36.7935 53.4206L35.7935 52.4206L35.7935 52.4206ZM26.3519 53.1024L27.3519 52.1024L27.3415 52.1024L26.3519 53.1024L26.3519 53.1024ZM24.8388 53.7091L25.8388 54.7091L25.8388 54.7091L24.8388 53.7091L24.8388 53.7091ZM24.1713 57.2354L25.1713 58.2354L25.1713 58.2354L24.1713 57.2354L24.1713 57.2354ZM19.2765 58.1381L20.2765 57.1551L20.2759 57.1381L19.2765 58.1381L19.2765 58.1381ZM18.5644 50.8902L17.5644 51.8892L17.5644 51.8902L18.5644 50.8902L18.5644 50.8902ZM17.3509 50.4958L18.3509 49.4958L18.3505 49.4958L17.3509 50.4958L17.3509 50.4958ZM10.9457 27.0325L11.9457 28.0325L11.9457 28.0325L10.9457 27.0325L10.9457 27.0325ZM16.621 21.4918L17.621 22.4918L17.621 22.4918L16.621 21.4918L16.621 21.4918ZM16.9396 21.0483L17.9396 20.0483L17.9396 20.0483L16.9396 21.0483L16.9396 21.0483ZM16.4962 20.547L15.4974 19.547L15.4962 19.5475L16.4962 20.547L16.4962 20.547ZM7.31536 32.3955L6.8127 32.3955L7.8127 33.3955L7.31536 32.3955L7.31536 32.3955ZM7.3127 32.8974L8.3127 32.8974L8.3127 31.9803L7.40298 31.8974L7.3127 32.8974L7.3127 32.8974ZM7.54882 32.3843L6.57244 32.3588L6.54882 33.2653L7.44828 33.3588L7.54882 32.3843L7.54882 32.3843ZM7.27695 30.6296L6.27695 31.6296L6.27695 31.6296L7.27695 30.6296L7.27695 30.6296ZM5.02322 28.3141L4.02322 29.3141L4.02653 29.3141L5.02322 28.3141L5.02322 28.3141ZM2.41837 30.0244L1.41842 29.0244L1.41837 29.0244L2.41837 30.0244L2.41837 30.0244ZM1.93046 31.8351L0.93046 32.8351L0.930524 32.8351L1.93046 31.8351L1.93046 31.8351ZM4.82668 33.9343L5.33107 34.2965L5.82668 33.4981L4.95405 33.2965L4.82668 33.9343L4.82668 33.9343ZM4.65629 34.0181L5.65611 35.0181L5.65629 35.0178L4.65629 34.0181L4.65629 34.0181ZM1.39391 35.7446L2.38289 36.7446L2.39391 36.7446L1.39391 35.7446L1.39391 35.7446ZM1.37609 38.0734L2.37609 37.0734L2.35467 37.0734L1.37609 38.0734L1.37609 38.0734ZM6.63108 35.7952L5.63121 34.7952L5.63108 34.7952L6.63108 35.7952L6.63108 35.7952ZM7.09507 34.5396L7.20507 33.6153L6.5005 33.5396L6.20507 34.152L7.09507 34.5396L7.09507 34.5396ZM7.1727 34.1258L7.08817 35.0334L8.08817 35.1258L8.08817 34.1258L7.1727 34.1258L7.1727 34.1258ZM7.14743 34.801L7.66011 34.9667L6.66011 33.9667L7.14743 34.801L7.14743 34.801ZM10.2394 45.203L9.23942 46.2026L9.23944 46.203L10.2394 45.203L10.2394 45.203ZM16.374 51.9549L17.374 51.7395L17.283 51.212L16.8608 50.9549L16.374 51.9549L16.374 51.9549ZM17.5611 58.4655L18.5611 57.4814L18.5605 57.4655L17.5611 58.4655L17.5611 58.4655ZM26.3959 58.467L25.3959 57.467L25.3959 57.467L26.3959 58.467L26.3959 58.467ZM26.9027 54.8258L26.9994 53.9147L26.157 53.8258L25.9994 54.6554L26.9027 54.8258L26.9027 54.8258ZM35.7585 54.6369L36.6339 54.4714L36.4758 53.6369L35.6339 53.7556L35.7585 54.6369L35.7585 54.6369ZM36.8488 57.5602L35.8488 58.5591L35.8488 58.5602L36.8488 57.5602L36.8488 57.5602ZM44.6662 57.5598L45.6662 58.5598L45.6662 58.5576L44.6662 57.5598L44.6662 57.5598ZM46.4097 51.5798L45.934 50.5798L45.5007 50.8343L45.4097 51.3698L46.4097 51.5798L46.4097 51.5798ZM54.2851 44.5672L53.2851 43.5672L53.2851 43.5672L54.2851 44.5672L54.2851 44.5672ZM55.0962 43.9041L54.0962 42.9041L54.0962 42.9043L55.0962 43.9041L55.0962 43.9041ZM58.2083 42.112L59.2077 43.112L59.2083 43.1118L58.2083 42.112L58.2083 42.112ZM50.3719 22.3198L49.3719 21.3198L49.3719 21.3198L50.3719 22.3198L50.3719 22.3198ZM48.4786 27.7886L47.4786 26.7886L47.4786 26.7886L48.4786 27.7886L48.4786 27.7886ZM42.5335 27.2104L43.5335 26.2104L43.5335 26.2104L42.5335 27.2104L42.5335 27.2104ZM40.8134 19.8164L41.792 20.8164L41.8134 20.3222L41.8134 19.8164L40.8134 19.8164L40.8134 19.8164ZM40.8188 19.8162L40.3134 19.8162L41.3134 20.8162L40.8188 19.8162L40.8188 19.8162ZM41.4127 19.0868L42.4127 20.0868L42.4127 20.0868L41.4127 19.0868L41.4127 19.0868ZM49.5576 17.0079L50.5576 16.2731L50.3456 16.0962L50.0572 16.0079L49.5576 17.0079L49.5576 17.0079ZM2.95168 31.8544L3.95168 30.8553L3.95155 30.8544L2.95168 31.8544L2.95168 31.8544ZM3.81104 31.0781L2.81142 30.0781L2.81104 30.0788L3.81104 31.0781L3.81104 31.0781ZM4.79192 30.0451L3.79192 31.0449L3.8021 31.0451L4.79192 30.0451L4.79192 30.0451ZM5.65684 31.2812L4.65684 32.2807L4.6569 32.2812L5.65684 31.2812L5.65684 31.2812ZM5.36067 32.1205L5.20197 32.8719L6.20197 33.0751L6.14161 32.0751L5.36067 32.1205L5.36067 32.1205ZM58.3608 31.2795L55.9032 30.4922L55.5981 31.4446L58.0558 32.2318L58.3608 31.2795L58.3608 31.2795ZM55.9032 30.4923C55.7458 30.4418 55.6168 30.314 55.5641 30.1462L54.6101 30.4462C54.7587 30.9185 55.1259 31.2932 55.598 31.4445L55.9032 30.4923L55.9032 30.4923ZM55.5641 30.1462C55.0297 28.4471 54.2233 26.8522 53.1677 25.406L52.36 25.9956C53.3517 27.3544 54.1086 28.8516 54.6101 30.4462L55.5641 30.1462L55.5641 30.1462ZM53.1678 25.4061C52.6865 24.7467 52.1522 24.1182 51.5698 23.5209L50.8539 24.2191C51.4049 24.7841 51.9082 25.3765 52.36 25.9956L53.1678 25.4061L53.1678 25.4061ZM51.6993 23.9811C52.0702 22.3542 52.2722 20.5139 52.2459 18.9159L51.246 18.9323C51.2709 20.4447 51.0786 22.2047 50.7243 23.7589L51.6993 23.9811L51.6993 23.9811ZM52.2459 18.9159C52.2272 17.7788 52.1045 16.8379 51.8552 16.1062C51.6051 15.3721 51.2102 14.8014 50.6188 14.4916L50.1549 15.3775C50.4415 15.5276 50.7078 15.8393 50.9086 16.4287C51.1103 17.0207 51.2282 17.8446 51.246 18.9323L52.2459 18.9159L52.2459 18.9159ZM50.619 14.4918C50.479 14.4183 50.2443 14.2969 49.843 14.2351C49.4543 14.1752 48.9319 14.1741 48.1997 14.2931C46.7418 14.5301 44.3873 15.2546 40.4777 17.0442L40.8939 17.9535C44.7735 16.1776 47.033 15.4959 48.3602 15.2802C49.0204 15.1728 49.4332 15.1837 49.6908 15.2234C49.9357 15.2611 50.0582 15.3268 50.1546 15.3774L50.619 14.4918L50.619 14.4918ZM40.4778 17.0442C40.2591 17.1442 40.0565 17.2667 39.8705 17.4056L40.4687 18.2069C40.6017 18.1077 40.7436 18.0223 40.8938 17.9536L40.4778 17.0442L40.4778 17.0442ZM40.2994 17.3234C39.7665 17.1802 39.2219 17.0477 38.6738 16.9288L38.4617 17.906C38.9937 18.0215 39.5225 18.1501 40.0399 18.2891L40.2994 17.3234L40.2994 17.3234ZM39.2669 16.9289C39.1263 16.9164 38.8729 16.8962 38.774 16.8877L38.2669 17.8661C38.4895 17.8852 38.5654 17.8901 38.7441 17.9059L39.2669 16.9289L39.2669 16.9289ZM38.8248 17.585C39.4824 16.1484 39.8665 14.5879 39.9387 12.9769L38.9397 12.9322C38.8733 14.4131 38.5203 15.8476 37.9156 17.1688L38.8248 17.585L38.8248 17.585ZM39.9387 12.9769C39.9726 12.2193 39.386 11.5774 38.6281 11.5437L38.5836 12.5427C38.7894 12.5519 38.9489 12.7261 38.9397 12.9322L39.9387 12.9769L39.9387 12.9769ZM38.6307 11.5438C37.8707 11.506 37.2286 12.098 37.195 12.8542L38.194 12.8986C38.2032 12.6911 38.3798 12.5326 38.581 12.5426L38.6307 11.5438L38.6307 11.5438ZM37.195 12.854C37.0868 15.2711 36.0845 17.5447 34.372 19.2573L35.0791 19.9644C36.968 18.0753 38.0746 15.5656 38.194 12.8988L37.195 12.854L37.195 12.854ZM34.372 19.2573C33.349 20.2802 32.1517 21.023 30.8752 21.491L31.2194 22.4299C32.628 21.9135 33.9503 21.0932 35.0791 19.9644L34.372 19.2573L34.372 19.2573ZM31.1167 21.4653C28.7423 21.1321 26.3238 21.1321 23.9493 21.4653L24.0883 22.4556C26.3706 22.1353 28.6955 22.1353 30.9778 22.4556L31.1167 21.4653L31.1167 21.4653ZM24.1909 21.491C22.9143 21.023 21.7171 20.2802 20.6941 19.2573L19.987 19.9644C21.1158 21.0932 22.4379 21.9135 23.8467 22.4299L24.1909 21.491L24.1909 21.491ZM20.6941 19.2573C18.8667 17.4299 17.8613 15.0027 17.8613 12.4183L16.8613 12.4183C16.8613 15.2679 17.9721 17.9494 19.987 19.9644L20.6941 19.2573L20.6941 19.2573ZM17.8613 12.4183C17.8613 9.83383 18.8667 7.40678 20.6941 5.57937L19.987 4.87227C17.9721 6.8872 16.8613 9.56859 16.8613 12.4183L17.8613 12.4183L17.8613 12.4183ZM20.6941 5.57936C22.5215 3.75185 24.9488 2.74645 27.533 2.74645L27.533 1.74645C24.6836 1.74645 22.0019 2.85721 19.987 4.87228L20.6941 5.57936L20.6941 5.57936ZM27.533 2.74645C30.1173 2.74645 32.5446 3.75185 34.372 5.57936L35.0791 4.87228C33.0642 2.85721 30.3825 1.74645 27.533 1.74645L27.533 2.74645L27.533 2.74645ZM34.372 5.57937C35.1067 6.31413 35.7132 7.15182 36.1752 8.06907L37.0683 7.61921C36.5579 6.60592 35.8884 5.68158 35.0791 4.87227L34.372 5.57937L34.372 5.57937ZM36.1752 8.06901C36.5162 8.74635 37.342 9.01924 38.0195 8.67783L37.5694 7.78482C37.3856 7.87748 37.1611 7.8035 37.0683 7.61927L36.1752 8.06901L36.1752 8.06901ZM38.0192 8.67796C38.6968 8.33695 38.9693 7.5111 38.6282 6.83383L37.7351 7.28367C37.8278 7.46773 37.7537 7.69211 37.5697 7.7847L38.0192 8.67796L38.0192 8.67796ZM38.6282 6.83391C38.0342 5.65395 37.2553 4.57854 36.3142 3.63725L35.607 4.34431C36.4736 5.211 37.1894 6.19972 37.735 7.2836L38.6282 6.83391L38.6282 6.83391ZM36.3141 3.63723C33.9693 1.29241 30.8492 0 27.5332 0L27.5332 1C30.584 1 33.4497 2.18705 35.607 4.34433L36.3141 3.63723L36.3141 3.63723ZM27.5332 0C24.2172 0 21.097 1.29241 18.7522 3.63723L19.4593 4.34433C21.6166 2.18705 24.4824 1 27.5332 1L27.5332 0L27.5332 0ZM18.7522 3.63724C16.4074 5.98217 15.115 9.10219 15.115 12.4182L16.115 12.4182C16.115 9.36742 17.302 6.50174 19.4593 4.34433L18.7522 3.63724L18.7522 3.63724ZM15.115 12.4182C15.115 15.7342 16.4074 18.8544 18.7522 21.1992L19.4593 20.4921C17.302 18.3348 16.115 15.469 16.115 12.4182L15.115 12.4182L15.115 12.4182ZM18.7522 21.1992C19.4285 21.8755 20.1645 22.4574 20.9433 22.945L21.474 22.0974C20.7584 21.6494 20.0817 21.1145 19.4593 20.4921L18.7522 21.1992L18.7522 21.1992ZM21.5854 23.0212C21.6709 23.0212 21.7466 23.0199 21.8096 23.0182C21.8726 23.0165 21.9254 23.0143 21.9659 23.0125C22.0055 23.0106 22.0375 23.0088 22.0567 23.0077C22.0665 23.0072 22.0743 23.0067 22.0792 23.0064C22.0812 23.0063 22.0833 23.0061 22.0845 23.0061C22.0853 23.006 22.0857 23.006 22.0861 23.006C22.0861 23.006 22.0861 23.006 22.0865 23.006C22.0865 23.006 22.0865 23.006 22.0865 23.006C22.0865 23.006 22.0865 23.006 22.0865 23.006C22.089 23.0058 22.0747 23.0067 22.0575 23.0077C22.0387 23.0088 22.0068 23.0105 21.9671 23.0124C21.9274 23.0142 21.8742 23.0164 21.8116 23.0181C21.7491 23.0197 21.6738 23.0211 21.5883 23.0211L21.5883 22.0211C21.5024 22.0211 21.4267 22.0224 21.3637 22.0241C21.3011 22.0258 21.2479 22.0279 21.2078 22.0298C21.1678 22.0316 21.1359 22.0334 21.117 22.0345C21.1072 22.035 21.0994 22.0355 21.0945 22.0358C21.0921 22.036 21.09 22.0361 21.0888 22.0361C21.0884 22.0362 21.088 22.0362 21.0876 22.0362C21.0872 22.0362 21.0872 22.0363 21.0872 22.0363C21.0872 22.0363 21.0872 22.0363 21.0872 22.0363C21.0872 22.0363 21.0872 22.0363 21.0872 22.0363C21.0843 22.0364 21.099 22.0355 21.1162 22.0345C21.135 22.0334 21.1665 22.0317 21.2062 22.0298C21.2463 22.028 21.2991 22.0259 21.3617 22.0242C21.4242 22.0225 21.4999 22.0212 21.5854 22.0212L21.5854 23.0212L21.5854 23.0212ZM21.0836 22.0371C20.5305 22.1809 19.9807 22.3425 19.4362 22.5245L19.7533 23.4729C20.2746 23.2987 20.8024 23.1434 21.3351 23.005L21.0836 22.0371L21.0836 22.0371ZM19.4362 22.5245C18.7169 22.765 18.3288 23.5429 18.5693 24.2623L19.5177 23.9453C19.4523 23.7496 19.5578 23.5383 19.7533 23.4729L19.4362 22.5245L19.4362 22.5245ZM18.5693 24.2622C18.8097 24.9817 19.5879 25.3697 20.307 25.1294L19.99 24.1809C19.7945 24.2463 19.583 24.1407 19.5177 23.9453L18.5693 24.2622L18.5693 24.2622ZM20.307 25.1294C24.9662 23.5718 30.1002 23.5718 34.7593 25.1294L35.0764 24.181C30.2115 22.5546 24.8549 22.5546 19.9899 24.181L20.307 25.1294L20.307 25.1294ZM34.7594 25.1294C35.0894 25.1774 35.4266 25.2004 35.7594 25.2004L35.7594 24.2004C35.6705 24.2004 35.5791 24.1943 35.4872 24.1809L34.7594 25.1294L34.7594 25.1294ZM35.1948 25.2004C35.7687 25.2004 36.3046 24.8378 36.497 24.2624L35.5486 23.9452C35.4966 24.1008 35.3514 24.2004 35.1948 24.2004L35.1948 25.2004L35.1948 25.2004ZM36.497 24.2623C36.7375 23.5431 36.3494 22.765 35.6301 22.5245L35.313 23.4729C35.5085 23.5383 35.614 23.7497 35.5486 23.9452L36.497 24.2623L36.497 24.2623ZM35.6301 22.5245C35.0857 22.3425 34.5359 22.1808 33.9826 22.0371L33.7313 23.005C34.2639 23.1433 34.7917 23.2986 35.313 23.4729L35.6301 22.5245L35.6301 22.5245ZM34.2343 23.0211C34.1485 23.0211 34.0729 23.0197 34.0101 23.0181C33.9473 23.0164 33.8948 23.0143 33.8549 23.0124C33.8151 23.0106 33.7835 23.0089 33.765 23.0078C33.7478 23.0068 33.733 23.0059 33.7359 23.0061C33.7359 23.0061 33.7359 23.0061 33.7359 23.0061C33.7359 23.0061 33.7359 23.0061 33.7359 23.0061C33.7359 23.0061 33.7363 23.0061 33.7363 23.0061C33.7367 23.0061 33.7371 23.0061 33.7375 23.0062C33.7388 23.0063 33.7408 23.0064 33.7433 23.0065C33.7482 23.0068 33.756 23.0073 33.7654 23.0078C33.7843 23.0089 33.8163 23.0107 33.8562 23.0125C33.8964 23.0144 33.9494 23.0165 34.0122 23.0182C34.075 23.0199 34.1509 23.0212 34.2372 23.0212L34.2372 22.0212C34.3226 22.0212 34.3981 22.0225 34.4609 22.0242C34.5237 22.0258 34.5763 22.028 34.6165 22.0298C34.6559 22.0316 34.6875 22.0334 34.7064 22.0344C34.7232 22.0354 34.738 22.0363 34.7352 22.0362C34.7352 22.0362 34.7352 22.0362 34.7352 22.0362C34.7352 22.0362 34.7352 22.0362 34.7352 22.0361C34.7352 22.0361 34.7352 22.0361 34.7347 22.0361C34.7343 22.0361 34.7339 22.0361 34.7335 22.036C34.7323 22.036 34.7302 22.0358 34.7278 22.0357C34.7232 22.0354 34.715 22.0349 34.7056 22.0344C34.6867 22.0333 34.6547 22.0315 34.6149 22.0297C34.5746 22.0279 34.5217 22.0257 34.4589 22.0241C34.396 22.0224 34.3201 22.0211 34.2343 22.0211L34.2343 23.0211L34.2343 23.0211ZM34.123 22.945C34.9019 22.4573 35.6379 21.8754 36.3141 21.1992L35.607 20.4921C34.9846 21.1145 34.308 21.6494 33.5924 22.0974L34.123 22.945L34.123 22.945ZM36.3141 21.1992C36.9133 20.6 37.4415 19.9464 37.8996 19.2527L37.0652 18.7017C36.6427 19.3413 36.1568 19.9423 35.607 20.4921L36.3141 21.1992L36.3141 21.1992ZM37.387 19.468C37.646 19.5141 37.9029 19.5624 38.1556 19.6126L38.387 18.6354C38.126 18.5835 37.8614 18.5338 37.5951 18.4864L37.387 19.468L37.387 19.468ZM38.0914 19.6126C38.3997 19.6796 38.7071 19.7516 39.0122 19.8273L39.253 18.8567C38.9394 18.7789 38.6224 18.7046 38.3035 18.6354L38.0914 19.6126L38.0914 19.6126ZM38.6483 19.2179C38.6398 19.3144 38.6264 19.4636 38.6155 19.616L39.5942 20.2179C39.5995 20.1443 39.606 20.0716 39.617 19.9455L38.6483 19.2179L38.6483 19.2179ZM38.6156 19.3533C38.1772 21.4335 38.1971 23.3126 38.7107 24.9206L39.6633 24.6163C39.2162 23.2166 39.1808 21.521 39.5941 19.5595L38.6156 19.3533L38.6156 19.3533ZM38.7107 24.9206C39.1734 26.3693 40.014 27.554 41.2074 28.4271L41.7979 27.6201C40.7818 26.8767 40.064 25.8712 39.6633 24.6164L38.7107 24.9206L38.7107 24.9206ZM41.2074 28.4271C42.6072 29.4511 44.2865 29.8875 45.8006 29.8875L45.8006 28.8875C44.4668 28.8875 43.0022 28.501 41.7978 27.62L41.2074 28.4271L41.2074 28.4271ZM45.8006 29.8875C46.9374 29.8875 48.015 29.6413 48.8323 29.1784L48.3395 28.3083C47.7056 28.6673 46.8071 28.8875 45.8006 28.8875L45.8006 29.8875L45.8006 29.8875ZM48.8323 29.1784C49.8053 28.6273 50.5477 27.5145 51.1076 26.0018L50.1698 25.6546C49.641 27.0834 49.008 27.9296 48.3395 28.3083L48.8323 29.1784L48.8323 29.1784ZM50.259 26.1535C50.5024 26.4376 50.7328 26.7283 50.9496 27.0254L51.7574 26.4359C51.5247 26.1171 51.2782 25.8061 51.0184 25.5029L50.259 26.1535L50.259 26.1535ZM50.9497 27.0255C51.8291 28.2303 52.5001 29.5575 52.9444 30.9703L53.8984 30.6703C53.4212 29.1529 52.7006 27.7281 51.7574 26.4359L50.9497 27.0255L50.9497 27.0255ZM52.9444 30.9703C53.2634 31.9848 54.0555 32.7842 55.0655 33.1079L55.3707 32.1556C54.6719 31.9316 54.1205 31.3768 53.8984 30.6703L52.9444 30.9703L52.9444 30.9703ZM55.0656 33.1079L57.5233 33.8952L57.8283 32.9429L55.3707 32.1556L55.0656 33.1079L55.0656 33.1079ZM57.5232 33.8952C57.9612 34.0355 58.2539 34.4366 58.2539 34.8963L59.2539 34.8963C59.2539 34.0017 58.6801 33.2158 57.8283 32.9429L57.5232 33.8952L57.5232 33.8952ZM58.2539 34.8963L58.2539 38.9715L59.2539 38.9715L59.2539 34.8963L58.2539 34.8963L58.2539 34.8963ZM58.2539 38.9715C58.2539 39.4311 57.9612 39.8323 57.5232 39.9726L57.8283 40.9249C58.6801 40.652 59.2539 39.866 59.2539 38.9715L58.2539 38.9715L58.2539 38.9715ZM57.5233 39.9726L53.5636 41.2409L53.8687 42.1932L57.8283 40.9249L57.5233 39.9726L57.5233 39.9726ZM53.5635 41.2409C52.8092 41.4827 52.1745 42.0001 51.7737 42.6927L52.6393 43.1935C52.9185 42.7109 53.356 42.3576 53.8688 42.1932L53.5635 41.2409L53.5635 41.2409ZM51.7738 42.6927C50.274 45.2846 47.9059 47.4484 44.7059 49.1121L45.1672 49.9994C48.5042 48.2644 51.0278 45.9786 52.6393 43.1935L51.7738 42.6927L51.7738 42.6927ZM44.7057 49.1122C44.1928 49.3792 43.8347 49.8595 43.7274 50.4273L44.71 50.6131C44.7601 50.3479 44.9252 50.1253 45.1674 49.9993L44.7057 49.1122L44.7057 49.1122ZM43.7274 50.4274L42.4592 57.1426L43.4418 57.3282L44.71 50.613L43.7274 50.4274L43.7274 50.4274ZM42.4592 57.1424C42.4691 57.0912 42.5142 57.0546 42.5669 57.0546L42.5669 58.0546C43.003 58.0546 43.3781 57.7497 43.4592 57.3284L42.4592 57.1424L42.4592 57.1424ZM42.565 57.0546L38.4416 57.0546L38.4416 58.0546L42.565 58.0546L42.565 57.0546L42.565 57.0546ZM38.4572 57.0546C38.51 57.0546 38.555 57.0912 38.5649 57.1423L37.5649 57.3285C37.646 57.7494 38.021 58.0546 38.4572 58.0546L38.4572 57.0546L38.4572 57.0546ZM38.5474 57.1424L37.845 53.4312L36.8624 53.6172L37.5649 57.3284L38.5474 57.1424L38.5474 57.1424ZM37.845 53.4311C37.6565 52.4359 36.7209 51.7744 35.7186 51.9263L35.8684 52.915C36.3403 52.8435 36.7744 53.1521 36.8624 53.6172L37.845 53.4311L37.845 53.4311ZM35.7187 51.9262C33.9678 52.191 32.1625 52.3253 30.3539 52.3253L30.3539 53.3253C32.2115 53.3253 34.0668 53.1874 35.8682 52.915L35.7187 51.9262L35.7187 51.9262ZM30.3539 52.3253C29.0084 52.3253 27.6813 52.2502 26.4096 52.1024L26.2942 53.0958C27.606 53.2482 28.9717 53.3253 30.3539 53.3253L30.3539 52.3253L30.3539 52.3253ZM26.409 52.1024C25.4363 51.9905 24.5301 52.6515 24.3475 53.6161L25.3301 53.8021C25.4145 53.3562 25.839 53.0434 26.2948 53.0958L26.409 52.1024L26.409 52.1024ZM24.3475 53.6161L23.68 57.1424L24.6626 57.3284L25.3301 53.8021L24.3475 53.6161L24.3475 53.6161ZM23.68 57.1424C23.6899 57.0912 23.7351 57.0546 23.7878 57.0546L23.7878 58.0546C24.2238 58.0546 24.5988 57.7497 24.68 57.3284L23.68 57.1424L23.68 57.1424ZM23.7859 57.0546L19.6624 57.0546L19.6624 58.0546L23.7859 58.0546L23.7859 57.0546L23.7859 57.0546ZM19.6779 57.0546C19.733 57.0546 19.7762 57.0934 19.7852 57.1397L18.7852 57.3255C18.8664 57.7473 19.2395 58.0546 19.6779 58.0546L19.6779 57.0546L19.6779 57.0546ZM19.7675 57.1381L18.5464 50.7956L17.5644 50.9847L18.7855 57.3271L19.7675 57.1381L19.7675 57.1381ZM18.5464 50.7957C18.4391 50.238 18.088 49.7637 17.5864 49.4958L17.1153 50.3779C17.3523 50.5044 17.5144 50.725 17.5644 50.9846L18.5464 50.7957L18.5464 50.7957ZM17.5863 49.4958C12.1812 46.6103 9.33438 41.8128 9.33438 35.5667L8.33438 35.5667C8.33438 42.1738 11.3774 47.3148 17.1154 50.3779L17.5863 49.4958L17.5863 49.4958ZM9.33438 35.5667C9.33438 32.3933 10.0282 29.6115 11.3783 27.2834L10.5132 26.7817C9.0613 29.2855 8.33438 32.2461 8.33438 35.5667L9.33438 35.5667L9.33438 35.5667ZM11.3783 27.2834C12.6379 25.111 14.4815 23.307 16.8714 21.9246L16.3707 21.059C13.8436 22.5207 11.8682 24.4449 10.5132 26.7817L11.3783 27.2834L11.3783 27.2834ZM16.8714 21.9246C17.5279 21.5447 17.7521 20.7048 17.3725 20.0483L16.5068 20.5489C16.61 20.7275 16.549 20.9558 16.3706 21.059L16.8714 21.9246L16.8714 21.9246ZM17.3725 20.0483C16.9926 19.3915 16.1526 19.168 15.4965 19.547L15.9966 20.4129C16.1756 20.3096 16.4038 20.3709 16.5068 20.5489L17.3725 20.0483L17.3725 20.0483ZM15.4962 19.5472C10.597 22.3812 7.63174 26.7683 6.81798 32.323L7.80741 32.468C8.57686 27.2157 11.362 23.094 15.9969 20.4128L15.4962 19.5472L15.4962 19.5472ZM7.8127 33.3954L7.8127 32.3954L6.8127 32.3954L6.8127 33.3954L7.8127 33.3954L7.8127 33.3954ZM8.00927 31.8974C7.75985 31.8896 7.53304 31.8827 7.30462 31.8745L7.00927 32.8692C7.26159 32.8783 7.51755 32.886 7.75024 32.8933L8.00927 31.8974L8.00927 31.8974ZM7.56057 32.3849C7.57763 31.732 7.45928 31.0758 7.20469 30.443L6.27695 30.8162C6.48174 31.3253 6.57432 31.8457 6.56091 32.3588L7.56057 32.3849L7.56057 32.3849ZM7.20469 30.443C6.6482 29.0597 5.48003 27.9952 4.1557 27.8185L4.02344 28.8097C4.90716 28.9276 5.82024 29.6809 6.27695 30.8162L7.20469 30.443L7.20469 30.443ZM4.15592 27.8185C3.08915 27.6757 2.09019 28.1368 1.41839 29.0244L2.21575 29.6279C2.69309 28.9972 3.34999 28.7195 4.02322 28.8097L4.15592 27.8185L4.15592 27.8185ZM1.41837 29.0244C0.954175 29.6378 0.73772 30.2181 0.690564 30.7478C0.643497 31.2764 0.768222 31.719 0.93046 32.0534L1.83016 31.6169C1.7319 31.4143 1.65846 31.1528 1.68662 30.8364C1.7147 30.5211 1.84688 30.1153 2.21577 29.6279L1.41837 29.0244L1.41837 29.0244ZM0.930489 32.0534C1.47844 33.1825 2.82034 33.8658 4.72167 34.2742L4.93169 33.2965C3.08091 32.8989 2.16179 32.3002 1.83014 31.6168L0.930489 32.0534L0.930489 32.0534ZM4.41424 33.5077C4.36983 33.5868 4.32031 33.6674 4.26528 33.7495L5.06552 34.5077C5.13759 34.4002 5.20417 34.292 5.26528 34.1832L4.41424 33.5077L4.41424 33.5077ZM4.26535 33.7064C3.26844 34.9566 2.11494 35.2197 1.37685 35.2449L1.41096 36.2443C2.36881 36.2116 3.82719 35.8599 5.04723 34.3298L4.26535 33.7064L4.26535 33.7064ZM1.37704 35.2449C0.620041 35.2704 0 35.8816 0 36.6567L1 36.6567C1 36.4383 1.17496 36.2523 1.41078 36.2443L1.37704 35.2449L1.37704 35.2449ZM0 36.6567L0 37.6567L1 37.6567L1 36.6567L0 36.6567L0 36.6567ZM0 36.6609C0 37.4217 0.600347 38.0379 1.35325 38.0723L1.39893 37.0734C1.17286 37.063 1 36.88 1 36.6609L0 36.6609L0 36.6609ZM1.35276 38.0723C1.67505 38.0756 2.00862 38.0773 2.35276 38.0773L2.35276 37.0773C2.07616 37.0773 1.81349 37.0759 1.56517 37.0734L1.35276 38.0723L1.35276 38.0723ZM1.5725 38.0773C2.7871 38.0773 4.6572 37.6203 6.4129 35.4187L5.63108 34.7952C4.07788 36.7429 2.50384 37.0773 1.5725 37.0773L1.5725 38.0773L1.5725 38.0773ZM6.41285 35.4188C6.69847 35.0608 6.93299 34.6807 7.11415 34.2855L6.20507 33.8688C6.05904 34.1875 5.86794 34.4983 5.63113 34.7952L6.41285 35.4188L6.41285 35.4188ZM6.60342 34.574C6.8957 34.5931 7.17593 34.6093 7.44341 34.6236L7.60342 33.6279C7.34535 33.6141 7.0769 33.5985 6.79814 33.5803L6.60342 34.574L6.60342 34.574ZM7.63434 34.4697C7.63434 34.4523 7.63479 34.5332 7.63187 34.6256C7.62817 34.7425 7.62036 34.857 7.60879 34.9667L6.66011 33.9667C6.6324 34.2297 6.63434 34.4539 6.63434 34.4697L7.63434 34.4697L7.63434 34.4697ZM6.63544 34.0935C6.60507 34.5763 6.58816 35.0669 6.58816 35.5667L7.58816 35.5667C7.58816 35.0895 7.6043 34.6198 7.63347 34.1562L6.63544 34.0935L6.63544 34.0935ZM6.58816 35.5667C6.58816 39.2844 7.47524 42.6198 9.23942 45.4664L10.0894 44.9397C8.43476 42.2698 7.58816 39.1213 7.58816 35.5667L6.58816 35.5667L6.58816 35.5667ZM9.23943 45.4665C10.8655 48.09 13.1895 50.2299 16.1349 51.8332L16.613 50.9549C13.8051 49.4265 11.6156 47.402 10.0894 44.9396L9.23943 45.4665L9.23943 45.4665ZM15.883 51.4886L17.0701 57.6545L18.0521 57.4655L16.865 51.2995L15.883 51.4886L15.883 51.4886ZM17.0698 57.653C17.3054 58.8978 18.3954 59.8009 19.6624 59.8009L19.6624 58.8009C18.876 58.8009 18.1986 58.2397 18.0524 57.467L17.0698 57.653L17.0698 57.653ZM19.6624 59.8009L23.7859 59.8009L23.7859 58.8009L19.6624 58.8009L19.6624 59.8009L19.6624 59.8009ZM23.7859 59.8009C25.0528 59.8009 26.1429 58.8978 26.3784 57.653L25.3959 57.467C25.2496 58.2397 24.5722 58.8009 23.7859 58.8009L23.7859 59.8009L23.7859 59.8009ZM26.3784 57.653L26.9819 54.4646L25.9994 54.2786L25.3959 57.467L26.3784 57.653L26.3784 57.653ZM26.438 54.8688C27.7096 55.0035 29.0249 55.0716 30.3538 55.0716L30.3538 54.0716C29.0587 54.0716 27.7786 54.0052 26.5433 53.8743L26.438 54.8688L26.438 54.8688ZM30.3538 55.0716C32.1768 55.0716 33.998 54.9446 35.7738 54.6938L35.6339 53.7036C33.9053 53.9478 32.1307 54.0716 30.3538 54.0716L30.3538 55.0716L30.3538 55.0716ZM35.2126 54.2917L35.8488 57.6532L36.8313 57.4673L36.1951 54.1057L35.2126 54.2917L35.2126 54.2917ZM35.8488 57.6533C36.0845 58.8981 37.1745 59.8011 38.4413 59.8011L38.4413 58.8011C37.655 58.8011 36.9776 58.2399 36.8313 57.4672L35.8488 57.6533L35.8488 57.6533ZM38.4413 59.8011L42.5648 59.8011L42.5648 58.8011L38.4413 58.8011L38.4413 59.8011L38.4413 59.8011ZM42.5648 59.8011C43.8318 59.8011 44.9218 58.8979 45.1575 57.6528L44.1749 57.4668C44.0286 58.2399 43.3511 58.8011 42.5648 58.8011L42.5648 59.8011L42.5648 59.8011ZM45.1575 57.6526L46.3923 51.1146L45.4097 50.929L44.1749 57.467L45.1575 57.6526L45.1575 57.6526ZM46.1347 51.4638C49.6924 49.5825 52.3974 47.0982 54.1507 44.0681L53.2851 43.5672C51.6404 46.4097 49.0865 48.7717 45.6673 50.5798L46.1347 51.4638L46.1347 51.4638ZM54.1507 44.0681C54.2149 43.957 54.307 43.8867 54.4013 43.8565L54.0962 42.9042C53.7509 43.0148 53.4658 43.255 53.2851 43.5672L54.1507 44.0681L54.1507 44.0681ZM54.4013 43.8565L58.3608 42.5882L58.0558 41.6358L54.0962 42.9041L54.4013 43.8565L54.4013 43.8565ZM58.3609 42.5881C59.9386 42.0825 61 40.6281 61 38.9713L60 38.9713C60 40.1933 59.2195 41.2628 58.0557 41.6359L58.3609 42.5881L58.3609 42.5881ZM61 38.9713L61 34.8961L60 34.8961L60 38.9713L61 38.9713L61 38.9713ZM61 34.8961C61 33.2394 59.9385 31.7849 58.3608 31.2795L58.0557 32.2318C59.2195 32.6046 60 33.6742 60 34.8961L61 34.8961L61 34.8961ZM49.3719 21.3198C49.2075 22.7254 48.9058 24.0192 48.541 25.0141C48.3584 25.5119 48.1643 25.9235 47.9708 26.2331C47.7715 26.552 47.5992 26.7203 47.4786 26.7886L47.9714 27.6587C48.3038 27.4705 48.5839 27.1391 48.8189 26.7629C49.0598 26.3774 49.2818 25.8985 49.4799 25.3583C49.8764 24.277 50.1934 22.9046 50.3651 21.436L49.3719 21.3198L49.3719 21.3198ZM47.4786 26.7886C47.0735 27.0181 46.3271 27.1861 45.4452 27.1282C44.5753 27.0711 43.6307 26.7971 42.8287 26.2104L42.2383 27.0175C43.2211 27.7364 44.3574 28.0589 45.3797 28.126C46.39 28.1924 47.3469 28.0125 47.9715 27.6587L47.4786 26.7886L47.4786 26.7886ZM42.8287 26.2104C41.269 25.0694 40.6607 22.9668 41.3027 19.9194L40.3242 19.7133C39.6431 22.9458 40.2243 25.5442 42.2383 27.0175L42.8287 26.2104L42.8287 26.2104ZM41.3134 20.8162C41.3134 20.8162 41.3134 20.8162 41.3134 20.8162C41.3134 20.8162 41.3134 20.8162 41.3134 20.8162C41.3134 20.8162 41.3134 20.8162 41.3134 20.8162C41.3134 20.8162 41.3134 20.8162 41.3134 20.8162C41.3134 20.8162 41.3134 20.8162 41.3134 20.8162C41.3134 20.8162 41.3134 20.8162 41.3134 20.8162C41.3134 20.8162 41.3134 20.8162 41.3134 20.8162C41.3134 20.8162 41.3134 20.8162 41.3134 20.8162C41.3134 20.8162 41.3134 20.8162 41.3134 20.8162C41.3134 20.8162 41.3134 20.8162 41.3134 20.8162C41.3134 20.8162 41.3134 20.8162 41.3134 20.8162C41.3134 20.8162 41.3134 20.8162 41.3134 20.8162C41.3134 20.8162 41.3134 20.8162 41.3134 20.8162C41.3134 20.8162 41.3134 20.8162 41.3134 20.8162C41.3134 20.8162 41.3134 20.8162 41.3134 20.8162C41.3134 20.8162 41.3134 20.8162 41.3134 20.8162C41.3134 20.8162 41.3134 20.8162 41.3134 20.8162C41.3134 20.8162 41.3134 20.8162 41.3134 20.8162C41.3134 20.8162 41.3134 20.8162 41.3134 20.8162C41.3134 20.8162 41.3134 20.8162 41.3134 20.8162C41.3134 20.8162 41.3134 20.8162 41.3134 20.8162C41.3134 20.8162 41.3134 20.8162 41.3134 20.8162C41.3134 20.8162 41.3134 20.8162 41.3134 20.8162C41.3134 20.8162 41.3134 20.8162 41.3134 20.8162C41.3134 20.8162 41.3134 20.8162 41.3134 20.3114C41.3134 20.3114 41.3134 20.3114 41.3134 20.3114C41.3134 20.3114 41.3134 20.3114 41.3134 20.3114C41.3134 20.3114 41.3134 20.3114 41.3134 20.3114C41.3134 20.3114 41.3134 20.3114 41.3134 20.3114C41.3134 20.3114 41.3134 20.3114 41.3134 20.3114C41.3134 20.3114 41.3134 20.3114 41.3134 20.3114C41.3134 20.3114 41.3134 20.3114 41.3134 20.3114C41.3134 20.3114 41.3134 20.3114 41.3134 20.3114C41.3134 20.3114 41.3134 20.3114 41.3134 20.3114C41.3134 20.3114 41.3134 20.3114 41.3134 20.3114C41.3134 20.3114 41.3134 20.3114 41.3134 20.3114C41.3134 20.3114 41.3134 20.3114 41.3134 20.3114C41.3134 20.3114 41.3134 20.3114 41.3134 20.3114C41.3134 20.3114 41.3134 20.3114 41.3134 20.3114C41.3134 20.3114 41.3134 20.3114 41.3134 20.3114C41.3134 20.3114 41.3134 20.3114 41.3134 20.3114C41.3134 20.3114 41.3134 20.3114 41.3134 20.3114C41.3134 20.3114 41.3134 20.3114 41.3134 20.3114C41.3134 20.3114 41.3134 20.3114 41.3134 20.3114C41.3134 20.3114 41.3134 20.3114 41.3134 20.3114C41.3134 20.3114 41.3134 20.3114 41.3134 20.3114C41.3134 20.3114 41.3134 20.3114 41.3134 20.3114C41.3134 20.3114 41.3134 20.3114 41.3134 20.3114C41.3134 20.3114 41.3134 20.3114 41.3134 20.3114C41.3134 20.3114 41.3134 20.3114 41.3134 20.3114C41.3134 20.3114 41.3134 20.3114 41.3134 20.3114C41.3134 20.3114 41.3134 20.3114 41.3134 20.3114C41.3134 20.3114 41.3134 20.3114 41.3134 20.3114C41.3134 20.3114 41.3134 20.3114 41.3134 20.3114C41.3134 20.3114 41.3134 20.3114 41.3134 20.3114C41.3134 20.3114 41.3134 20.3114 41.3134 20.3114C41.3134 20.3114 41.3134 20.3114 41.3134 20.3114C41.3134 20.3114 41.3134 20.3114 41.3134 20.3114C41.3134 20.3114 41.3134 20.3114 41.3134 20.3114C41.3134 20.3114 41.3134 20.3114 41.3134 20.3114C41.3134 20.3114 41.3134 20.3114 41.3134 20.3114C41.3134 20.3114 41.3134 20.3114 41.3134 20.3114C41.3134 20.3114 41.3134 20.3114 41.3134 20.3114C41.3134 20.3114 41.3134 20.3114 41.3134 20.3114C41.3134 20.3114 41.3134 20.3114 41.3134 20.3114C41.3134 20.3114 41.3134 20.3114 41.3134 20.3114C41.3134 20.3114 41.3134 20.3114 41.3134 20.3114C41.3134 20.3114 41.3134 20.3114 41.3134 20.3114C41.3134 20.3114 41.3134 20.3114 41.3134 20.3114C41.3134 20.3114 41.3134 20.3114 41.3134 20.3114C41.3134 20.3114 41.3134 20.3114 41.3134 20.3114C41.3134 20.3114 41.3134 20.3114 41.3134 20.3114C41.3134 20.3114 41.3134 20.3114 41.3134 20.3114C41.3134 20.3114 41.3134 20.3114 41.3134 20.3114C41.3134 20.3114 41.3134 20.3114 41.3134 20.3114C41.3134 20.3114 41.3134 20.3114 41.3134 20.3114C41.3134 20.3114 41.3134 20.3114 41.3134 20.3114C41.3134 20.3114 41.3134 20.3114 41.3134 20.3114C41.3134 20.3114 41.3134 20.3114 41.3134 20.3114C41.3134 20.3114 41.3134 20.3114 41.3134 20.3114C41.3134 20.3114 41.3134 20.3114 41.3134 20.3114C41.3134 20.3114 41.3134 20.3114 41.3134 20.3114C41.3134 20.3114 41.3134 20.3114 41.3134 20.3114C41.3134 20.3114 41.3134 20.3114 41.3134 20.3114C41.3134 20.3114 41.3134 20.3114 41.3134 20.3114C41.3134 20.3114 41.3134 20.3114 41.3134 20.3114C41.3134 20.3114 41.3134 20.3114 41.3134 20.3114C41.3134 20.3114 41.3134 20.3114 41.3134 20.3114C41.3134 20.3114 41.3134 20.3114 41.3134 20.3114C41.3134 20.3114 41.3134 20.3114 41.3134 20.3114C41.3134 20.3114 41.3134 20.3114 41.3134 20.3114C41.3134 20.3114 41.3134 20.3114 41.3134 20.3114C41.3134 20.3114 41.3134 20.3114 41.3134 20.3114C41.3134 20.3114 41.3134 20.3114 41.3134 20.3114C41.3134 20.3114 41.3134 20.3114 41.3134 20.3114C41.3134 20.3114 41.3134 20.3114 41.3134 20.3114C41.3134 20.3114 41.3134 20.3114 41.3134 20.3114C41.3134 20.3114 41.3134 20.3114 41.3134 20.3114C41.3134 20.3114 41.3134 20.3114 41.3134 20.3114C41.3134 20.3114 41.3134 20.3114 41.3134 20.3114C41.3134 20.3114 41.3134 20.3114 41.3134 20.3114C41.3134 20.3114 41.3134 20.3114 41.3134 20.3114C41.3134 20.3114 41.3134 20.3114 41.3134 20.3114C41.3134 20.3114 41.3134 20.3114 41.3134 20.3114C41.3134 20.3114 41.3134 20.3114 41.3134 20.3114C41.3134 20.3114 41.3134 20.3114 41.3134 20.3114C41.3134 20.3114 41.3134 20.3114 41.3134 20.3114C41.3134 20.3114 41.3134 20.3114 41.3134 20.3114C41.3134 20.3114 41.3134 20.3114 41.3134 20.3114C41.3134 20.3114 41.3134 20.3114 41.3134 20.3114C41.3134 20.3114 41.3134 20.3114 41.3134 20.3114C41.3134 20.3114 41.3134 20.3114 41.3134 20.3114C41.3134 20.3114 41.3134 20.3114 41.3134 20.3114C41.3134 20.3114 41.3134 20.3114 41.3134 20.3114C41.3134 20.3114 41.3134 20.3114 41.3134 20.3114C41.3134 20.3114 41.3134 20.3114 41.3134 20.3114C41.3134 20.3114 41.3134 20.3114 41.3134 20.3114C41.3134 20.3114 41.3134 20.3114 41.3134 20.3114C41.3134 20.3114 41.3134 20.3114 41.3134 20.3114C41.3134 20.3114 41.3134 20.3114 41.3134 20.3114C41.3134 20.3114 41.3134 20.3114 41.3134 20.3114C41.3134 20.3114 41.3134 20.3114 41.3134 20.3114C41.3134 20.3114 41.3134 20.3114 41.3134 20.3114C41.3134 20.3114 41.3134 20.3114 41.3134 20.3114C41.3134 20.3114 41.3134 20.3114 41.3134 20.3114C41.3134 20.3114 41.3134 20.3114 41.3134 20.3114C41.3134 20.3114 41.3134 20.3114 41.3134 20.3114C41.3134 20.3114 41.3134 20.3114 41.3134 20.3114C41.3134 20.3114 41.3134 20.3114 41.3134 20.3114C41.3134 20.3114 41.3134 20.3114 41.3134 20.3114C41.3134 20.3114 41.3134 20.3114 41.3134 20.3114C41.3134 20.3114 41.3134 20.3114 41.3134 20.3114C41.3134 20.3114 41.3134 20.3114 41.3134 20.3114C41.3134 20.3114 41.3134 20.3114 41.3134 20.3114C41.3134 20.3114 41.3134 20.3114 41.3134 20.3114C41.3134 20.3114 41.3134 20.3114 41.3134 20.3114C41.3134 20.3114 41.3134 20.3114 41.3134 20.3114C41.3134 20.3114 41.3134 20.3114 41.3134 20.3114C41.3134 20.3114 41.3134 20.3114 41.3134 20.3114C41.3134 20.3114 41.3134 20.3114 41.3134 20.3114C41.3134 20.3114 41.3134 20.3114 41.3134 20.3114C41.3134 20.3114 41.3134 20.3114 41.3134 20.3114C41.3134 20.3114 41.3134 20.3114 41.3134 20.3114C41.3134 20.3114 41.3134 20.3114 41.3134 20.3114C41.3134 20.3114 41.3134 20.3114 41.3134 20.3114C41.3134 20.3114 41.3134 20.3114 41.3134 20.3114C41.3134 20.3114 41.3134 20.3114 41.3134 20.3114C41.3134 20.3114 41.3134 20.3114 41.3134 20.3114C41.3134 20.3114 41.3134 20.3114 41.3134 20.3114C41.3134 20.3114 41.3134 20.3114 41.3134 20.3114C41.3134 20.3114 41.3134 20.3114 41.3134 20.3114C41.3134 20.3114 41.3134 20.3114 41.3134 20.3114C41.3134 20.3114 41.3134 20.3114 41.3134 20.3114C41.3134 20.3114 41.3134 20.3114 41.3134 20.3114C41.3134 20.3114 41.3134 20.3114 41.3134 20.3114C41.3134 20.3114 41.3134 20.3114 41.3134 20.3114C41.3134 20.3114 41.3134 20.3114 41.3134 20.3114C41.3134 20.3114 41.3134 20.3114 41.3134 20.3114C41.3134 20.3114 41.3134 20.3114 41.3134 20.3114C41.3134 20.3114 41.3134 20.3114 41.3134 20.3114C41.3134 20.3114 41.3134 20.3114 41.3134 20.3114C41.3134 20.3114 41.3134 20.3114 41.3134 20.3114C41.3134 20.3114 41.3134 20.3114 41.3134 20.3114C41.3134 20.3114 41.3134 20.3114 41.3134 20.3114C41.3134 20.3114 41.3134 20.3114 41.3134 20.3114C41.3134 20.3114 41.3134 20.3114 41.3134 20.3114C41.3134 20.3114 41.3134 20.3114 41.3134 20.3114C41.3134 20.3114 41.3134 20.3114 41.3134 20.3114C41.3134 20.3114 41.3134 20.3114 41.3134 20.3114C41.3134 20.3114 41.3134 20.3114 41.3134 20.3114C41.3134 20.3114 41.3134 20.3114 41.3134 20.3114C41.3134 20.3114 41.3134 20.3114 41.3134 20.3114C41.3134 20.3114 41.3134 20.3114 41.3134 20.3114C41.3134 20.3114 41.3134 20.3114 41.3134 20.3114C41.3134 20.3114 41.3134 20.3114 41.3134 20.3114C41.3134 20.3114 41.3134 20.3114 41.3134 20.3114C41.3134 20.3114 41.3134 20.3114 41.3134 20.3114C41.3134 20.3114 41.3134 20.3114 41.3134 20.3114C41.3134 20.3114 41.3134 20.3114 41.3134 20.3114C41.3134 20.3114 41.3134 20.3114 41.3134 20.3114C41.3134 20.3114 41.3134 20.3114 41.3134 20.3114C41.3134 20.3114 41.3134 20.3114 41.3134 20.3114C41.3134 20.3114 41.3134 20.3114 41.3134 20.3114C41.3134 20.3114 41.3134 20.3114 41.3134 20.3114C41.3134 20.3114 41.3134 20.3114 41.3134 20.3114C41.3134 20.3114 41.3134 20.3114 41.3134 20.3114C41.3134 20.3114 41.3134 20.3114 41.3134 20.3114C41.3134 20.3114 41.3134 20.3114 41.3134 20.3114C41.3134 20.3114 41.3134 20.3114 41.3134 20.3114C41.3134 20.3114 41.3134 20.3114 41.3134 20.3114C41.3134 20.3114 41.3134 20.3114 41.3134 20.3114C41.3134 20.3114 41.3134 20.3114 41.3134 20.3114C41.3134 20.3114 41.3134 20.3114 41.3134 20.3114C41.3134 20.3114 41.3134 20.3114 41.3134 20.3114C41.3134 20.3114 41.3134 20.3114 41.3134 20.3114C41.3134 20.3114 41.3134 20.3114 41.3134 20.3114C41.3134 20.3114 41.3134 20.3114 41.3134 20.3114C41.3134 20.3114 41.3134 20.3114 41.3134 20.3114C41.3134 20.3114 41.3134 20.3114 41.3134 20.3114C41.3134 20.3114 41.3134 20.3114 41.3134 20.3114C41.3134 20.3114 41.3134 20.3114 41.3134 20.3114C41.3134 20.3114 41.3134 20.3114 41.3134 20.3114C41.3134 20.3114 41.3134 20.3114 41.3134 20.3114C41.3134 20.3114 41.3134 20.3114 41.3134 20.3114C41.3134 20.3114 41.3134 20.3114 41.3134 20.3114C41.3134 20.3114 41.3134 20.3114 41.3134 20.3114C41.3134 20.3114 41.3134 20.3114 41.3134 20.3114C41.3134 20.3114 41.3134 20.3114 41.3134 20.3114C41.3134 20.3114 41.3134 20.3114 41.3134 20.3114C41.3134 20.3114 41.3134 20.3114 41.3134 20.3114C41.3134 20.3114 41.3134 20.3114 41.3134 20.3114C41.3134 20.3114 41.3134 20.3114 41.3134 20.3114C41.3134 20.3114 41.3134 20.3114 41.3134 20.3114C41.3134 20.3114 41.3134 20.3114 41.3134 20.3114C41.3134 20.3114 41.3134 20.3114 41.3134 20.3114C41.3134 20.3114 41.3134 20.3114 41.3134 20.3114C41.3134 20.3114 41.3134 20.3114 41.3134 20.3114C41.3134 20.3114 41.3134 20.3114 41.3134 20.3114C41.3134 20.3114 41.3134 20.3114 41.3134 20.3114C41.3134 20.3114 41.3134 20.3114 41.3134 20.3114C41.3134 20.3114 41.3134 20.3114 41.3134 20.3114C41.3134 20.3114 41.3134 20.3114 41.3134 20.3114C41.3134 20.3114 41.3134 20.3114 41.3134 20.3114C41.3134 20.3114 41.3134 20.3114 41.3134 20.3114C41.3134 20.3114 41.3134 20.3114 41.3134 20.3114C41.3134 20.3114 41.3134 20.3114 41.3134 20.3114C41.3134 20.3114 41.3134 20.3114 41.3134 20.3114C41.3134 20.3114 41.3134 20.3114 41.3134 20.3114C41.3134 20.3114 41.3134 20.3114 41.3134 20.3114C41.3134 20.3114 41.3134 20.3114 41.3134 20.3114C41.3134 20.3114 41.3134 20.3114 41.3134 20.3114C41.3134 20.3114 41.3134 20.3114 41.3134 20.3114C41.3134 20.3114 41.3134 20.3114 41.3134 20.3114C41.3134 20.3114 41.3134 20.3114 41.3134 20.3114C41.3134 20.3114 41.3134 20.3114 41.3134 20.3114C41.3134 20.3114 41.3134 20.3114 41.3134 20.3114C41.3134 20.3114 41.3134 20.3114 41.3134 20.3114C41.3134 20.3114 41.3134 20.3114 41.3134 20.3114C41.3134 20.3114 41.3134 20.3114 41.3134 20.3114C41.3134 20.3114 41.3134 20.3114 41.3134 20.3114C41.3134 20.3114 41.3134 20.3114 41.3134 20.3114C41.3134 20.3114 41.3134 20.3114 41.3134 20.3114C41.3134 20.3114 41.3134 20.3114 41.3134 20.3114C41.3134 20.3114 41.3134 20.3114 41.3134 20.3114C41.3134 20.3114 41.3134 20.3114 41.3134 20.3114C41.3134 20.3114 41.3134 20.3114 41.3134 20.3114C41.3134 20.3114 41.3134 20.3114 41.3134 20.3114C41.3134 20.3114 41.3134 20.3114 41.3134 20.3114C41.3134 20.3114 41.3134 20.3114 41.3134 20.3114C41.3134 20.3114 41.3134 20.3114 41.3134 20.3114C41.3134 20.3114 41.3134 20.3114 41.3134 20.3114C41.3134 20.3114 41.3134 20.3114 41.3134 20.3114C41.3134 20.3114 41.3134 20.3114 41.3134 20.3114C41.3134 20.3114 41.3134 20.3114 41.3134 20.3114C41.3134 20.3114 41.3134 20.3114 41.3134 20.3114C41.3134 20.3114 41.3134 20.3114 41.3134 20.3114C41.3134 20.3114 41.3134 20.3114 41.3134 20.3114C41.3134 20.3114 41.3134 20.3114 41.3134 20.3114C41.3134 20.3114 41.3134 20.3114 41.3134 20.3114C41.3134 20.3114 41.3134 20.3114 41.3134 20.3114C41.3134 20.3114 41.3134 20.3114 41.3134 20.3114C41.3134 20.3114 41.3134 20.3114 41.3134 20.3114C41.3134 20.3114 41.3134 20.3114 41.3134 20.3114C41.3134 20.3114 41.3134 20.3114 41.3134 20.3114C41.3134 20.3114 41.3134 20.3114 41.3134 20.3114C41.3134 20.3114 41.3134 20.3114 41.3134 20.3114C41.3134 20.3114 41.3134 20.3114 41.3134 20.3114C41.3134 20.3114 41.3134 20.3114 41.3134 20.3114C41.3134 20.3114 41.3134 20.3114 41.3134 20.3114C41.3134 20.3114 41.3134 20.3114 41.3134 20.3114C41.3134 20.3114 41.3134 20.3114 41.3134 20.3114C41.3134 20.3114 41.3134 20.3114 41.3134 20.3114C41.3134 20.3114 41.3134 20.3114 41.3134 20.3114C41.3134 20.3114 41.3134 20.3114 41.3134 20.3114C41.3134 20.3114 41.3134 20.3114 41.3134 20.3114C41.3134 20.3114 41.3134 20.3114 41.3134 20.3114C41.3134 20.3114 41.3134 20.3114 41.3134 20.3114C41.3134 20.3114 41.3134 20.3114 41.3134 20.3114C41.3134 20.3114 41.3134 20.3114 41.3134 20.3114C41.3134 20.3114 41.3134 20.3114 41.3134 20.3114C41.3134 20.3114 41.3134 20.3114 41.3134 20.3114C41.3134 20.3114 41.3134 20.3114 41.3134 20.3114C41.3134 20.3114 41.3134 20.3114 41.3134 20.3114C41.3134 20.3114 41.3134 20.3114 41.3134 20.3114C41.3134 20.3114 41.3134 20.3114 41.3134 20.3114C41.3134 20.3114 41.3134 20.3114 41.3134 20.3114C41.3134 20.3114 41.3134 20.3114 41.3134 20.3114C41.3134 20.3114 41.3134 20.3114 41.3134 20.3114C41.3134 20.3114 41.3134 20.3114 41.3134 20.3114C41.3134 20.3114 41.3134 20.3114 41.3134 20.3114C41.3134 20.3114 41.3134 20.3114 41.3134 20.3114C41.3134 20.3114 41.3134 20.3114 41.3134 20.3114C41.3134 20.3114 41.3134 20.3114 41.3134 20.3114C41.3134 20.3114 41.3134 20.3114 41.3134 20.3114C41.3134 20.3114 41.3134 20.3114 41.3134 20.3114C41.3134 20.3114 41.3134 20.3114 41.3134 20.3114C41.3134 20.3114 41.3134 20.3114 41.3134 20.3114C41.3134 20.3114 41.3134 20.3114 41.3134 20.3114C41.3134 20.3114 41.3134 20.3114 41.3134 20.3114C41.3134 20.3114 41.3134 20.3114 41.3134 20.3114C41.3134 20.3114 41.3134 20.3114 41.3134 20.3114C41.3134 20.3114 41.3134 20.3114 41.3134 20.3114C41.3134 20.3114 41.3134 20.3114 41.3134 20.3114C41.3134 20.3114 41.3134 20.3114 41.3134 20.3114C41.3134 20.3114 41.3134 20.3114 41.3134 20.3114C41.3134 20.3114 41.3134 20.3114 41.3134 20.3114C41.3134 20.3114 41.3134 20.3114 41.3134 20.3114C41.3134 20.3114 41.3134 20.3114 41.3134 20.3114C41.3134 20.3114 41.3134 20.3114 41.3134 20.3114C41.3134 20.3114 41.3134 20.3114 41.3134 20.3114C41.3134 20.3114 41.3134 20.3114 41.3134 20.3114C41.3134 20.3114 41.3134 20.3114 41.3134 20.3114C41.3134 20.3114 41.3134 20.3114 41.3134 20.3114C41.3134 20.3114 41.3134 20.3114 41.3134 20.3114C41.3134 20.3114 41.3134 20.3114 41.3134 20.3114C41.3134 20.3114 41.3134 20.3114 41.3134 20.3114C41.3134 20.3114 41.3134 20.3114 41.3134 20.3114C41.3134 20.3114 41.3134 20.3114 41.3134 20.3114C41.3134 20.3114 41.3134 20.3114 41.3134 20.3114C41.3134 20.3114 41.3134 20.3114 41.3134 20.3114C41.3134 20.3114 41.3134 20.3114 41.3134 20.3114C41.3134 20.3114 41.3134 20.3114 41.3134 20.3114C41.3134 20.3114 41.3134 20.3114 41.3134 20.3114C41.3134 20.3114 41.3134 20.3114 41.3134 20.3114C41.3134 20.3114 41.3134 20.3114 41.3134 20.3114C41.3134 20.3114 41.3134 20.3114 41.3134 20.3114C41.3134 20.3114 41.3134 20.3114 41.3134 20.3114C41.3134 20.3114 41.3134 20.3114 41.3134 20.3114C41.3134 20.3114 41.3134 20.3114 41.3134 20.3114C41.3134 20.3114 41.3134 20.3114 41.3134 20.3114C41.3134 20.3114 41.3134 20.3114 41.3134 20.3114C41.3134 20.3114 41.3134 20.3114 41.3134 20.3114C41.3134 20.3114 41.3134 20.3114 41.3134 20.3114C41.3134 20.3114 41.3134 20.3114 41.3134 20.3114C41.3134 20.3114 41.3134 20.3114 41.3134 20.3114C41.3134 20.3114 41.3134 20.3114 41.3134 20.3114C41.3134 20.3114 41.3134 20.3114 41.3134 20.3114C41.3134 20.3114 41.3134 20.3114 41.3134 20.3114C41.3134 20.3114 41.3134 20.3114 41.3134 20.3114C41.3134 20.3114 41.3134 20.3114 41.3134 20.3114C41.3134 20.3114 41.3134 20.3114 41.3134 20.3114C41.3134 20.3114 41.3134 20.3114 41.3134 20.3114C41.3134 20.3114 41.3134 20.3114 41.3134 20.3114C41.3134 20.3114 41.3134 20.3114 41.3134 20.3114C41.3134 20.3114 41.3134 20.3114 41.3134 20.3114C41.3134 20.3114 41.3134 20.3114 41.3134 20.3114C41.3134 20.3114 41.3134 20.3114 41.3134 20.3114C41.3134 20.3114 41.3134 20.3114 41.3134 20.3114C41.3134 20.3114 41.3134 20.3114 41.3134 20.3114C41.3134 20.3114 41.3134 20.3114 41.3134 20.3114C41.3134 20.3114 41.3134 20.3114 41.3134 20.3114C41.3134 20.3114 41.3134 20.3114 41.3134 20.3114C41.3134 20.3114 41.3134 20.3114 41.3134 20.3114C41.3134 20.3114 41.3134 20.3114 41.3134 20.3114C41.3134 20.3114 41.3134 20.3114 41.3134 20.3114C41.3134 20.3114 41.3134 20.3114 41.3134 20.3114C41.3134 20.3114 41.3134 20.3114 41.3134 20.3114C41.3134 20.3114 41.3134 20.3114 41.3134 20.3114C41.3134 20.3114 41.3134 20.3114 41.3134 20.3114C41.3134 20.3114 41.3134 20.3114 41.3134 20.3114C41.3134 20.3114 41.3134 20.3114 41.3134 20.3114C41.3134 20.3114 41.3134 20.3114 41.3134 20.3114C41.3134 20.3114 41.3134 20.3114 41.3134 20.3114C41.3134 20.3114 41.3134 20.3114 41.3134 20.3114C41.3134 20.3114 41.3134 20.3114 41.3134 20.3114C41.3134 20.3114 41.3134 20.3114 41.3134 20.3114C41.3134 20.3114 41.3134 20.3114 41.3134 20.3114C41.3134 20.3114 41.3134 20.3114 41.3134 20.3114C41.3134 20.3114 41.3134 20.3114 41.3134 20.3114C41.3134 20.3114 41.3134 20.3114 41.3134 20.3114C41.3134 20.3114 41.3134 20.3114 41.3134 20.3114C41.3134 20.3114 41.3134 20.3114 41.3134 20.3114C41.3134 20.3114 41.3134 20.3114 41.3134 20.3114C41.3134 20.3114 41.3134 20.3114 41.3134 20.3114C41.3134 20.3114 41.3134 20.3114 41.3134 20.3114C41.3134 20.3114 41.3134 20.3114 41.3134 20.3114C41.3134 20.3114 41.3134 20.3114 41.3134 20.3114C41.3134 20.3114 41.3134 20.3114 41.3134 20.3114C41.3134 20.3114 41.3134 20.3114 41.3134 20.3114C41.3134 20.3114 41.3134 20.3114 41.3134 20.3114C41.3134 20.3114 41.3134 20.3114 41.3134 20.3114C41.3134 20.3114 41.3134 20.3114 41.3134 20.3114C41.3134 20.3114 41.3134 20.3114 41.3134 20.3114C41.3134 20.3114 41.3134 20.3114 41.3134 20.3114C41.3134 20.3114 41.3134 20.3114 41.3134 20.3114C41.3134 20.3114 41.3134 20.3114 41.3134 20.3114C41.3134 20.3114 41.3134 20.3114 41.3134 20.3114C41.3134 20.3114 41.3134 20.3114 41.3134 20.3114C41.3134 20.3114 41.3134 20.3114 41.3134 20.3114C41.3134 20.3114 41.3134 20.3114 41.3134 20.3114C41.3134 20.3114 41.3134 20.3114 41.3134 20.3114C41.3134 20.3114 41.3134 20.3114 41.3134 20.3114C41.3134 20.3114 41.3134 20.3114 41.3134 20.3114C41.3134 20.3114 41.3134 20.3114 41.3134 20.3114C41.3134 20.3114 41.3134 20.3114 41.3134 20.3114C41.3134 20.3114 41.3134 20.3114 41.3134 20.3114C41.3134 20.3114 41.3134 20.3114 41.3134 20.3114C41.3134 20.3114 41.3134 20.3114 41.3134 20.3114C41.3134 20.3114 41.3134 20.3114 41.3134 20.3114C41.3134 20.3114 41.3134 20.3114 41.3134 20.3114C41.3134 20.3114 41.3134 20.3114 41.3134 20.3114C41.3134 20.3114 41.3134 20.3114 41.3134 20.3114C41.3134 20.3114 41.3134 20.3114 41.3134 20.3114C41.3134 20.3114 41.3134 20.3114 41.3134 20.3114C41.3134 20.3114 41.3134 20.3114 41.3134 20.3114C41.3134 20.3114 41.3134 20.3114 41.3134 20.3114C41.3134 20.3114 41.3134 20.3114 41.3134 20.3114C41.3134 20.3114 41.3134 20.3114 41.3134 20.3114C41.3134 20.3114 41.3134 20.3114 41.3134 20.3114C41.3134 20.3114 41.3134 20.3114 41.3134 20.3114C41.3134 20.3114 41.3134 20.3114 41.3134 20.3114C41.3134 20.3114 41.3134 20.3114 41.3134 20.3114C41.3134 20.3114 41.3134 20.3114 41.3134 20.3114C41.3134 20.3114 41.3134 20.3114 41.3134 20.3114C41.3134 20.3114 41.3134 19.8162 41.3134 19.8162C41.3134 19.8162 41.3134 19.8162 41.3134 19.8162C41.3134 19.8162 41.3134 19.8162 41.3134 19.8162C41.3134 19.8162 41.3134 19.8162 41.3134 19.8162C41.3134 19.8162 41.3134 19.8162 41.3134 19.8162C41.3134 19.8162 41.3134 19.8162 41.3134 19.8162C41.3134 19.8162 41.3134 19.8162 41.3134 19.8162C41.3134 19.8162 41.3134 19.8162 41.3134 19.8162C41.3134 19.8162 41.3134 19.8162 41.3134 19.8162C41.3134 19.8162 41.3134 19.8162 41.3134 19.8162C41.3134 19.8162 41.3134 19.8162 41.3134 19.8162C41.3134 19.8162 41.3134 19.8162 41.3134 19.8162C41.3134 19.8162 41.3134 19.8162 41.3134 19.8162C41.3134 19.8162 41.3134 19.8162 41.3134 19.8162C41.3134 19.8162 41.3134 19.8162 41.3134 19.8162C41.3134 19.8162 41.3134 19.8162 41.3134 19.8162C41.3134 19.8162 41.3134 19.8162 41.3134 19.8162C41.3134 19.8162 41.3134 19.8162 41.3134 19.8162C41.3134 19.8162 41.3134 19.8162 41.3134 19.8162C41.3134 19.8162 41.3134 19.8162 41.3134 19.8162C41.3134 19.8162 41.3134 19.8162 41.3134 19.8162C41.3134 19.8162 41.3134 19.8162 41.3134 19.8162C41.3134 19.8162 41.3134 19.8162 41.3134 19.8162C41.3134 19.8162 41.3134 19.8162 41.3134 19.8162C41.3134 19.8162 41.3134 19.8162 41.3134 19.8162C41.3134 19.8162 41.3134 19.8162 41.3134 19.8162C41.3134 19.8162 41.3134 19.8162 41.3134 19.8162C41.3134 19.8162 41.3134 19.8162 41.3134 19.8162C41.3134 19.8162 41.3134 19.8162 41.3134 19.8162C41.3134 19.8162 41.3134 19.8162 41.3134 19.8162C41.3134 19.8162 41.3134 19.8162 41.3134 19.8162C41.3134 19.8162 41.3134 19.8162 41.3134 19.8162C41.3134 19.8162 41.3134 19.8162 41.3134 19.8162C41.3134 19.8162 41.3134 19.8162 41.3134 19.8162C41.3134 19.8162 41.3134 19.8162 41.3134 19.8162C41.3134 19.8162 41.3134 19.8162 41.3134 19.8162C41.3134 19.8162 41.3134 19.8162 41.3134 19.8162C41.3134 19.8162 41.3134 19.8162 41.3134 19.8162C41.3134 19.8162 41.3134 19.8162 41.3134 19.8162C41.3134 19.8162 41.3134 19.8162 41.3134 19.8162C41.3134 19.8162 41.3134 19.8162 41.3134 19.8162C41.3134 19.8162 41.3134 19.8162 41.3134 19.8162C41.3134 19.8162 41.3134 19.8162 41.3134 19.8162C41.3134 19.8162 41.3134 19.8162 41.3134 19.8162C41.3134 19.8162 41.3134 19.8162 41.3134 19.8162C41.3134 19.8162 41.3134 19.8162 41.3134 19.8162C41.3134 19.8162 41.3134 19.8162 41.3134 19.8162C41.3134 19.8162 41.3134 19.8162 41.3134 19.8162C41.3134 19.8162 41.3134 19.8162 41.3134 19.8162C41.3134 19.8162 41.3134 19.8162 41.3134 19.8162C41.3134 19.8162 41.3134 19.8162 41.3134 19.8162C41.3134 19.8162 41.3134 19.8162 41.3134 19.8162C41.3134 19.8162 41.3134 19.8162 41.3134 19.8162C41.3134 19.8162 41.3134 19.8162 41.3134 19.8162C41.3134 19.8162 41.3134 19.8162 41.3134 19.8162C41.3134 19.8162 41.3134 19.8162 41.3134 19.8162C41.3134 19.8162 41.3134 19.8162 41.3134 19.8162C41.3134 19.8162 41.3134 19.8162 41.3134 19.8162C41.3134 19.8162 41.3134 19.8162 41.3134 19.8162C41.3134 19.8162 41.3134 19.8162 41.3134 19.8162C41.3134 19.8162 41.3134 19.8162 41.3134 19.8162C41.3134 19.8162 41.3134 19.8162 41.3134 19.8162C41.3134 19.8162 41.3134 19.8162 41.3134 19.8162C41.3134 19.8162 41.3134 19.8162 41.3134 19.8162C41.3134 19.8162 41.3134 19.8162 41.3134 19.8162C41.3134 19.8162 41.3134 19.8162 41.3134 19.8162C41.3134 19.8162 41.3134 19.8162 41.3134 19.8162C41.3134 19.8162 41.3134 19.8162 41.3134 19.8162C41.3134 19.8162 41.3134 19.8162 41.3134 19.8162C41.3134 19.8162 41.3134 19.8162 41.3134 19.8162C41.3134 19.8162 41.3134 19.8162 41.3134 19.8162C41.3134 19.8162 41.3134 19.8162 41.3134 19.8162C41.3134 19.8162 41.3134 19.8162 41.3134 19.8162C41.3134 19.8162 41.3134 19.8162 41.3134 19.8162C41.3134 19.8162 41.3134 19.8162 41.3134 19.8162C41.3134 19.8162 41.3134 19.8162 41.3134 19.8162C41.3134 19.8162 41.3134 19.8162 41.3134 19.8162C41.3134 19.8162 41.3134 19.8162 41.3134 19.8162C41.3134 19.8162 41.3134 19.8162 41.3134 19.8162C41.3134 19.8162 41.3134 19.8162 41.3134 19.8162C41.3134 19.8162 41.3134 19.8162 41.3134 19.8162C41.3134 19.8162 41.3134 19.8162 41.3134 19.8162C41.3134 19.8162 41.3134 19.8162 41.3134 19.8162C41.3134 19.8162 41.3134 19.8162 41.3134 19.8162C41.3134 19.8162 41.3134 19.8162 41.3134 19.8162C41.3134 19.8162 41.3134 19.8162 41.3134 19.8162C41.3134 19.8162 41.3134 19.8162 41.3134 19.8162C41.3134 19.8162 41.3134 19.8162 41.3134 19.8162C41.3134 19.8162 41.3134 19.8162 41.3134 19.8162C41.3134 19.8162 40.8134 19.8162 40.3134 19.8162C40.3134 19.8162 40.3134 19.8162 40.3134 19.8162C40.3134 19.8162 40.3134 19.8162 40.3134 19.8162C40.3134 19.8162 40.3134 19.8162 40.3134 19.8162C40.3134 19.8162 40.3134 19.8162 40.3134 19.8162C40.3134 19.8162 40.3134 19.8162 40.3134 19.8162C40.3134 19.8162 40.3134 19.8162 40.3134 19.8162C40.3134 19.8162 40.3134 19.8162 40.3134 19.8162C40.3134 19.8162 40.3134 19.8162 40.8134 19.8162C41.3134 19.8162 41.3134 19.8162 41.3134 19.8162C41.3134 19.8162 41.3134 19.8162 41.3134 19.8162C41.3134 19.8162 41.3134 19.8162 41.3134 19.8162C41.3134 19.8162 41.3134 19.8162 41.3134 19.8162C41.3134 19.8162 41.3134 19.8162 41.3134 19.8162C41.3134 19.8162 41.3134 19.8162 41.3134 19.8162C41.3134 19.8162 41.3134 19.8162 41.3134 19.8162C41.3134 19.8162 41.3134 19.8162 41.3134 19.8162C40.8134 19.8162 40.3134 19.8162 40.3134 19.8162C40.3134 19.8162 40.3134 19.8162 40.3134 19.8162C40.3134 19.8162 40.3134 19.8162 40.3134 19.8162C40.3134 19.8162 40.3134 19.8162 40.3134 19.8162C40.3134 19.8162 40.3134 19.8162 40.3134 19.8162C40.3134 19.8162 40.3134 19.8162 40.3134 19.8162C40.3134 19.8162 40.3134 19.8162 40.3134 19.8162C40.3134 19.8162 40.3134 19.8162 40.3134 19.8162C40.3134 19.8162 40.3134 19.8162 40.3134 19.8162C40.3134 19.8162 40.3134 19.8162 40.3134 19.8162C40.3134 19.8162 40.3134 19.8162 40.3134 19.8162C40.3134 19.8162 40.3134 19.8162 40.3134 19.8162C40.3134 19.8162 40.3134 19.8162 40.3134 19.8162C40.3134 19.8162 40.3134 19.8162 40.3134 19.8162C40.3134 19.8162 40.3134 19.8162 40.3134 19.8162C40.3134 19.8162 40.3134 19.8162 40.3134 19.8162C40.3134 19.8162 40.3134 19.8162 40.3134 19.8162C40.3134 19.8162 40.3134 19.8162 40.3134 19.8162C40.3134 19.8162 40.3134 19.8162 40.3134 19.8162C40.3134 19.8162 40.3134 19.8162 40.3134 19.8162C40.3134 19.8162 40.3134 19.8162 40.3134 19.8162C40.3134 19.8162 40.3134 19.8162 40.3134 19.8162C40.3134 19.8162 40.3134 19.8162 40.3134 19.8162C40.3134 19.8162 40.3134 19.8162 40.3134 19.8162C40.3134 19.8162 40.3134 19.8162 40.3134 19.8162C40.3134 19.8162 40.3134 19.8162 40.3134 19.8162C40.3134 19.8162 40.3134 19.8162 40.3134 19.8162C40.3134 19.8162 40.3134 19.8162 40.3134 19.8162C40.3134 19.8162 40.3134 19.8162 40.3134 19.8162C40.3134 19.8162 40.3134 19.8162 40.3134 19.8162C40.3134 19.8162 40.3134 19.8162 40.3134 19.8162C40.3134 19.8162 40.3134 19.8162 40.3134 19.8162C40.3134 19.8162 40.3134 19.8162 40.3134 19.8162C40.3134 19.8162 40.3134 19.8162 40.3134 19.8162C40.3134 19.8162 40.3134 19.8162 40.3134 19.8162C40.3134 19.8162 40.3134 19.8162 40.3134 19.8162C40.3134 19.8162 40.3134 19.8162 40.3134 19.8162C40.3134 19.8162 40.3134 19.8162 40.3134 19.8162C40.3134 19.8162 40.3134 19.8162 40.3134 19.8162C40.3134 19.8162 40.3134 19.8162 40.3134 19.8162C40.3134 19.8162 40.3134 19.8162 40.3134 19.8162C40.3134 19.8162 40.3134 19.8162 40.3134 19.8162C40.3134 19.8162 40.3134 19.8162 40.3134 19.8162C40.3134 19.8162 40.3134 19.8162 40.3134 19.8162C40.3134 19.8162 40.3134 19.8162 40.3134 19.8162C40.3134 19.8162 40.3134 19.8162 40.3134 19.8162C40.3134 19.8162 40.3134 19.8162 40.3134 19.8162C40.3134 19.8162 40.3134 19.8162 40.3134 19.8162C40.3134 19.8162 40.3134 19.8162 40.3134 19.8162C40.3134 19.8162 40.3134 19.8162 40.3134 19.8162C40.3134 19.8162 40.3134 19.8162 40.3134 19.8162C40.3134 19.8162 40.3134 19.8162 40.3134 19.8162C40.3134 19.8162 40.3134 19.8162 40.3134 19.8162C40.3134 19.8162 40.3134 19.8162 40.3134 19.8162C40.3134 19.8162 40.3134 19.8162 40.3134 19.8162C40.3134 19.8162 40.3134 19.8162 40.3134 19.8162C40.3134 19.8162 40.3134 19.8162 40.3134 19.8162C40.3134 19.8162 40.3134 19.8162 40.3134 19.8162C40.3134 19.8162 40.3134 19.8162 40.3134 19.8162C40.3134 19.8162 40.3134 19.8162 40.3134 19.8162C40.3134 19.8162 40.3134 19.8162 40.3134 19.8162C40.3134 19.8162 40.3134 19.8162 40.3134 19.8162C40.3134 19.8162 40.3134 19.8162 40.3134 19.8162C40.3134 19.8162 40.3134 19.8162 40.3134 19.8162C40.3134 19.8162 40.3134 19.8162 40.3134 19.8162C40.3134 19.8162 40.3134 19.8162 40.3134 19.8162C40.3134 19.8162 40.3134 19.8162 40.3134 19.8162C40.3134 19.8162 40.3134 19.8162 40.3134 19.8162C40.3134 19.8162 40.3134 19.8162 40.3134 19.8162C40.3134 19.8162 40.3134 19.8162 40.3134 19.8162C40.3134 19.8162 40.3134 19.8162 40.3134 19.8162C40.3134 19.8162 40.3134 19.8162 40.3134 19.8162C40.3134 19.8162 40.3134 19.8162 40.3134 19.8162C40.3134 19.8162 40.3134 19.8162 40.3134 19.8162C40.3134 19.8162 40.3134 19.8162 40.3134 19.8162C40.3134 19.8162 40.3134 19.8162 40.3134 19.8162C40.3134 19.8162 40.3134 19.8162 40.3134 19.8162C40.3134 19.8162 40.3134 19.8162 40.3134 19.8162C40.3134 19.8162 40.3134 19.8162 40.3134 19.8162C40.3134 19.8162 40.3134 19.8162 40.3134 19.8162C40.3134 19.8162 40.3134 19.8162 40.3134 19.8162C40.3134 19.8162 40.3134 19.8162 40.3134 19.8162C40.3134 19.8162 40.3134 19.8162 40.3134 19.8162C40.3134 19.8162 40.3134 19.8162 40.3134 19.8162C40.3134 19.8162 40.3134 19.8162 40.3134 19.8162C40.3134 19.8162 40.3134 19.8162 40.3134 19.8162C40.3134 19.8162 40.3134 19.8162 40.3134 19.8162C40.3134 19.8162 40.3134 19.8162 40.3134 19.8162C40.3134 19.8162 40.3134 19.8162 40.3134 19.8162C40.3134 19.8162 40.3134 20.3114 40.3134 20.3114C40.3134 20.3114 40.3134 20.3114 40.3134 20.3114C40.3134 20.3114 40.3134 20.3114 40.3134 20.3114C40.3134 20.3114 40.3134 20.3114 40.3134 20.3114C40.3134 20.3114 40.3134 20.3114 40.3134 20.3114C40.3134 20.3114 40.3134 20.3114 40.3134 20.3114C40.3134 20.3114 40.3134 20.3114 40.3134 20.3114C40.3134 20.3114 40.3134 20.3114 40.3134 20.3114C40.3134 20.3114 40.3134 20.3114 40.3134 20.3114C40.3134 20.3114 40.3134 20.3114 40.3134 20.3114C40.3134 20.3114 40.3134 20.3114 40.3134 20.3114C40.3134 20.3114 40.3134 20.3114 40.3134 20.3114C40.3134 20.3114 40.3134 20.3114 40.3134 20.3114C40.3134 20.3114 40.3134 20.3114 40.3134 20.3114C40.3134 20.3114 40.3134 20.3114 40.3134 20.3114C40.3134 20.3114 40.3134 20.3114 40.3134 20.3114C40.3134 20.3114 40.3134 20.3114 40.3134 20.3114C40.3134 20.3114 40.3134 20.3114 40.3134 20.3114C40.3134 20.3114 40.3134 20.3114 40.3134 20.3114C40.3134 20.3114 40.3134 20.3114 40.3134 20.3114C40.3134 20.3114 40.3134 20.3114 40.3134 20.3114C40.3134 20.3114 40.3134 20.3114 40.3134 20.3114C40.3134 20.3114 40.3134 20.3114 40.3134 20.3114C40.3134 20.3114 40.3134 20.3114 40.3134 20.3114C40.3134 20.3114 40.3134 20.3114 40.3134 20.3114C40.3134 20.3114 40.3134 20.3114 40.3134 20.3114C40.3134 20.3114 40.3134 20.3114 40.3134 20.3114C40.3134 20.3114 40.3134 20.3114 40.3134 20.3114C40.3134 20.3114 40.3134 20.3114 40.3134 20.3114C40.3134 20.3114 40.3134 20.3114 40.3134 20.3114C40.3134 20.3114 40.3134 20.3114 40.3134 20.3114C40.3134 20.3114 40.3134 20.3114 40.3134 20.3114C40.3134 20.3114 40.3134 20.3114 40.3134 20.3114C40.3134 20.3114 40.3134 20.3114 40.3134 20.3114C40.3134 20.3114 40.3134 20.3114 40.3134 20.3114C40.3134 20.3114 40.3134 20.3114 40.3134 20.3114C40.3134 20.3114 40.3134 20.3114 40.3134 20.3114C40.3134 20.3114 40.3134 20.3114 40.3134 20.3114C40.3134 20.3114 40.3134 20.3114 40.3134 20.3114C40.3134 20.3114 40.3134 20.3114 40.3134 20.3114C40.3134 20.3114 40.3134 20.3114 40.3134 20.3114C40.3134 20.3114 40.3134 20.3114 40.3134 20.3114C40.3134 20.3114 40.3134 20.3114 40.3134 20.3114C40.3134 20.3114 40.3134 20.3114 40.3134 20.3114C40.3134 20.3114 40.3134 20.3114 40.3134 20.3114C40.3134 20.3114 40.3134 20.3114 40.3134 20.3114C40.3134 20.3114 40.3134 20.3114 40.3134 20.3114C40.3134 20.3114 40.3134 20.3114 40.3134 20.3114C40.3134 20.3114 40.3134 20.3114 40.3134 20.3114C40.3134 20.3114 40.3134 20.3114 40.3134 20.3114C40.3134 20.3114 40.3134 20.3114 40.3134 20.3114C40.3134 20.3114 40.3134 20.3114 40.3134 20.3114C40.3134 20.3114 40.3134 20.3114 40.3134 20.3114C40.3134 20.3114 40.3134 20.3114 40.3134 20.3114C40.3134 20.3114 40.3134 20.3114 40.3134 20.3114C40.3134 20.3114 40.3134 20.3114 40.3134 20.3114C40.3134 20.3114 40.3134 20.3114 40.3134 20.3114C40.3134 20.3114 40.3134 20.3114 40.3134 20.3114C40.3134 20.3114 40.3134 20.3114 40.3134 20.3114C40.3134 20.3114 40.3134 20.3114 40.3134 20.3114C40.3134 20.3114 40.3134 20.3114 40.3134 20.3114C40.3134 20.3114 40.3134 20.3114 40.3134 20.3114C40.3134 20.3114 40.3134 20.3114 40.3134 20.3114C40.3134 20.3114 40.3134 20.3114 40.3134 20.3114C40.3134 20.3114 40.3134 20.3114 40.3134 20.3114C40.3134 20.3114 40.3134 20.3114 40.3134 20.3114C40.3134 20.3114 40.3134 20.3114 40.3134 20.3114C40.3134 20.3114 40.3134 20.3114 40.3134 20.3114C40.3134 20.3114 40.3134 20.3114 40.3134 20.3114C40.3134 20.3114 40.3134 20.3114 40.3134 20.3114C40.3134 20.3114 40.3134 20.3114 40.3134 20.3114C40.3134 20.3114 40.3134 20.3114 40.3134 20.3114C40.3134 20.3114 40.3134 20.3114 40.3134 20.3114C40.3134 20.3114 40.3134 20.3114 40.3134 20.3114C40.3134 20.3114 40.3134 20.3114 40.3134 20.3114C40.3134 20.3114 40.3134 20.3114 40.3134 20.3114C40.3134 20.3114 40.3134 20.3114 40.3134 20.3114C40.3134 20.3114 40.3134 20.3114 40.3134 20.3114C40.3134 20.3114 40.3134 20.3114 40.3134 20.3114C40.3134 20.3114 40.3134 20.3114 40.3134 20.3114C40.3134 20.3114 40.3134 20.3114 40.3134 20.3114C40.3134 20.3114 40.3134 20.3114 40.3134 20.3114C40.3134 20.3114 40.3134 20.3114 40.3134 20.3114C40.3134 20.3114 40.3134 20.3114 40.3134 20.3114C40.3134 20.3114 40.3134 20.3114 40.3134 20.3114C40.3134 20.3114 40.3134 20.3114 40.3134 20.3114C40.3134 20.3114 40.3134 20.3114 40.3134 20.3114C40.3134 20.3114 40.3134 20.3114 40.3134 20.3114C40.3134 20.3114 40.3134 20.3114 40.3134 20.3114C40.3134 20.3114 40.3134 20.3114 40.3134 20.3114C40.3134 20.3114 40.3134 20.3114 40.3134 20.3114C40.3134 20.3114 40.3134 20.3114 40.3134 20.3114C40.3134 20.3114 40.3134 20.3114 40.3134 20.3114C40.3134 20.3114 40.3134 20.3114 40.3134 20.3114C40.3134 20.3114 40.3134 20.3114 40.3134 20.3114C40.3134 20.3114 40.3134 20.3114 40.3134 20.3114C40.3134 20.3114 40.3134 20.3114 40.3134 20.3114C40.3134 20.3114 40.3134 20.3114 40.3134 20.3114C40.3134 20.3114 40.3134 20.3114 40.3134 20.3114C40.3134 20.3114 40.3134 20.3114 40.3134 20.3114C40.3134 20.3114 40.3134 20.3114 40.3134 20.3114C40.3134 20.3114 40.3134 20.3114 40.3134 20.3114C40.3134 20.3114 40.3134 20.3114 40.3134 20.3114C40.3134 20.3114 40.3134 20.3114 40.3134 20.3114C40.3134 20.3114 40.3134 20.3114 40.3134 20.3114C40.3134 20.3114 40.3134 20.3114 40.3134 20.3114C40.3134 20.3114 40.3134 20.3114 40.3134 20.3114C40.3134 20.3114 40.3134 20.3114 40.3134 20.3114C40.3134 20.3114 40.3134 20.3114 40.3134 20.3114C40.3134 20.3114 40.3134 20.3114 40.3134 20.3114C40.3134 20.3114 40.3134 20.3114 40.3134 20.3114C40.3134 20.3114 40.3134 20.3114 40.3134 20.3114C40.3134 20.3114 40.3134 20.3114 40.3134 20.3114C40.3134 20.3114 40.3134 20.3114 40.3134 20.3114C40.3134 20.3114 40.3134 20.3114 40.3134 20.3114C40.3134 20.3114 40.3134 20.3114 40.3134 20.3114C40.3134 20.3114 40.3134 20.3114 40.3134 20.3114C40.3134 20.3114 40.3134 20.3114 40.3134 20.3114C40.3134 20.3114 40.3134 20.3114 40.3134 20.3114C40.3134 20.3114 40.3134 20.3114 40.3134 20.3114C40.3134 20.3114 40.3134 20.3114 40.3134 20.3114C40.3134 20.3114 40.3134 20.3114 40.3134 20.3114C40.3134 20.3114 40.3134 20.3114 40.3134 20.3114C40.3134 20.3114 40.3134 20.3114 40.3134 20.3114C40.3134 20.3114 40.3134 20.3114 40.3134 20.3114C40.3134 20.3114 40.3134 20.3114 40.3134 20.3114C40.3134 20.3114 40.3134 20.3114 40.3134 20.3114C40.3134 20.3114 40.3134 20.3114 40.3134 20.3114C40.3134 20.3114 40.3134 20.3114 40.3134 20.3114C40.3134 20.3114 40.3134 20.3114 40.3134 20.3114C40.3134 20.3114 40.3134 20.3114 40.3134 20.3114C40.3134 20.3114 40.3134 20.3114 40.3134 20.3114C40.3134 20.3114 40.3134 20.3114 40.3134 20.3114C40.3134 20.3114 40.3134 20.3114 40.3134 20.3114C40.3134 20.3114 40.3134 20.3114 40.3134 20.3114C40.3134 20.3114 40.3134 20.3114 40.3134 20.3114C40.3134 20.3114 40.3134 20.3114 40.3134 20.3114C40.3134 20.3114 40.3134 20.3114 40.3134 20.3114C40.3134 20.3114 40.3134 20.3114 40.3134 20.3114C40.3134 20.3114 40.3134 20.3114 40.3134 20.3114C40.3134 20.3114 40.3134 20.3114 40.3134 20.3114C40.3134 20.3114 40.3134 20.3114 40.3134 20.3114C40.3134 20.3114 40.3134 20.3114 40.3134 20.3114C40.3134 20.3114 40.3134 20.3114 40.3134 20.3114C40.3134 20.3114 40.3134 20.3114 40.3134 20.3114C40.3134 20.3114 40.3134 20.3114 40.3134 20.3114C40.3134 20.3114 40.3134 20.3114 40.3134 20.3114C40.3134 20.3114 40.3134 20.3114 40.3134 20.3114C40.3134 20.3114 40.3134 20.3114 40.3134 20.3114C40.3134 20.3114 40.3134 20.3114 40.3134 20.3114C40.3134 20.3114 40.3134 20.3114 40.3134 20.3114C40.3134 20.3114 40.3134 20.3114 40.3134 20.3114C40.3134 20.3114 40.3134 20.3114 40.3134 20.3114C40.3134 20.3114 40.3134 20.3114 40.3134 20.3114C40.3134 20.3114 40.3134 20.3114 40.3134 20.3114C40.3134 20.3114 40.3134 20.3114 40.3134 20.3114C40.3134 20.3114 40.3134 20.3114 40.3134 20.3114C40.3134 20.3114 40.3134 20.3114 40.3134 20.3114C40.3134 20.3114 40.3134 20.3114 40.3134 20.3114C40.3134 20.3114 40.3134 20.3114 40.3134 20.3114C40.3134 20.3114 40.3134 20.3114 40.3134 20.3114C40.3134 20.3114 40.3134 20.3114 40.3134 20.3114C40.3134 20.3114 40.3134 20.3114 40.3134 20.3114C40.3134 20.3114 40.3134 20.3114 40.3134 20.3114C40.3134 20.3114 40.3134 20.3114 40.3134 20.3114C40.3134 20.3114 40.3134 20.3114 40.3134 20.3114C40.3134 20.3114 40.3134 20.3114 40.3134 20.3114C40.3134 20.3114 40.3134 20.3114 40.3134 20.3114C40.3134 20.3114 40.3134 20.3114 40.3134 20.3114C40.3134 20.3114 40.3134 20.3114 40.3134 20.3114C40.3134 20.3114 40.3134 20.3114 40.3134 20.3114C40.3134 20.3114 40.3134 20.3114 40.3134 20.3114C40.3134 20.3114 40.3134 20.3114 40.3134 20.3114C40.3134 20.3114 40.3134 20.3114 40.3134 20.3114C40.3134 20.3114 40.3134 20.3114 40.3134 20.3114C40.3134 20.3114 40.3134 20.3114 40.3134 20.3114C40.3134 20.3114 40.3134 20.3114 40.3134 20.3114C40.3134 20.3114 40.3134 20.3114 40.3134 20.3114C40.3134 20.3114 40.3134 20.3114 40.3134 20.3114C40.3134 20.3114 40.3134 20.3114 40.3134 20.3114C40.3134 20.3114 40.3134 20.3114 40.3134 20.3114C40.3134 20.3114 40.3134 20.3114 40.3134 20.3114C40.3134 20.3114 40.3134 20.3114 40.3134 20.3114C40.3134 20.3114 40.3134 20.3114 40.3134 20.3114C40.3134 20.3114 40.3134 20.3114 40.3134 20.3114C40.3134 20.3114 40.3134 20.3114 40.3134 20.3114C40.3134 20.3114 40.3134 20.3114 40.3134 20.3114C40.3134 20.3114 40.3134 20.3114 40.3134 20.3114C40.3134 20.3114 40.3134 20.3114 40.3134 20.3114C40.3134 20.3114 40.3134 20.3114 40.3134 20.3114C40.3134 20.3114 40.3134 20.3114 40.3134 20.3114C40.3134 20.3114 40.3134 20.3114 40.3134 20.3114C40.3134 20.3114 40.3134 20.3114 40.3134 20.3114C40.3134 20.3114 40.3134 20.3114 40.3134 20.3114C40.3134 20.3114 40.3134 20.3114 40.3134 20.3114C40.3134 20.3114 40.3134 20.3114 40.3134 20.3114C40.3134 20.3114 40.3134 20.3114 40.3134 20.3114C40.3134 20.3114 40.3134 20.3114 40.3134 20.3114C40.3134 20.3114 40.3134 20.3114 40.3134 20.3114C40.3134 20.3114 40.3134 20.3114 40.3134 20.3114C40.3134 20.3114 40.3134 20.3114 40.3134 20.3114C40.3134 20.3114 40.3134 20.3114 40.3134 20.3114C40.3134 20.3114 40.3134 20.3114 40.3134 20.3114C40.3134 20.3114 40.3134 20.3114 40.3134 20.3114C40.3134 20.3114 40.3134 20.3114 40.3134 20.3114C40.3134 20.3114 40.3134 20.3114 40.3134 20.3114C40.3134 20.3114 40.3134 20.3114 40.3134 20.3114C40.3134 20.3114 40.3134 20.3114 40.3134 20.3114C40.3134 20.3114 40.3134 20.3114 40.3134 20.3114C40.3134 20.3114 40.3134 20.3114 40.3134 20.3114C40.3134 20.3114 40.3134 20.3114 40.3134 20.3114C40.3134 20.3114 40.3134 20.3114 40.3134 20.3114C40.3134 20.3114 40.3134 20.3114 40.3134 20.3114C40.3134 20.3114 40.3134 20.3114 40.3134 20.3114C40.3134 20.3114 40.3134 20.3114 40.3134 20.3114C40.3134 20.3114 40.3134 20.3114 40.3134 20.3114C40.3134 20.3114 40.3134 20.3114 40.3134 20.3114C40.3134 20.3114 40.3134 20.3114 40.3134 20.3114C40.3134 20.3114 40.3134 20.3114 40.3134 20.3114C40.3134 20.3114 40.3134 20.3114 40.3134 20.3114C40.3134 20.3114 40.3134 20.3114 40.3134 20.3114C40.3134 20.3114 40.3134 20.3114 40.3134 20.3114C40.3134 20.3114 40.3134 20.3114 40.3134 20.3114C40.3134 20.3114 40.3134 20.3114 40.3134 20.3114C40.3134 20.3114 40.3134 20.3114 40.3134 20.3114C40.3134 20.3114 40.3134 20.3114 40.3134 20.3114C40.3134 20.3114 40.3134 20.3114 40.3134 20.3114C40.3134 20.3114 40.3134 20.3114 40.3134 20.3114C40.3134 20.3114 40.3134 20.3114 40.3134 20.3114C40.3134 20.3114 40.3134 20.3114 40.3134 20.3114C40.3134 20.3114 40.3134 20.3114 40.3134 20.3114C40.3134 20.3114 40.3134 20.3114 40.3134 20.3114C40.3134 20.3114 40.3134 20.3114 40.3134 20.3114C40.3134 20.3114 40.3134 20.3114 40.3134 20.3114C40.3134 20.3114 40.3134 20.3114 40.3134 20.3114C40.3134 20.3114 40.3134 20.3114 40.3134 20.3114C40.3134 20.3114 40.3134 20.3114 40.3134 20.3114C40.3134 20.3114 40.3134 20.3114 40.3134 20.3114C40.3134 20.3114 40.3134 20.3114 40.3134 20.3114C40.3134 20.3114 40.3134 20.3114 40.3134 20.3114C40.3134 20.3114 40.3134 20.3114 40.3134 20.3114C40.3134 20.3114 40.3134 20.3114 40.3134 20.3114C40.3134 20.3114 40.3134 20.3114 40.3134 20.3114C40.3134 20.3114 40.3134 20.3114 40.3134 20.3114C40.3134 20.3114 40.3134 20.3114 40.3134 20.3114C40.3134 20.3114 40.3134 20.3114 40.3134 20.3114C40.3134 20.3114 40.3134 20.3114 40.3134 20.3114C40.3134 20.3114 40.3134 20.3114 40.3134 20.3114C40.3134 20.3114 40.3134 20.3114 40.3134 20.3114C40.3134 20.3114 40.3134 20.3114 40.3134 20.3114C40.3134 20.3114 40.3134 20.3114 40.3134 20.3114C40.3134 20.3114 40.3134 20.3114 40.3134 20.3114C40.3134 20.3114 40.3134 20.3114 40.3134 20.3114C40.3134 20.3114 40.3134 20.3114 40.3134 20.3114C40.3134 20.3114 40.3134 20.3114 40.3134 20.3114C40.3134 20.3114 40.3134 20.3114 40.3134 20.3114C40.3134 20.3114 40.3134 20.3114 40.3134 20.3114C40.3134 20.3114 40.3134 20.3114 40.3134 20.3114C40.3134 20.3114 40.3134 20.3114 40.3134 20.3114C40.3134 20.3114 40.3134 20.3114 40.3134 20.3114C40.3134 20.3114 40.3134 20.3114 40.3134 20.3114C40.3134 20.3114 40.3134 20.3114 40.3134 20.3114C40.3134 20.3114 40.3134 20.3114 40.3134 20.3114C40.3134 20.3114 40.3134 20.3114 40.3134 20.3114C40.3134 20.3114 40.3134 20.3114 40.3134 20.3114C40.3134 20.3114 40.3134 20.3114 40.3134 20.3114C40.3134 20.3114 40.3134 20.3114 40.3134 20.3114C40.3134 20.3114 40.3134 20.3114 40.3134 20.3114C40.3134 20.3114 40.3134 20.3114 40.3134 20.3114C40.3134 20.3114 40.3134 20.3114 40.3134 20.3114C40.3134 20.3114 40.3134 20.3114 40.3134 20.3114C40.3134 20.3114 40.3134 20.3114 40.3134 20.3114C40.3134 20.3114 40.3134 20.3114 40.3134 20.3114C40.3134 20.3114 40.3134 20.3114 40.3134 20.3114C40.3134 20.3114 40.3134 20.3114 40.3134 20.3114C40.3134 20.3114 40.3134 20.3114 40.3134 20.3114C40.3134 20.3114 40.3134 20.3114 40.3134 20.3114C40.3134 20.3114 40.3134 20.3114 40.3134 20.3114C40.3134 20.3114 40.3134 20.3114 40.3134 20.3114C40.3134 20.3114 40.3134 20.3114 40.3134 20.3114C40.3134 20.3114 40.3134 20.3114 40.3134 20.3114C40.3134 20.3114 40.3134 20.3114 40.3134 20.3114C40.3134 20.3114 40.3134 20.3114 40.3134 20.3114C40.3134 20.3114 40.3134 20.3114 40.3134 20.3114C40.3134 20.3114 40.3134 20.3114 40.3134 20.3114C40.3134 20.3114 40.3134 20.3114 40.3134 20.3114C40.3134 20.3114 40.3134 20.3114 40.3134 20.3114C40.3134 20.3114 40.3134 20.3114 40.3134 20.3114C40.3134 20.3114 40.3134 20.3114 40.3134 20.3114C40.3134 20.3114 40.3134 20.3114 40.3134 20.3114C40.3134 20.3114 40.3134 20.3114 40.3134 20.3114C40.3134 20.3114 40.3134 20.3114 40.3134 20.3114C40.3134 20.3114 40.3134 20.3114 40.3134 20.3114C40.3134 20.3114 40.3134 20.3114 40.3134 20.3114C40.3134 20.3114 40.3134 20.3114 40.3134 20.3114C40.3134 20.3114 40.3134 20.3114 40.3134 20.3114C40.3134 20.3114 40.3134 20.3114 40.3134 20.3114C40.3134 20.3114 40.3134 20.3114 40.3134 20.3114C40.3134 20.3114 40.3134 20.3114 40.3134 20.3114C40.3134 20.3114 40.3134 20.3114 40.3134 20.3114C40.3134 20.3114 40.3134 20.3114 40.3134 20.3114C40.3134 20.3114 40.3134 20.3114 40.3134 20.3114C40.3134 20.3114 40.3134 20.3114 40.3134 20.3114C40.3134 20.3114 40.3134 20.3114 40.3134 20.3114C40.3134 20.3114 40.3134 20.3114 40.3134 20.3114C40.3134 20.3114 40.3134 20.3114 40.3134 20.3114C40.3134 20.3114 40.3134 20.3114 40.3134 20.3114C40.3134 20.3114 40.3134 20.3114 40.3134 20.3114C40.3134 20.3114 40.3134 20.3114 40.3134 20.3114C40.3134 20.3114 40.3134 20.3114 40.3134 20.3114C40.3134 20.3114 40.3134 20.3114 40.3134 20.3114C40.3134 20.3114 40.3134 20.3114 40.3134 20.3114C40.3134 20.3114 40.3134 20.3114 40.3134 20.3114C40.3134 20.3114 40.3134 20.3114 40.3134 20.3114C40.3134 20.3114 40.3134 20.3114 40.3134 20.3114C40.3134 20.3114 40.3134 20.3114 40.3134 20.3114C40.3134 20.3114 40.3134 20.3114 40.3134 20.3114C40.3134 20.3114 40.3134 20.3114 40.3134 20.3114C40.3134 20.3114 40.3134 20.3114 40.3134 20.3114C40.3134 20.3114 40.3134 20.3114 40.3134 20.3114C40.3134 20.3114 40.3134 20.3114 40.3134 20.3114C40.3134 20.3114 40.3134 20.3114 40.3134 20.3114C40.3134 20.3114 40.3134 20.3114 40.3134 20.3114C40.3134 20.3114 40.3134 20.3114 40.3134 20.3114C40.3134 20.3114 40.3134 20.3114 40.3134 20.3114C40.3134 20.3114 40.3134 20.3114 40.3134 20.3114C40.3134 20.3114 40.3134 20.3114 40.3134 20.3114C40.3134 20.3114 40.3134 20.3114 40.3134 20.3114C40.3134 20.3114 40.3134 20.3114 40.3134 20.3114C40.3134 20.3114 40.3134 20.3114 40.3134 20.3114C40.3134 20.3114 40.3134 20.3114 40.3134 20.3114C40.3134 20.3114 40.3134 20.3114 40.3134 20.3114C40.3134 20.3114 40.3134 20.3114 40.3134 20.3114C40.3134 20.3114 40.3134 20.3114 40.3134 20.3114C40.3134 20.3114 40.3134 20.3114 40.3134 20.3114C40.3134 20.3114 40.3134 20.3114 40.3134 20.3114C40.3134 20.3114 40.3134 20.3114 40.3134 20.3114C40.3134 20.3114 40.3134 20.3114 40.3134 20.3114C40.3134 20.3114 40.3134 20.3114 40.3134 20.3114C40.3134 20.3114 40.3134 20.3114 40.3134 20.3114C40.3134 20.3114 40.3134 20.3114 40.3134 20.3114C40.3134 20.3114 40.3134 20.3114 40.3134 20.3114C40.3134 20.3114 40.3134 20.3114 40.3134 20.3114C40.3134 20.3114 40.3134 20.3114 40.3134 20.3114C40.3134 20.3114 40.3134 20.3114 40.3134 20.3114C40.3134 20.3114 40.3134 20.3114 40.3134 20.3114C40.3134 20.3114 40.3134 20.3114 40.3134 20.3114C40.3134 20.3114 40.3134 20.3114 40.3134 20.3114C40.3134 20.3114 40.3134 20.3114 40.3134 20.3114C40.3134 20.3114 40.3134 20.3114 40.3134 20.3114C40.3134 20.3114 40.3134 20.3114 40.3134 20.3114C40.3134 20.3114 40.3134 20.3114 40.3134 20.3114C40.3134 20.3114 40.3134 20.3114 40.3134 20.3114C40.3134 20.3114 40.3134 20.3114 40.3134 20.3114C40.3134 20.3114 40.3134 20.3114 40.3134 20.3114C40.3134 20.3114 40.3134 20.3114 40.3134 20.3114C40.3134 20.3114 40.3134 20.3114 40.3134 20.3114C40.3134 20.3114 40.3134 20.3114 40.3134 20.3114C40.3134 20.3114 40.3134 20.3114 40.3134 20.3114C40.3134 20.3114 40.3134 20.3114 40.3134 20.3114C40.3134 20.3114 40.3134 20.3114 40.3134 20.3114C40.3134 20.3114 40.3134 20.3114 40.3134 20.3114C40.3134 20.3114 40.3134 20.3114 40.3134 20.3114C40.3134 20.3114 40.3134 20.3114 40.3134 20.3114C40.3134 20.3114 40.3134 20.3114 40.3134 20.3114C40.3134 20.3114 40.3134 20.3114 40.3134 20.3114C40.3134 20.3114 40.3134 20.3114 40.3134 20.3114C40.3134 20.3114 40.3134 20.3114 40.3134 20.3114C40.3134 20.3114 40.3134 20.3114 40.3134 20.3114C40.3134 20.3114 40.3134 20.3114 40.3134 20.3114C40.3134 20.3114 40.3134 20.3114 40.3134 20.3114C40.3134 20.3114 40.3134 20.3114 40.3134 20.3114C40.3134 20.3114 40.3134 20.3114 40.3134 20.3114C40.3134 20.3114 40.3134 20.3114 40.3134 20.3114C40.3134 20.3114 40.3134 20.3114 40.3134 20.3114C40.3134 20.3114 40.3134 20.3114 40.3134 20.3114C40.3134 20.3114 40.3134 20.3114 40.3134 20.3114C40.3134 20.3114 40.3134 20.3114 40.3134 20.3114C40.3134 20.3114 40.3134 20.3114 40.3134 20.3114C40.3134 20.3114 40.3134 20.3114 40.3134 20.3114C40.3134 20.3114 40.3134 20.3114 40.3134 20.3114C40.3134 20.3114 40.3134 20.3114 40.3134 20.3114C40.3134 20.3114 40.3134 20.3114 40.3134 20.3114C40.3134 20.3114 40.3134 20.3114 40.3134 20.3114C40.3134 20.3114 40.3134 20.3114 40.3134 20.3114C40.3134 20.3114 40.3134 20.3114 40.3134 20.3114C40.3134 20.3114 40.3134 20.3114 40.3134 20.3114C40.3134 20.3114 40.3134 20.3114 40.3134 20.3114C40.3134 20.3114 40.3134 20.3114 40.3134 20.3114C40.3134 20.3114 40.3134 20.3114 40.3134 20.3114C40.3134 20.8162 40.3134 20.8162 40.3134 20.8162C40.3134 20.8162 40.3134 20.8162 40.3134 20.8162C40.3134 20.8162 40.3134 20.8162 40.3134 20.8162C40.3134 20.8162 40.3134 20.8162 40.3134 20.8162C40.3134 20.8162 40.3134 20.8162 40.3134 20.8162C40.3134 20.8162 40.3134 20.8162 40.3134 20.8162C40.3134 20.8162 40.3134 20.8162 40.3134 20.8162C40.3134 20.8162 40.3134 20.8162 40.3134 20.8162C40.3134 20.8162 40.3134 20.8162 40.3134 20.8162C40.3134 20.8162 40.3134 20.8162 40.3134 20.8162C40.3134 20.8162 40.3134 20.8162 40.3134 20.8162C40.3134 20.8162 40.3134 20.8162 40.3134 20.8162C40.3134 20.8162 40.3134 20.8162 40.3134 20.8162C40.3134 20.8162 40.3134 20.8162 40.3134 20.8162C40.3134 20.8162 40.3134 20.8162 40.3134 20.8162C40.3134 20.8162 40.3134 20.8162 40.3134 20.8162C40.3134 20.8162 40.3134 20.8162 40.3134 20.8162C40.3134 20.8162 40.3134 20.8162 40.3134 20.8162C40.3134 20.8162 40.3134 20.8162 40.3134 20.8162C40.3134 20.8162 40.3134 20.8162 40.3134 20.8162C40.3134 20.8162 40.3134 20.8162 40.3134 20.8162C40.3134 20.8162 40.3134 20.8162 40.3134 20.8162C40.3134 20.8162 40.3134 20.8162 40.3134 20.8162C40.3134 20.8162 40.3134 20.8162 40.3134 20.8162C40.3134 20.8162 40.3134 20.8162 40.3134 20.8162L41.3134 20.8162L41.3134 20.8162ZM41.3027 19.9193C41.3345 19.7686 41.4472 19.6209 41.6208 19.5414L41.2047 18.6321C40.7607 18.8353 40.4253 19.2332 40.3242 19.7132L41.3027 19.9193L41.3027 19.9193ZM41.6208 19.5414C43.7934 18.5469 45.4973 17.891 46.7674 17.4848C48.0528 17.0736 48.8548 16.9312 49.241 16.9312L49.241 15.9312C48.6908 15.9312 47.7645 16.1159 46.4627 16.5323C45.1456 16.9536 43.4037 17.6255 41.2046 18.6321L41.6208 19.5414L41.6208 19.5414ZM49.241 16.9312C49.3495 16.9312 49.4264 16.9341 49.4774 16.9375C49.5311 16.9411 49.5361 16.9441 49.5104 16.9391L50.241 16.0079C49.9277 15.9467 49.5692 15.9312 49.241 15.9312L49.241 16.9312L49.241 16.9312ZM49.193 16.8156C49.1734 16.7947 49.224 16.8522 49.2909 17.0925C49.3503 17.3058 49.408 17.6085 49.4484 18.0015C49.5291 18.7859 49.538 19.9 49.3719 21.3198L50.3651 21.436C50.5383 19.9551 50.5324 18.7669 50.4431 17.8992C50.3986 17.4661 50.3325 17.1054 50.2542 16.8242C50.1835 16.5701 50.0825 16.3021 49.9223 16.1314L49.193 16.8156L49.193 16.8156ZM3.40158 30.8544C3.43854 30.9307 3.42891 30.9879 3.4288 30.9887C3.42848 30.9907 3.43167 30.9729 3.45005 30.9332C3.4869 30.8534 3.54931 30.7599 3.60865 30.6815L2.81104 30.0783C2.73515 30.1787 2.6233 30.3384 2.54228 30.5137C2.50173 30.6014 2.46009 30.7117 2.44097 30.8331C2.42205 30.9532 2.41964 31.1213 2.50178 31.2907L3.40158 30.8544L3.40158 30.8544ZM3.64203 30.6817C3.7176 30.5859 3.76914 30.5547 3.78691 30.5457C3.80106 30.5386 3.80609 30.5389 3.81119 30.5389L3.81119 29.5389C3.47528 29.5389 3.12212 29.684 2.81119 30.0781L3.64203 30.6817L3.64203 30.6817ZM3.77082 30.5389C3.79843 30.5389 3.84071 30.5392 3.90723 30.5406L4.77082 29.5496C4.48882 29.5437 4.15083 29.5389 3.77082 29.5389L3.77082 30.5389L3.77082 30.5389ZM3.7926 30.5407C3.85943 30.5496 4.00946 30.6074 4.19005 30.7735C4.36262 30.9322 4.53525 31.1656 4.65684 31.4678L5.58457 31.0946C5.40815 30.656 5.15053 30.2982 4.86697 30.0374C4.59144 29.784 4.25948 29.5941 3.92482 29.5495L3.7926 30.5407L3.7926 30.5407ZM4.65687 31.4679C4.71238 31.6058 4.7869 31.8409 4.80427 32.1342L5.80252 32.0751C5.77724 31.648 5.66942 31.3053 5.58453 31.0945L4.65687 31.4679L4.65687 31.4679ZM5.40483 31.615C4.81762 31.4934 4.31547 31.3486 3.94558 31.192C3.76056 31.1137 3.62184 31.0379 3.52586 30.9693C3.47856 30.9355 3.44662 30.9069 3.42609 30.8851C3.40548 30.8631 3.40064 30.8525 3.40164 30.8546L2.50172 31.2906C2.60346 31.5006 2.77379 31.6609 2.94439 31.7828C3.11959 31.9081 3.32941 32.0171 3.55574 32.1129C4.00857 32.3046 4.58039 32.4655 5.20197 32.5943L5.40483 31.615L5.40483 31.615Z" fill="#1064E5" transform="translate(-0.5 -0.5)" />
      </g>
    </g>
    <g transform="translate(23.771 6.206)">
      <g>
        <path d="M4.11012 5.3107L4.11012 2.18602C5.18766 2.26301 5.58797 2.75555 5.95734 2.75555C6.41918 2.75555 6.63469 2.17066 6.63469 1.87816C6.63469 1.12383 5.15684 0.800625 4.11012 0.769805L4.11012 0.354023C4.11012 0.169336 3.87914 0 3.64828 0C3.38649 0 3.2018 0.169336 3.2018 0.354023L3.2018 0.800391C1.73941 0.954375 0.277031 1.72406 0.277031 3.66363C0.277031 5.63402 1.81641 6.1882 3.2018 6.68074L3.2018 10.2982C1.6316 10.175 1.21605 9.0975 0.708046 9.0975C0.323202 9.0975 0 9.60551 0 9.975C0 10.7292 1.29305 11.7606 3.2018 11.7914L3.2018 12.2686C3.2018 12.4533 3.3866 12.6226 3.64828 12.6226C3.87926 12.6226 4.11012 12.4533 4.11012 12.2686L4.11012 11.7452C5.77266 11.5143 6.91172 10.4675 6.91172 8.57414C6.91172 6.4807 5.44934 5.80324 4.11012 5.3107L4.11012 5.3107ZM3.29414 5.01832C2.47828 4.71047 1.81641 4.38727 1.81641 3.50988C1.81641 2.70938 2.43211 2.32453 3.29414 2.21684L3.29414 5.01832L3.29414 5.01832ZM4.01766 10.2674L4.01766 7.01941C4.77187 7.34262 5.37223 7.77363 5.37223 8.74336C5.37223 9.62098 4.84887 10.1135 4.01766 10.2674L4.01766 10.2674Z" fill="#1064E5" fill-rule="evenodd" />
        <path d="M4.14828 0C3.70209 0 3.2018 0.309618 3.2018 0.854023L3.2018 0.868557C2.55155 0.991248 1.89978 1.24037 1.37212 1.67731C0.704514 2.23015 0.277031 3.05086 0.277031 4.16363C0.277031 5.30796 0.73669 6.08014 1.40755 6.61682C1.94167 7.04411 2.60317 7.31466 3.2018 7.53273L3.2018 10.2031C2.84275 10.0976 2.58158 9.9277 2.36487 9.758C2.28304 9.69392 2.2077 9.62995 2.13031 9.56411C2.05633 9.50117 1.97464 9.43143 1.89448 9.37027C1.74713 9.25785 1.51137 9.0975 1.20805 9.0975C0.791415 9.0975 0.483748 9.36386 0.308614 9.59915C0.128513 9.84112 0 10.1628 0 10.475C0 10.8043 0.138676 11.1127 0.33056 11.3709C0.525239 11.6329 0.795814 11.873 1.11752 12.0768C1.65798 12.4192 2.37197 12.678 3.2018 12.7625L3.2018 12.7686C3.2018 13.3131 3.7023 13.6226 4.14828 13.6226C4.37959 13.6226 4.59962 13.5404 4.76723 13.4138C4.92685 13.2932 5.11012 13.0731 5.11012 12.7686L5.11012 12.6615C5.85008 12.4916 6.50517 12.1538 6.99972 11.6244C7.59271 10.9898 7.91172 10.1257 7.91172 9.07414C7.91172 7.89119 7.49023 7.06431 6.85249 6.47489C6.337 5.99845 5.69921 5.69624 5.11012 5.46533L5.11012 3.27306C5.29784 3.32377 5.45153 3.38833 5.58567 3.45172C5.67941 3.49602 5.86128 3.58969 5.96088 3.63408C6.08491 3.68936 6.25753 3.75555 6.45734 3.75555C6.93066 3.75555 7.23583 3.44933 7.39594 3.18711C7.55393 2.92837 7.63469 2.61926 7.63469 2.37816C7.63469 2.00611 7.44654 1.71788 7.21847 1.51638C6.99721 1.32089 6.7141 1.1823 6.43331 1.08187C6.02389 0.935435 5.55024 0.846009 5.10829 0.801663C5.08883 0.52414 4.91743 0.322315 4.76715 0.208793C4.59958 0.082205 4.37957 0 4.14828 0L4.14828 0ZM3.75416 1.79764L4.14621 1.75636L4.5954 1.76959C5.08485 1.784 5.66047 1.86749 6.09653 2.02346C6.31605 2.10197 6.46782 2.18755 6.55636 2.26578C6.63546 2.33567 6.63482 2.37074 6.6347 2.37757L6.63469 2.37816C6.63469 2.39581 6.63043 2.4404 6.61304 2.50129C6.59619 2.56026 6.5716 2.61826 6.54247 2.66598C6.51281 2.71454 6.48663 2.73926 6.47194 2.74952C6.46609 2.75359 6.46313 2.75496 6.46106 2.75539C6.45512 2.75406 6.42851 2.74768 6.36795 2.72069C6.25493 2.67032 6.20011 2.63605 6.01292 2.54759C5.69467 2.3972 5.26389 2.23145 4.64575 2.18729L4.29414 2.16216L4.29414 2.15048L4.23466 2.15791L4.11012 2.14901L4.11012 2.17347L3.73216 2.22069C3.25317 2.28053 2.7812 2.42335 2.41931 2.71341C2.03619 3.02047 1.81641 3.46184 1.81641 4.00988C1.81641 4.60158 2.05113 5.03816 2.42417 5.35751C2.76618 5.65029 3.21366 5.83369 3.61762 5.98612L3.79414 5.51832L4.11012 5.51832L4.11012 6.15956L4.43753 6.27997C5.10552 6.52564 5.72062 6.79047 6.17376 7.20928C6.60202 7.60508 6.91172 8.16365 6.91172 9.07414C6.91172 9.91602 6.6612 10.522 6.26902 10.9417C5.87253 11.3661 5.28787 11.6463 4.54131 11.75L4.18737 11.7992L3.70987 11.7915C2.84143 11.7774 2.13188 11.5357 1.65271 11.2321C1.41257 11.08 1.24058 10.9189 1.13317 10.7744C1.02295 10.6261 1 10.5228 1 10.475C1 10.4178 1.03309 10.3006 1.1108 10.1962C1.15131 10.1418 1.18311 10.117 1.20126 10.1059C1.21853 10.1159 1.24665 10.1338 1.28792 10.1653C1.34269 10.2071 1.40279 10.2581 1.48232 10.3258C1.55844 10.3905 1.64833 10.467 1.74833 10.5453C2.163 10.8701 2.75067 11.2251 3.6627 11.2967L4.01766 11.3246L4.01766 11.3684L4.18402 11.3376L4.2018 11.339L4.2018 11.3343L4.60867 11.259C5.09624 11.1688 5.54452 10.9698 5.87255 10.6175C6.20695 10.2584 6.37223 9.78734 6.37223 9.24336C6.37223 8.64166 6.18073 8.16967 5.8481 7.80299C5.53084 7.45327 5.11262 7.2304 4.7146 7.05983L4.2018 6.84009L4.2018 6.82784L4.03405 6.7682L4.01766 6.76118L4.01766 6.76238L3.86929 6.70963C3.15955 6.4573 2.51286 6.22044 2.03224 5.83595C1.58706 5.4798 1.27703 4.9897 1.27703 4.16363C1.27703 3.33683 1.58074 2.80292 2.00992 2.44752C2.45749 2.07689 3.08277 1.86834 3.75416 1.79764L3.75416 1.79764ZM3.29432 3.4937C3.43149 3.44118 3.60502 3.39293 3.81641 3.35094L3.81641 4.75009C3.64039 4.70153 3.48765 4.65143 3.35663 4.59784C3.0178 4.45928 2.81641 4.29557 2.81641 4.00988C2.81641 3.75742 3.00074 3.60611 3.29432 3.4937L3.29432 3.4937ZM5.01766 10.0443L5.01766 8.38605C5.10857 8.41486 5.19294 8.44442 5.2709 8.47489C5.71112 8.64695 6.01766 8.87533 6.01766 9.24336C6.01766 9.57699 5.74575 9.79097 5.36478 9.93602C5.26494 9.97403 5.14963 10.0103 5.01766 10.0443L5.01766 10.0443Z" fill="#1064E5" fill-rule="evenodd" transform="translate(-0.5 -0.5)" />
      </g>
    </g>
  </g>
</svg>