<?xml version="1.0" encoding="utf-8"?>
<svg width="23.981" height="24" viewBox="0 0 23.981 24" fill="none" xmlns="http://www.w3.org/2000/svg">
  <g>
    <path d="M17.9856 0L1.9984 0C0.89928 0 0 0.9 0 2L0 14C0 15.1 0.89928 16 1.9984 16L17.9856 16C19.0847 16 19.984 15.1 19.984 14L19.984 2C19.984 0.9 19.0847 0 17.9856 0L17.9856 0ZM17.5859 4.25038L11.0511 8.34038C10.4017 8.75038 9.58231 8.75038 8.93283 8.34038L2.39806 4.25038C2.29787 4.19409 2.21013 4.11804 2.14016 4.02683C2.07019 3.93563 2.01943 3.83116 1.99097 3.71975C1.9625 3.60834 1.95692 3.49232 1.97456 3.37869C1.9922 3.26506 2.0327 3.15619 2.09359 3.05868C2.15449 2.96117 2.23452 2.87704 2.32885 2.81138C2.42317 2.74571 2.52983 2.69989 2.64237 2.67668C2.7549 2.65347 2.87097 2.65335 2.98355 2.67633C3.09614 2.69931 3.20288 2.74491 3.29734 2.81038L9.99198 7.00038L16.6866 2.81038C16.781 2.74491 16.8879 2.69931 17.0004 2.67633C17.113 2.65335 17.2291 2.65347 17.3416 2.67668C17.4541 2.69989 17.5608 2.74571 17.6551 2.81138C17.7495 2.87704 17.8295 2.96117 17.8904 3.05868C17.9513 3.15619 17.9918 3.26506 18.0094 3.37869C18.0271 3.49232 18.0215 3.60834 17.993 3.71975C17.9645 3.83116 17.9137 3.93563 17.8438 4.02683C17.7739 4.11804 17.6861 4.19409 17.5859 4.25038L17.5859 4.25038Z" fill="#1064E5" fill-rule="evenodd" transform="translate(1.998 4)" />
  </g>
</svg>