<?xml version="1.0" encoding="utf-8"?>
<svg width="23.981" height="24" viewBox="0 0 23.981 24" fill="none" xmlns="http://www.w3.org/2000/svg">
  <g>
    <path d="M7.9936 0C3.57428 0 0 3.57714 0 8C0 14 7.9936 22.8571 7.9936 22.8571C7.9936 22.8571 15.9872 14 15.9872 8C15.9872 3.57714 12.413 0 7.9936 0L7.9936 0ZM7.99356 10.8568C7.23641 10.8568 6.51026 10.5558 5.97488 10.02C5.43949 9.48421 5.13871 8.75748 5.13871 7.99972C5.13871 7.24196 5.43949 6.51523 5.97488 5.97942C6.51026 5.4436 7.23641 5.14258 7.99356 5.14258C8.75072 5.14258 9.47686 5.4436 10.0122 5.97942C10.5476 6.51523 10.8484 7.24196 10.8484 7.99972C10.8484 8.75748 10.5476 9.48421 10.0122 10.02C9.47686 10.5558 8.75072 10.8568 7.99356 10.8568L7.99356 10.8568Z" fill="#1064E5" fill-rule="evenodd" transform="translate(3.997 1)" />
  </g>
</svg>