<?xml version="1.0" encoding="utf-8"?>
<svg width="23.981" height="24" viewBox="0 0 23.981 24" fill="none" xmlns="http://www.w3.org/2000/svg">
  <g>
    <path d="M18.3978 3.05156L15.9037 0.557813C15.7277 0.380962 15.5186 0.240642 15.2884 0.144915C15.058 0.0491884 14.8111 -5.98431e-05 14.5617 0C14.0535 0 13.5758 0.199219 13.2175 0.557813L10.5338 3.24375C10.357 3.41983 10.2168 3.62911 10.1212 3.85958C10.0256 4.09005 9.97633 4.33716 9.97639 4.58672C9.97639 5.09531 10.1755 5.57344 10.5338 5.93203L12.4963 7.89609C12.0369 8.90944 11.3982 9.8313 10.611 10.6172C9.82585 11.4069 8.90481 12.0484 7.89212 12.5109L5.92963 10.5469C5.75369 10.37 5.54458 10.2297 5.3143 10.134C5.08401 10.0383 4.8371 9.989 4.58774 9.98906C4.07955 9.98906 3.60181 10.1883 3.2435 10.5469L0.557369 13.2305C0.380443 13.4069 0.240115 13.6165 0.14446 13.8474C0.048805 14.0783 -0.000288963 14.3258 1.19209e-06 14.5758C1.19209e-06 15.0844 0.199062 15.5625 0.557369 15.9211L3.04678 18.4125C3.6182 18.9867 4.40741 19.3125 5.2177 19.3125C5.38866 19.3125 5.55259 19.2984 5.71418 19.2703C8.87103 18.75 12.0021 17.0695 14.529 14.543C17.0535 12.0188 18.7303 8.8875 19.2573 5.71875C19.4165 4.75078 19.0956 3.75469 18.3978 3.05156L18.3978 3.05156Z" fill="#1064E5" fill-rule="evenodd" transform="translate(2.342 2.344)" />
  </g>
</svg>